<svg width="491" height="712" viewBox="0 0 491 712" fill="none" xmlns="http://www.w3.org/2000/svg">
<path d="M202.932 612.957C202.932 612.957 202.693 613.162 202.234 613.17C201.495 613.453 201.216 613.729 200.936 614.004C200.936 614.004 200.725 614.211 200.28 614.212C199.559 614.483 199.283 614.753 199.007 615.024C199.007 615.024 199.003 614.997 198.664 614.965C197.213 615.652 196.102 616.372 194.991 617.092C194.991 617.092 194.776 617.303 194.333 617.292C193.603 617.542 193.315 617.802 193.027 618.063C193.027 618.063 193.017 617.996 192.728 617.979C191.961 618.316 191.483 618.669 191.005 619.023C191.005 619.023 191.009 619.01 190.609 618.913C189.795 618.018 189.017 617.219 189.018 616.421C189.034 586.342 189.073 556.262 189.31 526.185C189.326 524.127 190.321 521.143 191.855 520.192C199.02 515.75 206.535 511.871 213.948 508.208C213.71 511.725 215.537 512.671 217.99 511.762C220.728 510.747 223.281 509.171 225.803 507.653C228.763 505.873 231.417 503.483 234.527 502.069C250.68 494.725 267.17 488.083 283.085 480.264C295.83 474.002 307.898 466.366 320.32 459.437C323.064 457.906 326.132 456.958 328.884 455.44C342.947 447.683 356.828 439.588 371.019 432.076C384.772 424.795 399.283 418.848 412.625 410.91C428.365 401.546 444.799 394.089 462.011 388.107C466.684 386.483 468.499 387.409 468.952 392.383C470.063 404.571 470.949 416.78 472.065 428.968C472.192 430.352 473.215 431.653 473.876 433.46C474.097 445.755 474.264 457.583 474.431 469.411C474.431 469.411 474.416 469.78 473.93 469.964C472.489 470.405 471.441 470.487 470.593 470.942C458.46 477.462 446.404 484.127 434.229 490.569C415.855 500.291 397.478 510.013 378.962 519.46C362.982 527.613 346.638 535.062 330.75 543.385C292.44 563.453 254.283 583.812 216.131 604.179C212.576 606.077 209.499 608.87 206.201 611.247C206.201 611.247 206.028 610.995 205.782 611.051C204.669 611.724 203.8 612.34 202.932 612.957Z" fill="#023A53"/>
<path d="M474.924 245.002C474.942 281.721 474.96 318.44 474.65 355.63C474.089 356.234 473.856 356.366 473.624 356.499C474 356.639 474.377 356.778 474.754 356.917C474.809 358.323 474.864 359.728 474.631 361.549C474.342 361.964 473.923 362.002 473.57 362.045C470.969 362.289 468.244 363.423 466.545 362.552C432.245 344.991 398.069 327.187 363.827 309.51C362.755 308.957 361.252 309.24 359.574 309.074C357.991 308.718 356.783 308.423 355.325 307.915C346.576 302.584 338.196 297.254 329.536 292.427C324.55 289.648 319.111 287.681 313.769 285.062C313.29 284.717 312.919 284.658 312.509 284.562C312.471 284.525 312.369 284.55 312.54 284.166C311.424 281.497 310.674 277.982 308.755 277.143C301.46 273.956 293.787 271.633 286.186 268.524C286.042 258.373 285.967 248.686 286.29 238.925C287.413 235.765 288.727 232.688 288.769 229.593C289.013 211.897 289.043 194.196 288.867 176.5C288.849 174.658 286.999 172.833 285.975 170.543C285.901 166.739 285.851 163.391 286.12 159.8C286.626 158.597 286.914 157.643 286.983 156.675C287.405 150.742 288.941 149.794 294.06 152.573C296.093 153.676 297.962 155.087 299.88 156.395C303.428 158.815 306.811 161.52 310.528 163.641C317.257 167.48 324.242 170.869 330.969 174.711C332.258 175.447 332.849 177.403 333.762 178.796C331.975 178.945 330.182 179.244 328.402 179.183C327.479 179.151 326.534 178.562 325.674 178.088C321.388 175.729 317.218 173.139 312.833 170.986C308.082 168.654 302.788 170.401 301.495 175.443C299.175 184.484 296.542 193.727 296.285 202.949C295.878 217.499 296.982 232.129 298.154 246.667C298.648 252.783 300.587 258.87 302.53 264.752C304.21 269.836 315.026 276.511 319.811 276.651C321.902 276.712 324.113 277.589 326.008 278.59C335.513 283.61 344.59 289.638 354.491 293.649C362.119 296.738 370.705 297.486 377.939 301.976C383.722 305.567 389.967 308.6 395.181 312.885C409.957 325.026 426.829 330.787 445.74 330.852C447.374 330.858 449.689 329.178 450.537 327.645C454.187 321.042 457.46 314.229 460.74 307.429C461.438 305.982 461.872 304.287 461.953 302.682C462.385 294.15 463.411 285.554 462.78 277.089C462.209 269.438 460.269 261.767 457.907 254.435C457.003 251.63 453.627 248.542 450.738 247.645C439.377 244.12 430.22 237.149 420.775 230.433C416.649 227.499 412.027 225.124 407.359 223.129C401.299 220.539 394.845 218.866 388.804 216.239C385.533 214.816 381.599 212.878 380.025 210.032C377.047 204.644 372.243 202.21 367.558 199.148C364.716 197.291 362.418 194.603 359.875 192.289C360.246 191.713 360.616 191.137 360.987 190.562C368.487 193.371 375.943 196.31 383.51 198.926C386.55 199.977 389.836 200.318 393.334 200.986C394.086 201.036 394.515 201.08 395.017 201.456C396.058 202.188 397.025 202.589 397.997 202.993C398.002 202.997 398.012 203.003 398.064 203.352C408.822 209.443 419.409 215.427 430.29 220.817C435.098 223.199 440.502 224.378 445.635 226.103C445.635 226.103 445.873 226.047 446.043 226.353C446.451 226.894 446.734 226.977 447.061 226.908C447.061 226.908 447.027 226.994 447.177 227.281C448.551 228.025 449.775 228.483 450.999 228.94C450.999 228.94 451.035 228.949 451.189 229.222C451.892 229.644 452.441 229.793 452.989 229.942C452.989 229.942 453.037 229.942 453.161 230.288C457.611 234.46 462.175 237.788 468.314 237.826C468.314 237.826 468.726 237.849 468.965 238.199C469.398 238.802 469.653 238.944 469.971 238.975C469.971 238.975 470.034 239.014 470.069 239.288C470.294 239.873 470.572 240.021 470.937 240.007C472.36 241.079 473.783 242.15 474.91 243.696C474.555 244.278 474.42 244.438 474.452 244.485C474.582 244.676 474.762 244.833 474.924 245.002Z" fill="#013753"/>
<path d="M35.3021 224.002C35.2038 217.973 35.1055 211.943 35.5121 205.435C36.6778 203.511 37.7579 202.112 37.9278 200.61C38.7433 193.399 38.9649 186.103 40.1429 178.961C40.6074 176.144 42.3649 172.598 44.6471 171.194C52.4987 166.365 60.8424 162.336 68.9497 158.341C64.7989 161.692 60.4874 164.465 56.6745 167.807C54.4289 169.776 51.6119 172.541 51.4108 175.13C50.7162 184.075 51.0481 193.099 51.0108 202.093C51.0007 204.512 51.096 206.931 51.0927 209.35C51.0867 213.832 50.7587 218.339 51.1511 222.784C51.3169 224.663 53.9995 226.565 53.7562 228.19C52.878 234.055 57.1277 234.528 60.6452 234.854C65.9737 235.348 70.9423 235.093 76.0338 231.467C82.4895 226.869 90.3466 224.259 97.5364 220.665C102.085 218.392 106.502 215.856 111.009 213.497C115.324 211.238 119.613 208.91 124.042 206.896C126.58 205.741 130.057 205.898 131.937 204.18C140.087 196.734 152.134 195.722 159.516 187.106C160.384 186.093 162.139 185.771 163.54 185.295C168.207 183.71 173.015 182.476 177.549 180.581C181.483 178.937 185.107 176.558 188.889 174.541C192.388 172.675 196.99 171.684 199.178 168.83C202.517 164.471 207.018 162.955 211.418 160.812C215.444 158.851 219.411 156.742 223.54 155.024C233.456 150.899 243.377 146.766 253.444 143.036C258.828 141.04 264.614 140.144 270.038 138.238C273.917 136.874 277.427 134.496 281.225 132.858C286.371 130.64 292.279 129.589 296.688 126.411C302.346 122.332 306.917 116.71 311.803 111.606C314.057 109.251 315.945 106.547 318.294 104.29C318.726 106.711 318.854 108.844 319.002 110.976C319.357 116.095 317.62 119.514 312.57 121.911C305.156 125.428 298.17 129.863 291.092 134.059C290.143 134.622 289.722 136.074 288.895 137.388C288.025 138.726 287.315 139.791 286.334 140.987C285.179 141.886 284.295 142.653 283.349 143.428C283.288 143.435 283.219 143.537 282.985 143.635C282.232 144.179 281.714 144.625 280.794 145.013C273.935 143.03 271.24 144.441 268.824 151.082C268.359 151.473 268.09 151.689 267.526 151.876C266.84 151.902 266.45 151.958 265.837 152.098C265.333 152.35 265.128 152.586 264.693 153.017C263.611 153.49 262.836 153.835 261.672 154.198C258.265 155.328 255.095 156.144 252.255 157.602C237.186 165.334 222.22 173.266 207.181 181.056C176.274 197.066 145.252 212.857 114.456 229.078C96.7893 238.383 79.473 248.352 61.6671 258.058C59.516 259.262 57.6968 260.432 55.5254 261.718C50.1282 264.591 45.0832 267.346 39.9785 269.679C39.6128 267.643 39.0889 266.035 39.0354 264.411C38.6375 252.326 38.333 240.238 37.9987 228.151C37.9453 226.219 38.5122 223.883 35.3021 224.002Z" fill="#F26C14"/>
<path d="M35.4256 296.089C35.3834 293.341 35.3412 290.593 35.5027 287.309C35.844 286.473 35.7706 286.234 35.4863 286.055C35.4263 283.68 35.3662 281.304 35.6577 278.5C36.3606 278.049 36.7122 278.026 37.4778 278.002C39.9874 278.367 42.3299 278.25 44.1381 279.177C55.3394 284.915 66.4341 290.863 77.5386 296.789C93.1257 305.108 108.65 313.544 124.279 321.784C134.783 327.323 145.42 332.609 155.999 338.408C156 339.871 156 340.936 155.561 342C147.15 340.529 139.177 339.064 131.208 337.584C128.468 337.075 125.735 336.529 122.75 336C122.5 336 122 336 121.962 335.648C117.388 331.981 113.801 326.77 107.028 327.913C106.445 328.012 105.479 327.825 105.198 327.42C102.838 324.014 98.6531 324.111 95.7123 322.34C89.2902 318.471 82.9198 318.015 75.5772 319C71.8033 317.902 68.4455 316.823 65.103 315.698C63.5565 315.177 62.073 314.444 60.5029 314.025C56.5096 312.958 52.7384 312.043 50.5337 307.671C49.7556 306.128 46.4223 305.28 44.2551 305.279C43.1582 305.279 41.711 307.729 41.0561 309.331C40.327 311.114 40.0959 313.186 40.0502 315.142C39.9861 317.884 38.8144 319.146 36.077 318.542C35.8444 310.745 35.635 303.417 35.4256 296.089Z" fill="#EF6C18"/>
<path d="M473.822 432.993C473.215 431.653 472.192 430.352 472.065 428.968C470.949 416.78 470.063 404.571 468.952 392.383C468.499 387.409 466.683 386.483 462.011 388.106C444.799 394.089 428.365 401.546 412.625 410.91C399.283 418.848 384.772 424.795 371.019 432.076C356.828 439.588 342.947 447.683 328.884 455.44C326.132 456.958 323.064 457.906 320.32 459.437C307.898 466.366 295.83 474.002 283.085 480.264C267.17 488.083 250.68 494.725 234.526 502.069C231.416 503.483 228.763 505.873 225.803 507.653C223.281 509.171 220.728 510.747 217.99 511.762C215.537 512.671 213.71 511.725 214.168 507.958C221.617 502.926 228.869 498.562 236.498 494.159C237.61 493.948 238.346 493.776 239.333 493.672C239.956 493.473 240.328 493.206 241.087 492.904C245.916 491.079 250.5 489.57 254.767 487.428C260.597 484.501 266.185 481.093 271.901 477.896C271.924 477.9 271.944 477.857 272.307 477.864C275.789 476.184 278.908 474.497 282.18 472.769C282.332 472.727 282.647 472.76 282.933 472.769C283.453 472.502 283.688 472.227 283.928 471.936C283.934 471.92 283.922 471.887 284.287 471.878C285.574 471.501 286.537 471.213 287.409 470.752C305.583 461.166 323.751 451.567 341.91 441.951C346.288 439.633 350.63 437.248 355.219 434.822C355.735 434.552 355.886 434.279 355.92 433.924C355.939 433.918 355.96 433.884 356.338 433.923C358.564 433.262 360.496 432.728 362.244 431.835C375.111 425.257 387.942 418.607 401.159 411.962C422.263 400.908 442.991 389.872 463.721 378.838C466.998 377.093 470 374.337 474.202 375.968C474.316 377.083 474.431 378.197 474.318 379.81C474.208 380.879 474.324 381.45 474.441 382.021C474.495 384.385 474.55 386.748 474.34 389.902C473.991 404.793 473.906 418.893 473.822 432.993Z" fill="#033251"/>
<path d="M215.355 492.363C206.015 487.657 196.623 483.051 187.344 478.228C141.719 454.515 96.0958 430.797 50.5565 406.919C45.3683 404.199 40.7098 400.468 35.8665 396.416C35.9652 394.423 36.0033 393.219 36.3826 392.047C44.0526 396.775 51.1652 401.861 58.763 406.071C68.9796 411.733 79.5706 416.719 90.3757 421.997C91.5 422 92.2496 422.001 93.0527 422.35C95.7441 424.271 98.3196 425.962 101.031 427.395C110.329 432.311 119.674 437.137 129.26 442.105C130.013 442.475 130.507 442.737 131.161 443.311C138.88 447.416 146.44 451.209 154.14 455.291C155.188 456.053 156.093 456.526 157.15 457.299C158.868 458.397 160.436 459.194 162.298 460.119C163.394 460.496 164.197 460.747 165.199 461.274C174.163 466.141 182.908 470.768 191.698 475.31C197.105 478.104 202.315 481.903 208.08 483.249C218.846 485.763 222.065 483.626 222.063 473.809C222.063 470.37 222.494 466.895 223.134 463.514C223.318 462.539 224.917 461.832 225.968 461.459C225.998 466.948 225.928 471.98 225.533 477.215C223.78 481.05 222.562 484.668 225.944 488.377C225.984 489.494 225.937 490.244 225.569 491.048C224.177 492.37 223.105 493.638 222.033 494.905C220.903 494.583 219.772 494.262 218.227 493.432C216.993 492.737 216.174 492.55 215.355 492.363Z" fill="#F96B17"/>
<path d="M206.567 611.225C209.499 608.87 212.576 606.077 216.131 604.179C254.283 583.812 292.44 563.453 330.75 543.385C346.638 535.062 362.982 527.614 378.962 519.461C397.478 510.013 415.855 500.292 434.229 490.569C446.404 484.127 458.46 477.462 470.593 470.943C471.441 470.487 472.489 470.405 473.825 470.116C472.671 471.477 471.346 473.267 469.571 474.209C434.712 492.701 399.875 511.238 364.881 529.473C314.081 555.944 263.159 582.182 212.287 608.516C210.514 609.434 208.718 610.309 206.567 611.225Z" fill="#317391"/>
<path d="M289.056 137.115C289.722 136.074 290.143 134.622 291.092 134.059C298.17 129.863 305.156 125.429 312.57 121.911C317.62 119.514 319.357 116.095 319.002 110.976C318.854 108.844 318.725 106.711 318.294 103.844C318 83.7397 318 64.3699 318.249 44.798C318.428 43.6444 318.285 42.6918 318.298 41.7415C318.484 28.8639 315.849 27.254 304.398 33.3065C303.539 33.7605 302.792 34.4261 301.643 35.0507C297.859 37.0701 294.424 39.0322 290.657 41.1407C283.081 44.7447 275.841 48.2138 268.589 51.6572C256.394 57.4481 244.19 63.2227 232.011 68.7018C232.366 67.6734 232.7 66.9474 233.034 66.2213C233.034 66.2213 233.103 66.0458 233.45 66.0439C234.204 65.7541 234.611 65.4662 235.019 65.1783C235.019 65.1783 235.075 65.0193 235.42 65.025C236.178 64.7203 236.591 64.4099 237.004 64.0995C237.004 64.0995 237.034 64.0067 237.361 64.0105C238.126 63.7026 238.564 63.3909 239.002 63.0792C239.002 63.0792 239.022 63.0075 239.399 63.0223C240.854 62.361 241.932 61.6848 243.01 61.0086C258.209 53.2712 273.387 45.4907 288.615 37.8118C298.671 32.7415 308.799 27.8174 319.64 22.8762C320.611 25.3095 321.028 27.6939 321.033 30.0792C321.084 55.966 321.047 81.8529 321.134 107.739C321.139 109.197 322.014 110.652 322.484 112.108C323.297 121.142 323.303 121.153 315.282 125.277C309.544 128.227 303.789 131.142 297.327 134.099C294.094 135.121 291.575 136.118 289.056 137.115Z" fill="#F8731E"/>
<path d="M155.998 338.009C145.42 332.609 134.783 327.323 124.279 321.784C108.65 313.544 93.1257 305.108 77.5386 296.789C66.4341 290.863 55.3394 284.915 44.1381 279.177C42.3299 278.25 39.9874 278.367 37.4717 277.674C36.5281 276.545 36.0047 275.744 35.4812 274.943C35.4116 271.239 35.342 267.536 35.5612 263.063C35.6977 255.216 35.5454 248.139 35.393 241.062C35.2933 235.681 35.1937 230.299 35.1981 224.46C38.5123 223.883 37.9454 226.219 37.9988 228.151C38.3331 240.238 38.6376 252.326 39.0355 264.411C39.089 266.035 39.613 267.643 39.9582 270.043C41.0294 271.754 41.925 272.937 43.1134 273.569C70.367 288.07 97.6234 302.566 124.948 316.933C134.485 321.947 144.205 326.614 154.113 331.668C155.924 332.991 157.463 334.084 159 335.499C158.663 336.552 158.328 337.282 157.661 338.01C156.885 338.008 156.442 338.008 155.998 338.009Z" fill="#F67213"/>
<path d="M86.9738 141.469C87.1369 141.357 87.3001 141.245 88.0494 141.075C89.0873 140.684 89.539 140.351 89.9907 140.019C90.2893 139.778 90.588 139.537 91.3998 139.194C92.2699 138.817 92.6269 138.542 92.9839 138.267C92.9839 138.267 93.3883 138.004 93.8666 137.945C94.6693 137.777 94.906 137.569 95.055 137.261C95.055 137.261 95.1373 137.114 95.4752 137.101C96.2246 136.811 96.636 136.535 97.0475 136.259C97.0475 136.259 97.185 136.102 97.3696 136.092C97.5542 136.081 97.8317 135.909 97.8317 135.909C98.2705 135.64 98.7094 135.372 99.752 135.011C100.657 134.822 100.87 134.628 100.996 134.338C140.411 113.903 179.826 93.4685 219.673 73.0718C220.107 73.1096 220.259 73.2711 220.172 73.5926C219.054 75.2633 218.022 76.6125 216.625 78.006C207.954 82.1363 199.563 86.0576 191.364 90.3472C179.318 96.6499 167.403 103.203 155.444 109.673C143.967 115.882 132.505 122.117 121.039 128.346C104.693 137.226 88.3487 146.111 71.6149 154.997C68.4616 155.632 65.6971 156.263 63.1091 156.604C67.5706 153.895 71.9397 151.611 76.1109 149.009C78.898 147.271 81.4038 145.082 84.0354 143.094C84.0354 143.094 84.049 143.018 84.368 143.03C85.1255 142.72 85.5639 142.397 86.0022 142.074C86.0022 142.074 86.0251 141.999 86.2425 141.982C86.702 141.873 86.8733 141.708 86.9738 141.469Z" fill="#F97832"/>
<path d="M283.411 143.42C284.295 142.653 285.179 141.886 286.622 141.097C288.032 141.389 288.883 141.704 289.734 142.019C326.721 162.123 363.707 182.228 400.492 202.684C399.531 203.024 398.772 203.013 398.012 203.003C398.012 203.003 398.002 202.997 397.855 202.707C396.787 201.986 395.865 201.556 394.944 201.125C394.515 201.08 394.086 201.036 393.125 200.708C379.344 193.561 366.036 186.812 352.864 179.806C337.641 171.707 322.595 163.274 307.359 155.199C299.502 151.035 291.401 147.332 283.411 143.42Z" fill="#3B7077"/>
<path d="M236.121 494.197C228.869 498.562 221.617 502.926 214.145 507.54C206.535 511.871 199.02 515.75 191.855 520.192C190.321 521.143 189.326 524.127 189.31 526.185C189.073 556.262 189.034 586.342 189.018 616.421C189.017 617.219 189.795 618.018 190.611 618.925C189.983 618.836 188.807 618.864 187.986 618.339C187.603 618.094 187.905 616.776 187.9 615.944C187.722 586.487 187.742 557.026 187.211 527.576C187.096 521.242 189.446 518.175 194.782 515.333C205.15 509.809 215.053 503.411 225.509 497.042C226.145 496.562 226.351 496.352 226.885 496.055C228.742 495.11 230.202 494.187 231.976 493.209C232.695 493.035 233.1 492.917 233.795 492.815C234.673 492.847 235.261 492.863 235.917 493.208C236.03 493.758 236.076 493.977 236.121 494.197Z" fill="#457983"/>
<path d="M359.949 309.134C361.252 309.24 362.755 308.957 363.827 309.51C398.068 327.187 432.245 344.991 466.545 362.552C468.244 363.422 470.969 362.289 473.585 362.42C474.194 364.177 474.435 365.602 474.675 367.026C474.713 367.415 474.75 367.804 474.495 368.347C473.499 368.319 472.795 368.136 471.774 367.781C469.976 366.91 468.462 366.276 467.021 365.505C447.385 354.997 427.813 344.37 408.114 333.98C392.136 325.553 376.01 317.405 359.949 309.134Z" fill="#111F33"/>
<path d="M62.9324 156.894C65.6969 156.263 68.4615 155.632 71.573 155.319C70.9462 156.425 69.9723 157.214 68.9985 158.002C60.8423 162.336 52.4987 166.365 44.647 171.194C42.3648 172.598 40.6074 176.144 40.1428 178.961C38.9648 186.104 38.7433 193.399 37.9277 200.61C37.7578 202.112 36.6777 203.511 35.6162 204.977C35.0737 195.638 34.932 186.28 35.2186 176.427C39.0388 173.163 42.4777 170.448 45.7827 167.578C46.4349 167.012 46.5715 165.852 46.9621 164.975C46.9782 164.985 46.9801 164.947 47.3485 164.961C49.1385 163.981 50.56 162.987 52.3488 161.969C56.1214 160.262 59.5269 158.578 62.9324 156.894Z" fill="#F67213"/>
<path d="M322.657 111.659C322.014 110.652 321.139 109.197 321.134 107.739C321.047 81.853 321.084 55.966 321.033 30.0793C321.028 27.694 320.611 25.3095 319.991 22.8C320.591 22.2487 321.585 21.8221 322.83 21.2881C322.83 51.5624 322.83 81.3866 322.657 111.659Z" fill="#F89552"/>
<path d="M474.325 375.655C470 374.337 466.998 377.094 463.721 378.838C442.992 389.872 422.263 400.908 401.186 411.655C400.818 411.162 400.798 410.957 400.999 410.494C402.25 409.695 403.289 409.171 404.306 408.611C424.529 397.479 444.749 386.343 465.298 375.111C467.103 374.015 468.58 373.016 470.328 372.032C470.879 371.823 471.159 371.6 471.547 371.344C471.655 371.313 471.848 371.197 472.157 371.109C473.117 371.79 473.767 372.558 474.417 373.327C474.428 373.998 474.438 374.67 474.325 375.655Z" fill="#111F33"/>
<path d="M63.109 156.604C59.527 158.578 56.1215 160.262 52.0092 161.993C49.8616 163.01 48.4209 163.978 46.9802 164.947C46.9802 164.947 46.9783 164.985 46.6096 165.015C42.37 167.055 38.4991 169.065 34.6282 171.074C35.9665 169.247 36.905 166.654 38.7064 165.713C53.483 158 68.4202 150.595 83.672 143.095C81.4037 145.082 78.898 147.271 76.1108 149.009C71.9396 151.61 67.5706 153.894 63.109 156.604Z" fill="#F89552"/>
<path d="M398.064 203.352C398.771 203.013 399.531 203.024 400.664 202.973C401.038 202.912 401.031 202.946 401.197 203.248C403.237 204.353 405.11 205.155 406.983 205.958C406.983 205.958 407.023 205.959 407.173 206.244C407.884 206.667 408.446 206.805 409.007 206.944C409.007 206.944 409.021 206.971 409.192 207.258C410.569 208.02 411.775 208.493 412.981 208.967C412.981 208.967 413.018 208.967 413.164 209.25C413.863 209.688 414.417 209.845 414.97 210.001C425.057 215.202 435.144 220.404 445.433 225.854C440.502 224.378 435.098 223.199 430.29 220.817C419.409 215.427 408.822 209.443 398.064 203.352Z" fill="#1A4869"/>
<path d="M36.0414 392.015C36.0034 393.219 35.9653 394.423 35.8635 396.08C35.536 394.928 35.042 393.321 35.0427 391.715C35.0569 360.138 35.1285 328.56 35.307 296.536C35.635 303.416 35.8444 310.745 36.0512 319.009C36.0463 343.968 36.0438 367.991 36.0414 392.015Z" fill="#F97832"/>
<path d="M473.876 433.46C473.907 418.893 473.991 404.793 474.291 390.343C474.648 395.287 474.91 400.58 474.911 405.873C474.913 426.786 474.834 447.699 474.608 469.011C474.264 457.583 474.097 445.755 473.876 433.46Z" fill="#457983"/>
<path d="M34.5266 171.421C38.4992 169.065 42.3701 167.055 46.5935 165.006C46.5717 165.852 46.435 167.012 45.7829 167.578C42.4778 170.448 39.0389 173.163 35.296 175.963C34.7716 174.585 34.5983 173.176 34.5266 171.421Z" fill="#F97832"/>
<path d="M468.108 237.544C462.175 237.788 457.611 234.46 453.175 230.307C458.01 232.408 462.956 234.835 468.108 237.544Z" fill="#1A4869"/>
<path d="M232.683 66.2415C232.7 66.9473 232.366 67.6734 231.846 68.9451C231.109 69.6597 230.558 69.8286 229.639 70.0007C227.841 70.9964 226.41 71.9887 224.688 73.1076C223.018 73.2464 221.638 73.2587 220.259 73.271C220.259 73.271 220.107 73.1096 220.031 73.0282C224.081 70.7184 228.206 68.49 232.683 66.2415Z" fill="#F97832"/>
<path d="M289.971 141.683C288.883 141.704 288.032 141.389 286.893 140.965C287.315 139.791 288.025 138.726 288.895 137.388C291.575 136.118 294.094 135.121 296.993 134.191C294.985 136.62 292.596 138.984 289.971 141.683Z" fill="#F89552"/>
<path d="M35.2768 241.513C35.5453 248.139 35.6977 255.216 35.6473 262.605C35.3499 255.932 35.2554 248.948 35.2768 241.513Z" fill="#F97832"/>
<path d="M226.488 496.077C226.351 496.352 226.145 496.562 225.828 496.757C224.711 496.382 223.638 495.96 222.299 495.221C223.105 493.638 224.177 492.37 225.71 491.298C226.423 492 226.674 492.508 226.934 493.416C226.792 494.571 226.64 495.324 226.488 496.077Z" fill="#F97832"/>
<path d="M474.594 372.982C473.767 372.558 473.117 371.79 472.286 370.712C472.101 369.585 472.096 368.769 472.092 367.953C472.796 368.136 473.499 368.319 474.441 368.636C474.71 370.06 474.74 371.349 474.594 372.982Z" fill="#457983"/>
<path d="M406.81 205.674C405.11 205.155 403.237 204.352 401.213 203.247C402.919 203.759 404.778 204.575 406.81 205.674Z" fill="#3B7077"/>
<path d="M195.331 617.094C196.102 616.372 197.213 615.653 198.674 614.974C197.906 615.71 196.789 616.403 195.331 617.094Z" fill="#317391"/>
<path d="M35.3651 275.324C36.0046 275.744 36.5281 276.545 37.0576 277.675C36.7121 278.026 36.3606 278.049 35.7456 278.064C35.4044 277.272 35.3268 276.489 35.3651 275.324Z" fill="#F97832"/>
<path d="M450.82 228.671C449.775 228.483 448.551 228.025 447.205 227.244C448.27 227.414 449.455 227.908 450.82 228.671Z" fill="#1A4869"/>
<path d="M242.682 61.022C241.932 61.6847 240.854 62.3609 239.434 63.0348C240.18 62.3668 241.266 61.7011 242.682 61.022Z" fill="#F97832"/>
<path d="M474.793 366.616C474.435 365.602 474.194 364.177 473.938 362.377C473.923 362.002 474.342 361.963 474.553 361.965C474.812 363.38 474.862 364.793 474.793 366.616Z" fill="#1A4869"/>
<path d="M412.806 208.693C411.775 208.493 410.569 208.02 409.208 207.256C410.245 207.45 411.439 207.934 412.806 208.693Z" fill="#3B7077"/>
<path d="M203.255 612.965C203.8 612.34 204.669 611.724 205.864 611.179C205.32 611.826 204.449 612.4 203.255 612.965Z" fill="#317391"/>
<path d="M215.548 492.607C216.174 492.55 216.993 492.737 217.924 493.245C217.271 493.328 216.506 493.089 215.548 492.607Z" fill="#F97832"/>
<path d="M191.31 619.042C191.483 618.669 191.961 618.316 192.749 618.006C192.577 618.387 192.096 618.724 191.31 619.042Z" fill="#317391"/>
<path d="M236.731 64.0964C236.591 64.4099 236.178 64.7204 235.498 65.0589C235.639 64.7558 236.048 64.4246 236.731 64.0964Z" fill="#F97832"/>
<path d="M452.843 229.69C452.441 229.792 451.892 229.644 451.204 229.233C451.608 229.127 452.153 229.283 452.843 229.69Z" fill="#1A4869"/>
<path d="M474.602 381.693C474.324 381.45 474.208 380.879 474.262 380.146C474.543 380.444 474.652 380.905 474.602 381.693Z" fill="#457983"/>
<path d="M414.81 209.757C414.417 209.845 413.863 209.688 413.175 209.265C413.577 209.169 414.113 209.341 414.81 209.757Z" fill="#3B7077"/>
<path d="M408.857 206.69C408.446 206.805 407.885 206.667 407.186 206.259C407.601 206.139 408.154 206.287 408.857 206.69Z" fill="#3B7077"/>
<path d="M234.753 65.1611C234.612 65.4662 234.204 65.7541 233.539 66.074C233.683 65.7853 234.085 65.4646 234.753 65.1611Z" fill="#F97832"/>
<path d="M474.834 356.71C474.377 356.778 474 356.638 473.624 356.499C473.856 356.366 474.089 356.234 474.541 356.093C474.761 356.085 474.914 356.502 474.834 356.71Z" fill="#111F33"/>
<path d="M85.715 142.063C85.5637 142.397 85.1253 142.72 84.4014 143.05C84.5531 142.722 84.9905 142.388 85.715 142.063Z" fill="#F89552"/>
<path d="M96.7806 136.231C96.6359 136.535 96.2245 136.811 95.5588 137.112C95.7077 136.826 96.1108 136.515 96.7806 136.231Z" fill="#F89552"/>
<path d="M89.699 140.019C89.539 140.351 89.0873 140.684 88.3391 141.01C88.4975 140.676 88.9524 140.348 89.699 140.019Z" fill="#F89552"/>
<path d="M238.72 63.0779C238.564 63.3909 238.126 63.7026 237.406 64.0285C237.563 63.7207 238 63.3986 238.72 63.0779Z" fill="#F97832"/>
<path d="M92.7386 138.244C92.6268 138.542 92.2698 138.817 91.6816 139.123C91.7981 138.843 92.1457 138.532 92.7386 138.244Z" fill="#F89552"/>
<path d="M86.7746 141.447C86.8732 141.707 86.7019 141.873 86.2794 141.995C86.1322 141.725 86.291 141.525 86.7746 141.447Z" fill="#F89552"/>
<path d="M475.024 244.754C474.763 244.833 474.582 244.676 474.452 244.485C474.42 244.438 474.555 244.278 474.779 244.085C475.004 244.169 475.063 244.337 475.024 244.754Z" fill="#1A4869"/>
<path d="M470.788 239.845C470.572 240.021 470.294 239.873 470.053 239.321C470.252 239.242 470.464 239.442 470.788 239.845Z" fill="#1A4869"/>
<path d="M469.991 238.704C469.653 238.944 469.397 238.802 469.113 238.343C469.352 238.237 469.682 238.335 469.991 238.704Z" fill="#1A4869"/>
<path d="M446.966 226.689C446.734 226.977 446.451 226.894 446.101 226.46C446.328 226.144 446.622 226.214 446.966 226.689Z" fill="#1A4869"/>
<path d="M201.239 614.011C201.216 613.729 201.495 613.453 202.078 613.193C202.101 613.478 201.822 613.748 201.239 614.011Z" fill="#317391"/>
<path d="M199.304 615.03C199.283 614.754 199.559 614.483 200.134 614.234C200.156 614.516 199.878 614.776 199.304 615.03Z" fill="#317391"/>
<path d="M193.32 618.079C193.315 617.802 193.603 617.542 194.187 617.329C194.193 617.616 193.903 617.856 193.32 618.079Z" fill="#317391"/>
<path d="M35.3987 286.277C35.7706 286.234 35.8439 286.473 35.5934 286.86C35.4804 286.947 35.3113 286.5 35.3987 286.277Z" fill="#F97832"/>
<path d="M100.768 134.334C100.87 134.628 100.657 134.822 100.134 134.936C100.016 134.637 100.225 134.43 100.768 134.334Z" fill="#F89552"/>
<path d="M97.7402 135.811C97.8318 135.909 97.5542 136.081 97.4737 136.098C97.3371 135.89 97.4223 135.757 97.7402 135.811Z" fill="#F89552"/>
<path d="M94.8087 137.262C94.9058 137.569 94.6692 137.777 94.1036 137.902C93.9941 137.591 94.2275 137.372 94.8087 137.262Z" fill="#F89552"/>
<path d="M283.35 143.428C291.401 147.332 299.502 151.035 307.359 155.199C322.595 163.274 337.641 171.707 352.864 179.806C366.036 186.812 379.344 193.561 392.801 200.703C389.836 200.317 386.55 199.977 383.51 198.926C375.943 196.31 368.487 193.371 360.987 190.562C360.616 191.137 360.246 191.713 359.875 192.288C362.418 194.603 364.716 197.291 367.558 199.148C372.243 202.21 377.047 204.644 380.025 210.032C381.599 212.878 385.533 214.816 388.804 216.238C394.845 218.866 401.299 220.539 407.359 223.129C412.027 225.123 416.649 227.499 420.775 230.432C430.22 237.149 439.377 244.12 450.738 247.645C453.627 248.542 457.003 251.63 457.907 254.435C460.269 261.767 462.209 269.438 462.78 277.089C463.411 285.554 462.385 294.15 461.953 302.682C461.872 304.287 461.438 305.982 460.74 307.429C457.46 314.228 454.187 321.042 450.537 327.644C449.689 329.178 447.374 330.858 445.74 330.852C426.829 330.787 409.957 325.026 395.181 312.885C389.967 308.6 383.722 305.566 377.939 301.976C370.705 297.486 362.119 296.738 354.491 293.648C344.59 289.638 335.513 283.61 326.008 278.589C324.113 277.588 321.902 276.712 319.811 276.651C315.026 276.511 304.21 269.836 302.53 264.752C300.587 258.87 298.648 252.782 298.154 246.667C296.982 232.128 295.878 217.499 296.285 202.949C296.542 193.727 299.175 184.484 301.495 175.443C302.788 170.401 308.082 168.654 312.833 170.986C317.218 173.138 321.388 175.729 325.674 178.088C326.534 178.562 327.479 179.151 328.402 179.183C330.182 179.244 331.975 178.945 333.762 178.796C332.849 177.403 332.258 175.447 330.969 174.711C324.242 170.869 317.257 167.48 310.528 163.641C306.811 161.52 303.428 158.814 299.88 156.395C297.962 155.087 296.093 153.676 294.06 152.573C288.941 149.794 287.405 150.742 286.983 156.674C286.914 157.643 286.626 158.596 285.862 159.508C284.597 154.151 283.908 148.844 283.219 143.537C283.219 143.537 283.288 143.435 283.35 143.428Z" fill="#033B54"/>
<path d="M354.922 309.964C355.108 309.514 355.295 309.064 355.529 308.37C356.783 308.423 357.991 308.718 359.574 309.074C376.01 317.405 392.136 325.553 408.114 333.98C427.813 344.37 447.385 354.997 467.021 365.505C468.462 366.276 469.976 366.91 471.774 367.781C472.096 368.769 472.101 369.585 471.976 370.799C471.847 371.197 471.655 371.313 471.283 371.373C470.627 371.628 470.342 371.823 470.056 372.017C468.58 373.016 467.103 374.015 465.338 374.716C466.659 371.243 466.116 368.429 463.011 366.719C457.641 363.761 452.093 361.127 446.625 358.347C433.174 351.507 419.705 344.701 406.284 337.803C396.158 332.597 386.094 327.269 375.803 321.72C368.71 317.618 361.816 313.791 354.922 309.964Z" fill="#0CA4CB"/>
<path d="M282.985 143.635C283.908 148.844 284.597 154.151 285.543 159.751C285.851 163.391 285.901 166.738 285.952 171.011C285.933 194.29 285.913 216.644 285.893 238.998C285.967 248.686 286.042 258.373 286.112 268.811C286.052 269.751 285.996 269.941 285.94 270.131C284.971 264.999 283.292 259.887 283.157 254.734C282.613 233.931 282.575 213.116 282.29 192.306C282.116 179.654 281.878 167.003 281.559 154.354C281.501 152.049 280.913 149.757 280.488 146.984C280.669 146.029 280.932 145.55 281.195 145.07C281.714 144.625 282.232 144.179 282.985 143.635Z" fill="#3B7077"/>
<path d="M286.289 238.925C285.913 216.644 285.933 194.29 285.976 171.468C286.999 172.833 288.849 174.658 288.867 176.5C289.043 194.196 289.013 211.897 288.769 229.592C288.726 232.688 287.413 235.765 286.289 238.925Z" fill="#033B54"/>
<path d="M286.126 270.415C285.996 269.941 286.052 269.752 286.181 269.274C293.787 271.633 301.46 273.956 308.754 277.143C310.674 277.982 311.423 281.496 312.539 284.166C303.684 279.933 294.998 275.317 286.126 270.415Z" fill="#033B54"/>
<path d="M395.017 201.456C395.865 201.555 396.787 201.986 397.85 202.703C397.025 202.589 396.058 202.188 395.017 201.456Z" fill="#1A4869"/>
<path d="M313.769 285.062C313.551 285.228 313.225 285.106 312.723 284.792C312.919 284.658 313.29 284.717 313.769 285.062Z" fill="#033B54"/>
<path d="M68.9496 158.341C69.9723 157.214 70.9462 156.425 71.9617 155.315C88.3485 146.111 104.692 137.226 121.039 128.346C132.505 122.117 143.967 115.882 155.444 109.673C167.403 103.203 179.318 96.6498 191.364 90.3472C199.563 86.0576 207.954 82.1362 216.582 78.347C212.942 82.8985 208.896 86.7507 202.866 88.3287C198.935 89.3575 195.372 91.8727 191.714 93.8509C182.408 98.8831 173.133 103.971 163.862 109.068C154.041 114.468 143.412 118.841 134.682 125.647C127.198 131.481 118.636 134.723 110.824 139.564C108.291 141.134 105.557 142.376 102.976 143.874C98.191 146.651 93.5106 149.613 88.6767 152.3C83.3976 155.234 81.0693 161.156 75.1511 163.925C68.0603 167.244 66.6788 172.066 68.7774 176.494C72.793 184.966 83.1439 188.584 91.5327 184.122C94.6322 182.473 97.0697 179.582 100.166 177.925C105.939 174.836 112.455 172.933 117.776 169.254C124.438 164.648 132.079 164.97 139.245 162.987C142.458 162.098 145.651 161.124 148.818 160.084C151.741 159.125 154.55 157.726 157.53 157.063C161.395 156.202 165.384 155.909 169.311 155.313C174.423 154.536 178.72 148.787 184.665 152.811C185.016 153.048 185.894 152.369 186.539 152.329C196.056 151.736 204.088 147.157 212.267 142.904C214.575 141.704 217.073 140.704 219.602 140.124C227.462 138.32 235.327 136.395 243.296 135.274C246.893 134.768 248.164 133.534 247.612 130.31C248.357 130.164 248.816 129.929 248.984 130.062C253.143 133.347 256.725 131.46 261.49 130.556C275.251 127.945 285.319 118.925 297.163 113.133C298.574 112.443 299.018 109.873 300.039 108.257C300.759 107.119 301.479 105.647 302.576 105.139C307.382 102.914 307.825 101.569 304.513 97.7359C302.363 95.2471 302.312 92.9064 304.519 90.2823C306.214 88.2669 308.445 85.9867 308.719 83.6253C309.575 76.2299 310.464 68.6474 309.662 61.3213C309.164 56.7752 310.382 51.6563 306.192 47.2854C301.76 42.6608 296.327 42.3794 290.989 40.9943C294.424 39.0322 297.859 37.0701 301.877 35.3237C307.64 38.693 312.82 41.8466 318 45.0001C318 64.3699 318 83.7397 317.999 103.555C315.945 106.547 314.057 109.251 311.803 111.606C306.917 116.711 302.346 122.332 296.687 126.411C292.279 129.589 286.371 130.64 281.225 132.859C277.426 134.496 273.917 136.874 270.038 138.238C264.614 140.144 258.828 141.04 253.444 143.036C243.377 146.767 233.455 150.899 223.54 155.024C219.411 156.742 215.444 158.851 211.418 160.812C207.018 162.955 202.517 164.471 199.177 168.83C196.99 171.684 192.388 172.675 188.889 174.541C185.107 176.558 181.483 178.937 177.549 180.581C173.015 182.476 168.207 183.711 163.54 185.295C162.139 185.771 160.384 186.093 159.516 187.106C152.134 195.722 140.087 196.734 131.937 204.18C130.057 205.898 126.58 205.742 124.042 206.896C119.613 208.91 115.324 211.238 111.009 213.497C106.502 215.856 102.085 218.392 97.5363 220.665C90.3465 224.259 82.4894 226.869 76.0337 231.467C70.9422 235.093 65.9736 235.348 60.6451 234.854C57.1276 234.528 52.8779 234.055 53.7561 228.19C53.9995 226.565 51.3168 224.663 51.151 222.784C50.7586 218.339 51.0866 213.832 51.0926 209.35C51.0959 206.931 51.0006 204.512 51.0107 202.093C51.048 193.099 50.7161 184.075 51.4107 175.13C51.6118 172.541 54.4288 169.776 56.6744 167.807C60.4873 164.465 64.7988 161.692 68.9496 158.341Z" fill="#EE6B17"/>
<path d="M61.9993 258.022C79.4731 248.352 96.7894 238.383 114.456 229.078C145.252 212.858 176.274 197.066 207.181 181.056C222.221 173.266 237.186 165.334 252.255 157.602C255.096 156.144 258.265 155.328 261.913 154.435C265.945 155.428 266.6 157.25 264.918 160.278C264.08 161.787 263.681 163.539 263.074 165.373C263.066 165.566 263.017 165.948 262.674 166.012C260.573 169.1 258.815 172.124 257.058 175.353C257.059 175.558 257.009 175.965 256.666 176.023C255.571 177.44 254.819 178.798 254.067 180.359C254.069 180.563 254.027 180.969 253.703 181.016C252.254 182.043 251.129 183.024 250.002 184.002C249.999 184 249.992 183.998 249.995 183.623C249.998 182.499 249.999 181.75 250.276 180.799C253.021 176.085 255.576 171.616 257.886 167.023C258.364 166.073 258.38 164.313 257.795 163.557C257.131 162.698 255.495 162.074 254.384 162.207C253 162.373 251.694 163.367 250.402 164.089C238.138 170.946 225.962 177.968 213.601 184.645C204.461 189.582 195.053 194.02 185.817 198.784C172.817 205.489 160.154 212.942 146.799 218.834C136.717 223.282 127.871 229.801 117.171 233.457C104.778 237.692 93.5903 245.431 81.8299 251.555C78.6464 253.213 75.2846 254.528 71.6289 256.005C68.1685 256.68 65.0839 257.351 61.9993 258.022Z" fill="#1193BD"/>
<path d="M61.6671 258.058C65.0837 257.351 68.1683 256.68 71.5857 256.366C70.3947 257.808 68.9499 259.032 67.3301 259.947C64.3708 261.618 60.8413 262.77 61.0582 267.103C61.295 271.834 67.023 277.963 72.1616 279.311C72.9987 280.072 73.63 280.612 74.3544 280.956C84.7729 285.903 96.0206 289.072 105.303 296.458C110.179 300.338 115.736 303.412 121.179 306.51C124.609 308.462 128.333 309.956 132.038 311.355C138.819 313.917 145.595 316.578 152.565 318.504C154.846 319.135 158.76 318.506 160.133 316.91C164.428 311.917 167.725 306.083 171.673 300.77C176.646 294.077 181.878 287.576 187.157 281.247C187.651 281.708 187.987 281.913 188.324 282.119C182.389 290.569 176.392 298.975 170.54 307.481C165.755 314.438 161.142 321.514 155.854 328.604C152.161 327.277 148.98 326.042 145.983 324.46C130.68 316.38 115.374 308.302 100.165 300.046C84.1531 291.354 68.2435 282.474 52.3054 273.648C49.1372 271.893 49.1197 269.976 51.7752 267.446C53.4648 265.836 54.5316 263.572 55.8776 261.601C57.6968 260.432 59.516 259.263 61.6671 258.058Z" fill="#0392BE"/>
<path d="M55.5255 261.718C54.5317 263.572 53.4649 265.835 51.7753 267.445C49.1198 269.976 49.1373 271.893 52.3055 273.647C68.2436 282.474 84.1532 291.354 100.165 300.046C115.374 308.302 130.68 316.38 145.983 324.46C148.98 326.042 152.161 327.276 155.598 328.819C155.487 329.652 155.036 330.339 154.213 331.232C144.205 326.614 134.485 321.947 124.948 316.933C97.6234 302.566 70.367 288.07 43.1134 273.569C41.925 272.937 41.0294 271.754 40.0178 270.464C45.0833 267.345 50.1283 264.591 55.5255 261.718Z" fill="#0F97C9"/>
<path d="M280.794 145.013C280.932 145.55 280.669 146.029 280.318 146.587C278.919 147.451 277.607 148.235 275.618 149.335C273.344 150.196 271.746 150.741 269.975 151.292C269.802 151.297 269.682 151.623 269.529 151.433C269.376 151.243 269.02 150.908 269.02 150.908C271.24 144.441 273.936 143.03 280.794 145.013Z" fill="#F8731E"/>
<path d="M269.682 151.623C269.682 151.623 269.802 151.297 269.948 151.736C269.14 157.255 267.499 161.966 263.083 165.181C263.681 163.539 264.08 161.786 264.918 160.278C266.6 157.249 265.945 155.427 262.302 154.416C262.836 153.835 263.611 153.49 264.962 153.03C265.712 152.615 265.885 152.314 266.059 152.014C266.45 151.958 266.84 151.902 268.001 151.867C269.074 151.8 269.378 151.711 269.682 151.623Z" fill="#0CA4CB"/>
<path d="M269.529 151.433C269.378 151.711 269.074 151.8 268.295 151.897C268.09 151.689 268.359 151.473 268.824 151.082C269.02 150.908 269.376 151.243 269.529 151.433Z" fill="#4FB8DF"/>
<path d="M265.837 152.098C265.885 152.314 265.712 152.615 265.269 152.902C265.128 152.586 265.333 152.351 265.837 152.098Z" fill="#F8731E"/>
<path d="M131.002 442.999C130.507 442.737 130.013 442.475 129.223 441.754C127.672 440.059 126.614 438.458 125.127 437.648C117.557 433.527 109.919 429.526 102.212 425.667C99.2676 424.193 96.0774 423.209 92.9993 422.002C92.2497 422.001 91.5001 422 90.3258 421.658C89.0836 420.531 88.3562 419.614 87.4337 418.981C82.3875 415.52 76.8337 412.635 72.3573 408.56C68.5938 405.133 65.0193 402.166 60.003 400.774C55.386 399.494 54.4103 395.654 58.1457 392.616C62.851 388.789 63.0182 383.894 63.1367 378.708C63.2198 375.072 67.6834 371.071 70.3793 372.347C74.2724 374.19 78.0486 376.282 81.8596 378.297C88.6443 381.882 95.1329 386.272 102.274 388.872C109.724 391.585 117.803 392.565 125.593 394.359C126.318 394.525 127.437 394.988 127.546 395.493C128.385 399.349 131.709 399.126 134.444 400.091C143.689 403.356 154.373 402.366 162.337 409.496C162.795 409.906 163.914 409.497 164.69 409.647C166.63 410.023 168.595 410.364 170.469 410.97C174.094 412.142 177.336 415.527 182.205 412.821C180.622 411.673 179.51 410.866 178.367 410.036C179.641 408.999 180.808 408.049 182.593 406.596C180.717 405.728 179.417 405.403 178.476 404.638C175.605 402.306 170.942 400.123 170.475 397.303C169.408 390.853 164.662 389.48 160.386 386.924C158.626 385.872 157.1 384.407 155.542 383.045C153.577 381.327 151.54 379.651 149.829 377.698C149.028 376.783 149.029 375.21 148.465 374.03C147.861 372.767 147.211 371.426 146.243 370.455C144.35 368.556 140.755 367.114 140.448 365.09C139.15 356.556 133.331 351.549 127.327 346.763C123.598 343.79 119.999 341.4 122.999 336C125.735 336.529 128.468 337.075 131.208 337.584C139.177 339.064 147.15 340.529 155.893 342.145C161.376 344.273 166.199 346.031 170.778 348.282C183.241 354.409 195.601 360.745 208.367 366.998C209.822 367.333 210.911 367.667 212.037 368.354C212.605 369.532 213.179 370.332 213.661 371.185C216.114 375.522 219.893 379.643 220.683 384.27C222.08 392.453 221.963 400.949 221.92 409.312C221.85 422.929 221.297 436.543 221.017 450.159C220.911 455.321 221.453 460.544 220.822 465.63C220.462 468.534 218.332 471.217 216.567 474C209.757 473.333 203.378 472.667 196.603 471.999C189.011 469.451 181.817 466.898 174.619 464.356C171.416 463.225 168.206 462.116 164.999 460.998C164.197 460.747 163.394 460.496 162.25 459.789C160.272 458.555 158.636 457.777 156.999 456.999C156.093 456.526 155.188 456.053 154.091 454.95C147.571 447.911 139.308 445.411 131.002 442.999Z" fill="#E86B19"/>
<path d="M122.749 336C119.999 341.4 123.597 343.79 127.326 346.762C133.331 351.549 139.15 356.556 140.447 365.09C140.755 367.114 144.35 368.556 146.243 370.455C147.211 371.426 147.861 372.766 148.465 374.03C149.029 375.209 149.028 376.783 149.829 377.698C151.54 379.651 153.577 381.327 155.542 383.045C157.1 384.407 158.626 385.872 160.386 386.924C164.662 389.48 169.408 390.853 170.475 397.303C170.941 400.123 175.604 402.306 178.475 404.638C179.417 405.403 180.716 405.728 182.593 406.596C180.808 408.049 179.641 408.999 178.367 410.036C179.51 410.866 180.622 411.673 182.204 412.821C177.336 415.527 174.093 412.142 170.469 410.97C168.595 410.364 166.63 410.023 164.69 409.647C163.913 409.497 162.795 409.906 162.337 409.496C154.373 402.366 143.689 403.356 134.443 400.091C131.709 399.126 128.385 399.349 127.546 395.493C127.436 394.988 126.317 394.525 125.593 394.358C117.802 392.565 109.724 391.585 102.274 388.872C95.1327 386.272 88.6441 381.882 81.8594 378.296C78.0484 376.282 74.2722 374.19 70.3791 372.347C67.6832 371.071 63.2196 375.072 63.1365 378.708C63.018 383.894 62.8508 388.789 58.1455 392.616C54.4102 395.654 55.3859 399.494 60.0028 400.774C65.0192 402.166 68.5936 405.133 72.3571 408.559C76.8335 412.635 82.3873 415.52 87.4335 418.981C88.356 419.614 89.0834 420.531 89.9508 421.656C79.5705 416.719 68.9795 411.733 58.7629 406.071C51.1651 401.861 44.0525 396.775 36.3825 392.047C36.0437 367.991 36.0461 343.968 36.0743 319.477C38.8142 319.146 39.9859 317.884 40.05 315.142C40.0957 313.186 40.3268 311.114 41.0559 309.331C41.7108 307.729 43.158 305.279 44.2549 305.279C46.4221 305.28 49.7554 306.128 50.5335 307.671C52.7382 312.043 56.5094 312.957 60.5027 314.024C62.0728 314.444 63.5563 315.177 65.1028 315.698C68.4453 316.822 71.8031 317.902 75.6114 319.346C79.3134 324.785 82.9428 328.65 90.0176 327.135C94.2313 326.233 98.6173 326.647 101.161 331.441C101.72 332.494 103.6 333.167 104.979 333.409C110.63 334.4 116.322 335.157 122 336C122 336 122.5 336 122.749 336Z" fill="#EB6A15"/>
<path d="M121.962 335.648C116.323 335.157 110.63 334.4 104.979 333.409C103.601 333.167 101.72 332.494 101.161 331.441C98.6175 326.648 94.2314 326.233 90.0177 327.136C82.943 328.651 79.3136 324.785 76.0339 319.346C82.9198 318.015 89.2901 318.471 95.7122 322.34C98.6531 324.111 102.838 324.014 105.198 327.42C105.479 327.825 106.445 328.012 107.028 327.913C113.801 326.77 117.388 331.981 121.962 335.648Z" fill="#E86B19"/>
<path d="M208.001 366.997C195.601 360.745 183.241 354.409 170.778 348.282C166.199 346.031 161.376 344.273 156.332 342.145C156 340.935 156 339.871 155.999 338.407C156.442 338.008 156.885 338.007 157.715 338.352C161.464 340.67 164.755 342.78 168.204 344.589C178.449 349.964 188.817 355.106 199.003 360.589C202.22 362.321 205.014 364.839 208.001 366.997Z" fill="#EE6B17"/>
<path d="M376.003 321.996C386.094 327.269 396.158 332.597 406.284 337.803C419.705 344.701 433.174 351.507 446.625 358.347C452.093 361.127 457.641 363.761 463.011 366.719C466.116 368.429 466.659 371.243 465.01 374.813C444.749 386.343 424.529 397.479 404.306 408.611C403.289 409.171 402.25 409.694 400.625 410.531C399.065 411.07 398.02 411.148 397.152 411.58C384.183 418.025 371.222 424.486 358.317 431.057C357.312 431.568 356.735 432.922 355.96 433.884C355.96 433.884 355.939 433.918 355.698 433.848C355.457 433.779 354.987 433.804 354.594 433.806C352.623 434.292 350.926 434.545 349.488 435.294C328.696 446.13 307.922 456.998 287.215 467.995C285.822 468.735 285.007 470.565 283.922 471.888C283.922 471.888 283.935 471.92 283.664 471.967C283.145 472.262 282.896 472.511 282.647 472.76C282.647 472.76 282.332 472.727 281.802 472.732C280.522 472.787 279.772 472.838 278.716 472.919C277.922 473.275 277.434 473.602 276.975 473.962C277.004 473.995 276.953 473.921 276.648 473.944C275.869 474.306 275.393 474.646 274.699 475.193C273.634 476.219 272.789 477.038 271.944 477.857C271.944 477.857 271.924 477.901 271.509 477.834C268.405 478.552 265.716 479.336 262.708 480.128C261.823 480.712 261.257 481.288 260.345 481.919C258.011 482.697 256.024 483.42 253.692 484.144C252.135 485.053 250.923 485.96 249.343 486.886C247.996 486.985 247.018 487.066 246.056 486.785C248.855 483.653 251.339 480.463 254.499 478.227C257.758 475.921 261.539 474.149 265.332 472.843C272.949 470.221 276.6 463.533 281.385 458C281.877 457.431 281.481 456.132 281.587 455.182C281.721 453.978 281.837 452.748 282.212 451.612C282.302 451.34 283.39 451.399 284.018 451.306C284.156 452.654 284.28 454.004 284.44 455.35C284.494 455.799 284.642 456.238 284.832 457.042C288.158 456.736 291.549 457.09 290.261 451.871C290.076 451.12 291.244 450.014 291.828 449.099C292.86 447.482 294.05 445.953 294.95 444.267C297.112 440.216 299.395 436.149 297.202 431.298C297.067 430.999 297.421 430.18 297.754 430.011C302.264 427.727 304.368 420.408 310.232 423.359C312.302 419.955 313.846 416.895 315.869 414.193C320.441 408.083 325.049 401.976 330.042 396.215C332.785 393.05 336.358 390.61 339.524 387.806C346.593 381.547 350.212 373.023 354.577 364.969C355.982 362.376 358.422 360.281 359.524 357.602C361.168 353.607 364.033 351.986 367.699 350.031C370.651 348.455 371.951 343.792 374.016 340.52C374.17 340.276 374.581 340.186 374.881 340.044C378.416 338.374 381.953 336.708 385.868 334.862C385.01 333.226 384.346 331.302 383.144 329.813C380.931 327.073 378.401 324.587 376.003 321.996Z" fill="#0B90BA"/>
<path d="M284.288 471.878C285.007 470.565 285.822 468.735 287.215 467.995C307.922 456.998 328.696 446.13 349.487 435.294C350.926 434.545 352.623 434.292 354.595 434.079C354.99 434.532 354.99 434.713 354.989 434.894C350.63 437.248 346.288 439.633 341.91 441.951C323.751 451.567 305.583 461.166 287.41 470.752C286.537 471.213 285.574 471.501 284.288 471.878Z" fill="#3B7077"/>
<path d="M356.338 433.923C356.735 432.922 357.312 431.569 358.317 431.057C371.222 424.486 384.183 418.025 397.151 411.58C398.02 411.148 399.065 411.07 400.402 410.79C400.797 410.957 400.818 411.162 400.811 411.673C387.942 418.607 375.111 425.257 362.244 431.835C360.496 432.729 358.564 433.262 356.338 433.923Z" fill="#1A4869"/>
<path d="M246.039 487.147C247.018 487.066 247.996 486.985 249.715 486.906C251.648 485.986 252.842 485.064 254.036 484.142C256.024 483.42 258.011 482.697 260.693 481.936C261.934 481.305 262.481 480.713 263.028 480.121C265.716 479.336 268.405 478.552 271.485 477.83C266.186 481.093 260.597 484.501 254.767 487.428C250.5 489.57 245.916 491.079 240.733 492.841C239.76 492.747 239.527 492.682 239.433 492.363C239.675 491.735 239.78 491.363 240.245 490.99C241.405 490.363 242.205 489.736 243.218 488.981C243.709 488.658 243.917 488.404 244.342 488.068C245.1 487.745 245.57 487.446 246.039 487.147Z" fill="#3B7077"/>
<path d="M279.022 472.889C279.772 472.838 280.522 472.787 281.649 472.773C278.908 474.497 275.789 476.184 272.307 477.864C272.789 477.038 273.634 476.219 275.009 475.174C276.01 474.606 276.481 474.264 276.952 473.922C276.952 473.922 277.004 473.995 277.289 473.96C278.056 473.579 278.539 473.234 279.022 472.889Z" fill="#3B7077"/>
<path d="M236.498 494.159C236.076 493.978 236.03 493.758 235.952 493.216C235.92 492.893 235.983 492.922 236.382 492.937C237.312 492.891 237.842 492.829 238.557 492.714C238.741 492.66 239.124 492.667 239.112 492.901C239.099 493.135 239.083 493.603 239.083 493.603C238.347 493.776 237.61 493.949 236.498 494.159Z" fill="#3B7077"/>
<path d="M239.333 493.672C239.083 493.603 239.099 493.135 239.159 492.908C239.219 492.682 239.295 492.617 239.295 492.617C239.527 492.682 239.76 492.747 240.346 492.876C240.328 493.206 239.956 493.473 239.333 493.672Z" fill="#457983"/>
<path d="M282.933 472.769C282.896 472.511 283.144 472.262 283.658 471.983C283.688 472.228 283.454 472.502 282.933 472.769Z" fill="#3B7077"/>
<path d="M355.219 434.822C354.99 434.713 354.99 434.532 354.989 434.078C354.987 433.805 355.457 433.779 355.679 433.854C355.886 434.279 355.735 434.552 355.219 434.822Z" fill="#1A4869"/>
<path d="M216.999 474C218.332 471.217 220.462 468.534 220.822 465.63C221.453 460.544 220.911 455.322 221.017 450.159C221.297 436.543 221.85 422.929 221.92 409.312C221.963 400.949 222.08 392.453 220.683 384.27C219.893 379.643 216.114 375.522 213.661 371.185C213.179 370.332 212.605 369.532 212.391 368.389C215.656 370.115 218.555 372.234 221.572 374.168C222.838 374.979 224.356 375.398 225.759 375.995C225.865 404.024 225.97 432.054 225.972 460.543C224.917 461.832 223.318 462.539 223.134 463.514C222.494 466.895 222.063 470.37 222.063 473.809C222.065 483.626 218.846 485.763 208.08 483.249C202.315 481.903 197.105 478.104 191.698 475.31C182.909 470.768 174.163 466.141 165.199 461.274C168.206 462.116 171.416 463.225 174.619 464.356C181.817 466.898 189.011 469.451 196.641 472.355C199.784 478.264 205.576 478.429 210.37 479.393C212.795 479.881 217.241 478.802 216.999 474Z" fill="#EE6B17"/>
<path d="M93.0527 422.35C96.0774 423.209 99.2675 424.192 102.212 425.667C109.919 429.526 117.557 433.527 125.126 437.648C126.614 438.458 127.672 440.059 128.965 441.646C119.675 437.137 110.329 432.311 101.031 427.395C98.3197 425.962 95.7441 424.271 93.0527 422.35Z" fill="#EB6A15"/>
<path d="M131.161 443.311C139.308 445.411 147.571 447.911 153.95 454.661C146.44 451.209 138.88 447.416 131.161 443.311Z" fill="#EB6A15"/>
<path d="M225.533 477.215C225.93 480.379 226.004 483.747 225.967 487.562C222.562 484.668 223.78 481.05 225.533 477.215Z" fill="#F97832"/>
<path d="M157.15 457.299C158.636 457.777 160.272 458.555 161.956 459.662C160.436 459.194 158.868 458.397 157.15 457.299Z" fill="#EE6B17"/>
<path d="M290.658 41.1406C296.327 42.3793 301.76 42.6607 306.192 47.2853C310.382 51.6562 309.164 56.7751 309.662 61.3212C310.464 68.6473 309.575 76.2298 308.719 83.6252C308.446 85.9866 306.214 88.2668 304.519 90.2822C302.312 92.9063 302.363 95.247 304.513 97.7358C307.825 101.568 307.382 102.914 302.577 105.139C301.479 105.647 300.759 107.119 300.04 108.257C299.018 109.873 298.574 112.442 297.163 113.132C285.319 118.925 275.251 127.945 261.49 130.556C256.725 131.46 253.143 133.347 248.984 130.062C248.816 129.929 248.357 130.164 247.612 130.31C248.164 133.534 246.893 134.767 243.296 135.274C235.327 136.395 227.462 138.32 219.602 140.124C217.073 140.704 214.575 141.703 212.267 142.904C204.088 147.157 196.056 151.736 186.539 152.329C185.894 152.369 185.016 153.048 184.666 152.81C178.72 148.787 174.423 154.536 169.311 155.312C165.384 155.909 161.395 156.201 157.53 157.062C154.55 157.726 151.741 159.125 148.819 160.084C145.651 161.124 142.458 162.098 139.245 162.987C132.079 164.97 124.438 164.648 117.776 169.254C112.456 172.933 105.939 174.835 100.166 177.925C97.0698 179.582 94.6324 182.473 91.5329 184.121C83.1441 188.584 72.7932 184.966 68.7775 176.493C66.679 172.066 68.0604 167.244 75.1512 163.925C81.0695 161.156 83.3978 155.234 88.6768 152.3C93.5108 149.613 98.1912 146.651 102.976 143.874C105.557 142.376 108.291 141.134 110.824 139.564C118.636 134.723 127.198 131.481 134.682 125.647C143.412 118.841 154.041 114.467 163.862 109.068C173.133 103.971 182.409 98.883 191.714 93.8508C195.373 91.8726 198.935 89.3574 202.866 88.3286C208.896 86.7506 212.942 82.8984 216.948 78.3026C218.022 76.6124 219.054 75.2631 220.172 73.5924C221.638 73.2587 223.017 73.2464 225.031 73.0844C227.112 71.9556 228.559 70.9765 230.006 69.9974C230.558 69.8285 231.109 69.6597 231.825 69.2475C244.191 63.2226 256.394 57.4481 268.589 51.6572C275.841 48.2137 283.081 44.7446 290.658 41.1406Z" fill="#EA6A19"/>
<path d="M318.25 44.7979C312.82 41.8465 307.64 38.6929 302.227 35.2664C302.792 34.4261 303.539 33.7604 304.398 33.3065C315.849 27.254 318.484 28.8639 318.298 41.7415C318.285 42.6918 318.428 43.6443 318.25 44.7979Z" fill="#F26C14"/>
<path d="M225.847 375.623C224.355 375.398 222.838 374.979 221.572 374.168C218.554 372.234 215.656 370.115 212.355 368.036C210.911 367.667 209.822 367.333 208.367 366.998C205.014 364.839 202.22 362.321 199.003 360.589C188.817 355.106 178.449 349.964 168.204 344.589C164.755 342.78 161.464 340.67 158.048 338.355C158.328 337.282 158.663 336.552 159 335.499C180.147 346.126 201.297 357.065 222.424 368.047C223.581 368.648 224.554 369.602 225.486 370.883C225.503 371.906 225.646 372.439 225.789 372.971C225.838 373.731 225.887 374.491 225.847 375.623Z" fill="#F26C14"/>
<path d="M239.433 492.363C239.295 492.617 239.219 492.682 239.172 492.675C239.124 492.667 238.741 492.659 238.341 492.491C237.288 492.522 236.636 492.722 235.983 492.922C235.983 492.922 235.92 492.893 235.885 492.886C235.262 492.863 234.673 492.847 233.795 492.815C234.959 489.767 236.414 486.736 238.128 483.327C238.387 482.95 238.778 482.919 239.058 483.081C239.566 483.832 239.794 484.421 240.015 485.386C240.392 486.863 240.774 487.963 240.998 489.306C240.522 490.03 240.203 490.51 239.885 490.991C239.78 491.363 239.675 491.736 239.433 492.363Z" fill="#0F97C9"/>
<path d="M226.934 493.416C228.188 493.045 229.451 493.076 231.188 493.185C230.202 494.187 228.742 495.11 226.885 496.055C226.64 495.324 226.792 494.571 226.934 493.416Z" fill="#F9F5F1"/>
<path d="M47.3486 164.961C48.421 163.979 49.8617 163.01 51.6421 162.017C50.5602 162.987 49.1386 163.981 47.3486 164.961Z" fill="#F97832"/>
<path d="M470.328 372.032C470.342 371.823 470.627 371.628 471.175 371.405C471.159 371.6 470.879 371.823 470.328 372.032Z" fill="#457983"/>
<path d="M229.639 70.0007C228.559 70.9766 227.112 71.9557 225.322 72.958C226.41 71.9888 227.841 70.9964 229.639 70.0007Z" fill="#F8731E"/>
<path d="M240.021 485.009C239.794 484.421 239.567 483.832 239.115 482.847C238.891 482.452 238.92 481.972 238.92 481.972C238.92 481.972 238.993 481.976 239.183 481.869C239.662 481.593 239.773 481.345 239.705 481.017C240.465 480.015 241.225 479.013 242.299 477.548C242.745 476.728 242.876 476.371 243.006 476.014C243.006 476.014 243.002 476.002 243.267 475.852C243.743 475.158 243.953 474.615 244.163 474.071C244.163 474.071 244.076 474.062 244.328 474.005C244.686 473.627 244.791 473.306 244.897 472.986C244.897 472.986 245.151 472.821 245.4 472.495C245.796 471.787 245.942 471.406 246.089 471.025C246.413 470.654 246.738 470.283 247.338 469.502C247.75 468.736 247.886 468.38 248.022 468.023C248.022 468.023 248.001 468.001 248.279 467.867C248.77 467.189 248.984 466.646 249.197 466.102C249.197 466.102 249.104 466.079 249.368 466.038C249.75 465.676 249.867 465.354 249.984 465.033C249.984 465.033 250.029 465.016 250.284 464.851C250.74 464.15 250.941 463.615 251.141 463.079C251.141 463.079 251.048 463.019 251.323 462.994C251.715 462.655 251.832 462.341 251.95 462.026C251.95 462.026 252.02 462.007 252.274 461.835C252.72 461.131 252.912 460.598 253.105 460.066C253.105 460.066 252.999 460.005 253.341 459.918C254.152 458.917 254.622 458.003 255.092 457.088C255.092 457.088 255.034 457.075 255.353 456.952C256.14 455.906 256.606 454.982 257.073 454.058C257.073 454.058 256.999 454.008 257.338 453.89C258.784 451.859 259.891 449.946 260.998 448.033C260.998 448.033 261.023 448.016 261.288 447.863C261.777 447.18 262.002 446.649 262.227 446.118C262.227 446.118 262.122 446.092 262.388 446.053C262.783 445.686 262.912 445.358 263.042 445.03C263.042 445.03 263 445.001 263.299 444.875C264.082 443.841 264.566 442.934 265.051 442.027C265.051 442.027 264.998 442.004 265.281 441.877C265.791 441.208 266.019 440.665 266.247 440.122C266.247 440.122 266.126 440.098 266.393 440.056C266.787 439.683 266.913 439.353 267.04 439.022C267.04 439.022 266.997 439.004 267.228 438.93C267.725 438.634 267.832 438.351 267.78 438.008C268.516 436.998 269.251 435.989 270.297 434.524C270.748 433.721 270.888 433.373 271.029 433.026C271.029 433.026 271 433 271.235 432.926C271.735 432.626 271.841 432.341 271.786 431.996C271.786 431.996 272.077 431.768 272.343 431.428C272.74 430.733 272.87 430.379 273.001 430.024C273.001 430.024 273.011 430.008 273.274 429.855C273.76 429.17 273.984 428.638 274.208 428.106C274.208 428.106 274.11 428.085 274.372 428.038C274.75 427.666 274.867 427.34 274.984 427.013C274.984 427.013 275.011 427.004 275.265 426.838C275.774 426.142 276.03 425.613 276.286 425.084C276.86 424.354 277.434 423.624 278.304 422.472C278.735 421.704 278.871 421.359 279.006 421.013C279.006 421.013 279.001 421.001 279.265 420.855C279.76 420.179 279.992 419.649 280.225 419.119C280.225 419.119 280.121 419.096 280.387 419.053C280.778 418.683 280.902 418.356 281.027 418.029C281.027 418.029 281.001 418.003 281.282 417.862C281.823 417.182 282.084 416.642 282.344 416.102C282.906 415.378 283.468 414.654 284.32 413.505C284.745 412.729 284.88 412.379 285.015 412.028C285.015 412.028 285.005 412.006 285.231 411.919C285.718 411.612 285.824 411.334 285.776 410.996C285.776 410.996 286.071 410.775 286.339 410.433C286.737 409.734 286.867 409.378 286.997 409.021C286.997 409.021 287.011 409.007 287.273 408.849C287.796 408.158 288.056 407.626 288.316 407.093C289.833 404.984 291.351 402.875 293.18 400.329C293.613 399.587 293.735 399.281 293.856 398.976C293.856 398.976 293.975 398.954 294.199 398.751C294.656 398.046 294.889 397.544 295.121 397.042C295.725 396.275 296.329 395.509 297.224 394.334C297.634 393.613 297.751 393.3 297.869 392.987C297.869 392.987 298.003 392.951 298.15 392.823C298.511 392.53 298.587 392.315 298.527 392.052C299.315 390.962 300.103 389.871 301.191 388.335C301.611 387.584 301.731 387.278 301.851 386.972C301.851 386.972 301.993 386.942 302.138 386.813C302.496 386.524 302.574 386.315 302.516 386.055C302.648 385.927 302.78 385.798 303.212 385.292C303.636 384.613 303.761 384.312 303.886 384.01C303.886 384.01 304.004 383.982 304.233 383.781C304.679 383.073 304.897 382.565 305.114 382.058C305.114 382.058 305.029 382.02 305.293 381.976C305.68 381.625 305.804 381.319 305.928 381.012C305.928 381.012 306.018 380.992 306.203 380.87C306.63 380.56 306.733 380.314 306.698 380.009C307.751 378.578 308.805 377.148 310.164 375.286C310.747 374.627 310.872 374.334 310.843 373.976C310.843 373.976 310.975 373.951 311.195 373.74C311.645 373.031 311.876 372.533 312.107 372.035C323.559 355.307 335.01 338.578 346.464 321.852C349.094 318.011 351.736 314.178 354.647 310.152C361.816 313.791 368.71 317.618 375.803 321.721C378.401 324.587 380.931 327.073 383.144 329.814C384.346 331.302 385.01 333.226 385.868 334.862C381.953 336.708 378.416 338.374 374.881 340.044C374.581 340.186 374.17 340.276 374.016 340.52C371.951 343.792 370.651 348.455 367.699 350.031C364.033 351.986 361.168 353.608 359.524 357.602C358.422 360.281 355.982 362.376 354.577 364.969C350.212 373.023 346.593 381.547 339.524 387.807C336.358 390.61 332.785 393.05 330.042 396.215C325.049 401.976 320.441 408.083 315.869 414.193C313.846 416.895 312.302 419.955 310.232 423.359C304.368 420.408 302.264 427.727 297.754 430.011C297.421 430.18 297.067 430.999 297.202 431.299C299.395 436.149 297.112 440.216 294.95 444.267C294.05 445.953 292.86 447.482 291.828 449.099C291.244 450.014 290.076 451.12 290.261 451.871C291.549 457.09 288.158 456.736 284.832 457.042C284.642 456.238 284.494 455.8 284.44 455.35C284.28 454.004 284.156 452.654 284.018 451.306C283.39 451.399 282.302 451.34 282.212 451.612C281.837 452.748 281.721 453.978 281.587 455.182C281.481 456.133 281.877 457.432 281.385 458C276.6 463.533 272.949 470.222 265.332 472.843C261.539 474.149 257.758 475.921 254.499 478.227C251.339 480.463 248.855 483.653 246.056 486.786C245.57 487.446 245.1 487.745 244.166 487.796C242.475 486.702 241.248 485.856 240.021 485.009Z" fill="#078EB9"/>
<path d="M250.005 184.004C251.129 183.023 252.254 182.043 253.668 181.381C253.261 183.722 252.564 185.743 251.868 187.765C251.868 187.765 251.889 187.884 251.619 188.02C251.09 188.398 250.985 188.693 251.033 189.043C250.973 189.205 250.913 189.367 250.523 189.812C249.989 190.273 249.891 190.497 249.899 190.767C249.899 190.767 249.914 190.888 249.636 191.018C249.092 191.387 248.982 191.685 249.028 192.041C248.968 192.202 248.909 192.363 248.521 192.827C247.991 193.33 247.903 193.574 247.932 193.858C247.932 193.858 247.96 193.935 247.586 193.99C246.79 195.001 246.368 195.956 245.945 196.911C245.872 197.101 245.8 197.29 245.404 197.793C244.929 198.262 244.86 198.448 244.873 198.665C244.873 198.665 244.854 198.829 244.579 198.971C244.055 199.331 243.943 199.604 243.967 199.933C243.897 200.116 243.828 200.3 243.43 200.793C242.937 201.266 242.859 201.465 242.868 201.697C242.868 201.697 242.873 201.841 242.604 201.989C242.088 202.371 241.977 202.657 242.001 202.996C234.639 213.921 227.277 224.847 219.362 235.841C218.535 235.605 218.26 235.299 218.025 234.64C220.242 230.822 222.4 227.346 224.602 223.897C231.393 213.26 238.2 202.632 245.29 191.86C246.052 190.812 246.524 189.905 247.266 188.81C248.358 187.082 249.181 185.543 250.005 184.004Z" fill="#0CA4CB"/>
<path d="M217.986 234.994C218.26 235.299 218.534 235.605 219.097 236.032C209.213 251.357 199.042 266.56 188.597 281.941C187.987 281.913 187.65 281.708 187.193 280.895C187.717 278.527 188.364 276.766 189.28 274.81C196.833 263.848 204.043 253.031 211.449 242.349C213.305 239.673 215.79 237.434 217.986 234.994Z" fill="#0F97C9"/>
<path d="M263.074 165.373C267.499 161.966 269.14 157.255 270.122 151.73C271.746 150.741 273.344 150.196 275.263 149.576C271.983 155.868 268.424 162.261 264.755 168.589C263.525 170.71 262.014 172.669 260.241 174.778C259.852 174.854 259.63 174.636 259.739 174.302C260.905 171.295 261.961 168.621 263.017 165.948C263.017 165.948 263.066 165.566 263.074 165.373Z" fill="#4FB8DF"/>
<path d="M252.163 187.622C252.564 185.743 253.261 183.722 253.992 181.335C254.027 180.969 254.069 180.563 254.397 180.268C255.486 178.637 256.247 177.301 257.008 175.964C257.008 175.964 257.059 175.558 257.386 175.313C258.352 174.924 258.991 174.78 259.63 174.635C259.63 174.635 259.852 174.854 259.963 174.964C257.535 179.209 254.996 183.345 252.163 187.622Z" fill="#4FB8DF"/>
<path d="M260.654 448.067C259.891 449.946 258.784 451.859 257.376 453.911C258.154 452.067 259.232 450.084 260.654 448.067Z" fill="#F9F5F1"/>
<path d="M246.237 196.792C246.368 195.956 246.79 195.001 247.546 193.993C247.429 194.85 246.979 195.761 246.237 196.792Z" fill="#4FB8DF"/>
<path d="M254.733 457.106C254.622 458.002 254.152 458.917 253.392 459.952C253.526 459.09 253.95 458.107 254.733 457.106Z" fill="#F9F5F1"/>
<path d="M264.748 442.15C264.566 442.934 264.081 443.841 263.318 444.891C263.507 444.114 263.976 443.194 264.748 442.15Z" fill="#F9F5F1"/>
<path d="M256.761 454.17C256.606 454.982 256.139 455.906 255.379 456.95C255.54 456.14 255.995 455.211 256.761 454.17Z" fill="#F9F5F1"/>
<path d="M279.931 419.223C279.992 419.649 279.76 420.179 279.271 420.856C279.222 420.443 279.43 419.885 279.931 419.223Z" fill="#F9F5F1"/>
<path d="M282.035 416.2C282.084 416.642 281.823 417.182 281.298 417.87C281.264 417.445 281.495 416.871 282.035 416.2Z" fill="#F9F5F1"/>
<path d="M275.987 425.188C276.03 425.613 275.774 426.142 275.262 426.824C275.233 426.414 275.461 425.853 275.987 425.188Z" fill="#F9F5F1"/>
<path d="M288.012 407.193C288.056 407.625 287.796 408.158 287.277 408.839C287.248 408.424 287.478 407.859 288.012 407.193Z" fill="#F9F5F1"/>
<path d="M273.918 428.213C273.984 428.638 273.76 429.17 273.278 429.847C273.223 429.435 273.425 428.878 273.918 428.213Z" fill="#F9F5F1"/>
<path d="M294.856 397.161C294.889 397.544 294.656 398.046 294.182 398.693C294.157 398.319 294.374 397.8 294.856 397.161Z" fill="#F9F5F1"/>
<path d="M265.947 440.226C266.019 440.665 265.791 441.208 265.301 441.898C265.242 441.473 265.444 440.902 265.947 440.226Z" fill="#F9F5F1"/>
<path d="M261.933 446.218C262.002 446.649 261.777 447.18 261.291 447.848C261.233 447.43 261.436 446.874 261.933 446.218Z" fill="#F9F5F1"/>
<path d="M252.834 460.189C252.912 460.598 252.72 461.131 252.267 461.799C252.193 461.394 252.378 460.853 252.834 460.189Z" fill="#F9F5F1"/>
<path d="M250.863 463.198C250.941 463.615 250.74 464.15 250.282 464.827C250.21 464.418 250.397 463.868 250.863 463.198Z" fill="#F9F5F1"/>
<path d="M248.907 466.214C248.984 466.645 248.77 467.189 248.293 467.874C248.224 467.452 248.42 466.889 248.907 466.214Z" fill="#F9F5F1"/>
<path d="M243.881 474.195C243.953 474.615 243.743 475.158 243.273 475.852C243.209 475.441 243.404 474.88 243.881 474.195Z" fill="#F9F5F1"/>
<path d="M304.849 382.178C304.897 382.565 304.679 383.073 304.217 383.722C304.177 383.342 304.381 382.82 304.849 382.178Z" fill="#F9F5F1"/>
<path d="M311.847 372.157C311.876 372.533 311.645 373.03 311.175 373.676C311.153 373.308 311.37 372.794 311.847 372.157Z" fill="#F9F5F1"/>
<path d="M225.879 372.652C225.646 372.439 225.503 371.906 225.535 371.213C225.796 371.48 225.883 371.906 225.879 372.652Z" fill="#EA6A19"/>
<path d="M242.757 476.167C242.875 476.371 242.745 476.728 242.364 477.24C242.246 477.036 242.377 476.678 242.757 476.167Z" fill="#F9F5F1"/>
<path d="M244.685 473.118C244.791 473.306 244.685 473.627 244.339 474.047C244.092 473.793 244.217 473.494 244.685 473.118Z" fill="#F9F5F1"/>
<path d="M249.754 465.144C249.867 465.354 249.75 465.676 249.381 466.084C249.26 465.866 249.392 465.561 249.754 465.144Z" fill="#F9F5F1"/>
<path d="M239.535 481.122C239.773 481.345 239.662 481.593 239.169 481.836C239.027 481.64 239.16 481.413 239.535 481.122Z" fill="#F9F5F1"/>
<path d="M238.709 482.09C238.92 481.972 238.891 482.452 238.834 482.686C238.778 482.919 238.387 482.95 238.194 482.986C238.073 482.692 238.238 482.421 238.709 482.09Z" fill="#F9F5F1"/>
<path d="M242.235 202.907C241.977 202.657 242.088 202.371 242.541 202.023C242.655 202.213 242.563 202.516 242.235 202.907Z" fill="#4FB8DF"/>
<path d="M243.064 201.667C242.859 201.465 242.937 201.266 243.242 201.02C243.57 201.211 243.529 201.444 243.064 201.667Z" fill="#4FB8DF"/>
<path d="M244.196 199.856C243.943 199.604 244.055 199.331 244.507 199.012C244.806 199.263 244.711 199.553 244.196 199.856Z" fill="#4FB8DF"/>
<path d="M245.063 198.642C244.86 198.448 244.929 198.262 245.209 198.027C245.545 198.201 245.517 198.425 245.063 198.642Z" fill="#4FB8DF"/>
<path d="M248.151 193.805C247.903 193.574 247.991 193.33 248.368 193.034C248.711 193.258 248.653 193.529 248.151 193.805Z" fill="#4FB8DF"/>
<path d="M249.27 191.953C248.982 191.685 249.092 191.387 249.578 191.038C249.703 191.241 249.608 191.554 249.27 191.953Z" fill="#4FB8DF"/>
<path d="M250.111 190.732C249.891 190.497 249.989 190.273 250.362 190.015C250.673 190.247 250.603 190.501 250.111 190.732Z" fill="#4FB8DF"/>
<path d="M251.271 188.951C250.985 188.693 251.09 188.398 251.563 188.045C251.688 188.241 251.598 188.55 251.271 188.951Z" fill="#4FB8DF"/>
<path d="M270.777 433.168C270.888 433.373 270.748 433.721 270.359 434.217C270.248 434.014 270.387 433.663 270.777 433.168Z" fill="#F9F5F1"/>
<path d="M293.649 399.11C293.734 399.281 293.613 399.587 293.265 400.01C293.062 399.783 293.196 399.488 293.649 399.11Z" fill="#F9F5F1"/>
<path d="M298.395 392.149C298.587 392.315 298.511 392.53 298.129 392.757C298.007 392.599 298.108 392.408 298.395 392.149Z" fill="#F9F5F1"/>
<path d="M286.748 409.174C286.867 409.378 286.737 409.734 286.36 410.25C286.242 410.048 286.37 409.688 286.748 409.174Z" fill="#F9F5F1"/>
<path d="M285.59 411.115C285.824 411.334 285.718 411.612 285.243 411.92C285.055 411.701 285.181 411.443 285.59 411.115Z" fill="#F9F5F1"/>
<path d="M284.765 412.174C284.88 412.379 284.745 412.729 284.361 413.229C284.246 413.025 284.38 412.672 284.765 412.174Z" fill="#F9F5F1"/>
<path d="M301.646 387.108C301.731 387.278 301.611 387.584 301.266 388.008C301.063 387.781 301.196 387.488 301.646 387.108Z" fill="#F9F5F1"/>
<path d="M280.79 418.145C280.902 418.356 280.778 418.683 280.4 419.105C280.282 418.886 280.418 418.573 280.79 418.145Z" fill="#F9F5F1"/>
<path d="M302.386 386.15C302.574 386.315 302.496 386.524 302.118 386.743C302.003 386.589 302.105 386.403 302.386 386.15Z" fill="#F9F5F1"/>
<path d="M278.762 421.158C278.871 421.359 278.735 421.704 278.352 422.192C278.241 421.991 278.379 421.647 278.762 421.158Z" fill="#F9F5F1"/>
<path d="M303.672 384.133C303.761 384.311 303.636 384.613 303.283 385.024C303.069 384.786 303.203 384.493 303.672 384.133Z" fill="#F9F5F1"/>
<path d="M274.756 427.134C274.867 427.339 274.75 427.665 274.383 428.087C274.264 427.874 274.396 427.565 274.756 427.134Z" fill="#F9F5F1"/>
<path d="M305.711 381.127C305.804 381.319 305.68 381.625 305.313 382.017C305.092 381.757 305.234 381.47 305.711 381.127Z" fill="#F9F5F1"/>
<path d="M272.752 430.175C272.87 430.379 272.74 430.733 272.361 431.244C272.243 431.042 272.373 430.684 272.752 430.175Z" fill="#F9F5F1"/>
<path d="M271.598 432.117C271.841 432.341 271.735 432.626 271.249 432.939C271.055 432.714 271.182 432.451 271.598 432.117Z" fill="#F9F5F1"/>
<path d="M267.592 438.129C267.832 438.351 267.725 438.633 267.243 438.948C267.054 438.73 267.18 438.466 267.592 438.129Z" fill="#F9F5F1"/>
<path d="M266.8 439.141C266.913 439.353 266.787 439.683 266.406 440.116C266.288 439.899 266.424 439.58 266.8 439.141Z" fill="#F9F5F1"/>
<path d="M306.531 380.114C306.733 380.314 306.63 380.56 306.194 380.824C306.04 380.629 306.161 380.402 306.531 380.114Z" fill="#F9F5F1"/>
<path d="M310.641 374.104C310.871 374.334 310.747 374.627 310.248 374.965C310.059 374.743 310.197 374.462 310.641 374.104Z" fill="#F9F5F1"/>
<path d="M262.801 445.143C262.912 445.358 262.783 445.685 262.398 446.106C262.282 445.885 262.421 445.57 262.801 445.143Z" fill="#F9F5F1"/>
<path d="M251.726 462.134C251.832 462.34 251.714 462.655 251.347 463.044C251.098 462.764 251.233 462.472 251.726 462.134Z" fill="#F9F5F1"/>
<path d="M297.658 393.122C297.751 393.3 297.634 393.613 297.284 394.042C297.184 393.858 297.315 393.558 297.658 393.122Z" fill="#F9F5F1"/>
<path d="M247.768 468.173C247.886 468.38 247.75 468.736 247.364 469.248C247.248 469.044 247.382 468.684 247.768 468.173Z" fill="#F9F5F1"/>
<path d="M245.817 471.187C245.942 471.406 245.795 471.787 245.388 472.344C245.266 472.129 245.406 471.739 245.817 471.187Z" fill="#F9F5F1"/>
<path d="M218.025 234.639C215.79 237.433 213.305 239.673 211.449 242.349C204.043 253.03 196.833 263.848 189.008 274.58C189.241 271.845 189.213 268.335 190.953 266.605C195.202 262.38 196.565 257.643 196.108 251.78C196.416 251.288 196.677 251.101 197.414 251C200.394 249.916 204.225 249.545 205.306 247.626C209.976 239.331 213.842 230.583 218.35 222.033C221.494 223.639 223.355 221.926 224.33 219.819C225.338 217.639 225.852 215.068 225.922 212.649C226.068 207.654 227.439 203.902 232.97 202.811C235.543 202.303 236.321 200.745 235.618 197.99C235.117 196.028 235.55 193.804 235.697 191.706C235.839 189.671 236.148 187.647 236.383 185.618C233.96 185.574 231.231 184.778 229.167 185.617C220.2 189.266 211.426 193.39 202.587 197.352C202.292 197.485 201.86 197.693 201.81 197.932C200.828 202.673 196.41 202.881 193.107 204.384C186.798 207.255 180.312 209.737 173.988 212.576C168.253 215.151 162.529 217.79 157.003 220.776C153.263 222.797 150.114 226.014 146.265 227.701C141.99 229.575 136.801 229.706 135.429 235.514C135.346 235.864 134.676 236.2 134.22 236.319C128.147 237.903 122.122 239.769 115.963 240.891C111.528 241.699 108.394 242.265 104.853 246.615C100.066 252.497 92.1333 256.046 85.1248 259.802C81.3117 261.846 76.5656 262.082 72.3384 263.439C68.5496 264.655 67.7338 269.935 70.7812 272.719C71.7443 273.599 72.9207 274.245 73.8585 275.294C73.1447 276.725 72.5718 277.862 71.999 278.998C67.023 277.963 61.2949 271.834 61.0581 267.103C60.8412 262.77 64.3707 261.618 67.33 259.947C68.9498 259.032 70.3946 257.808 71.9614 256.361C75.2844 254.528 78.6462 253.212 81.8296 251.555C93.5901 245.431 104.778 237.692 117.171 233.457C127.871 229.801 136.717 223.282 146.799 218.834C160.154 212.942 172.817 205.488 185.817 198.784C195.052 194.02 204.46 189.582 213.6 184.645C225.962 177.968 238.138 170.946 250.402 164.089C251.694 163.366 253 162.373 254.384 162.207C255.494 162.074 257.13 162.697 257.795 163.556C258.38 164.313 258.364 166.073 257.886 167.023C255.576 171.616 253.021 176.085 250.002 180.561C248.967 177.818 247.215 174.941 244.828 176.442C243.347 177.374 243.948 181.615 243.594 184.54C246.419 184.3 248.205 184.149 249.992 183.998C249.992 183.998 249.999 184 250.002 184.002C249.181 185.543 248.358 187.082 246.921 188.863C245.873 190.071 245.437 191.036 245.001 192.001C238.2 202.632 231.393 213.259 224.602 223.897C222.4 227.346 220.242 230.822 218.025 234.639Z" fill="#0B90BA"/>
<path d="M249.995 183.623C248.205 184.149 246.419 184.3 243.594 184.54C243.948 181.615 243.347 177.374 244.828 176.442C247.215 174.941 248.967 177.818 249.726 180.763C249.999 181.75 249.998 182.499 249.995 183.623Z" fill="#0B8FB8"/>
<path d="M259.739 174.302C258.991 174.78 258.352 174.924 257.384 175.108C258.814 172.124 260.573 169.1 262.674 166.011C261.961 168.621 260.905 171.295 259.739 174.302Z" fill="#0CA4CB"/>
<path d="M256.666 176.023C256.247 177.301 255.486 178.637 254.396 180.064C254.818 178.797 255.571 177.44 256.666 176.023Z" fill="#0CA4CB"/>
<path d="M196.001 252C196.565 257.643 195.202 262.38 190.953 266.605C189.213 268.336 189.241 271.845 188.737 274.775C188.364 276.766 187.718 278.527 187.035 280.641C181.878 287.576 176.646 294.077 171.673 300.77C167.725 306.083 164.428 311.917 160.133 316.91C158.76 318.506 154.846 319.135 152.565 318.504C145.595 316.578 138.819 313.917 132.038 311.355C128.333 309.956 124.609 308.462 121.179 306.51C115.736 303.412 110.179 300.338 105.303 296.458C96.0206 289.072 84.7729 285.903 74.3544 280.956C73.63 280.612 72.9987 280.072 72.1616 279.311C72.5719 277.862 73.1448 276.725 74.2914 275.294C79.4559 275.48 84.7799 274.64 88.4911 276.703C97.3458 281.623 105.731 287.542 113.725 293.799C118.093 297.218 122.773 299.064 127.819 298.847C139.963 298.323 151.696 295.382 162.372 289.471C165.128 287.946 167.555 284.69 168.737 281.681C171.662 274.236 172.73 266.47 178.829 259.931C183.974 254.414 189.579 253.095 196.001 252Z" fill="#078FB7"/>
<path d="M216.567 474C217.241 478.802 212.795 479.881 210.37 479.393C205.576 478.429 199.784 478.264 197.037 472.356C203.378 472.667 209.757 473.333 216.567 474Z" fill="#EB6A15"/>
<path d="M253.692 484.144C252.842 485.064 251.648 485.986 250.083 486.888C250.923 485.96 252.135 485.053 253.692 484.144Z" fill="#457983"/>
<path d="M262.708 480.128C262.481 480.713 261.934 481.305 261.039 481.881C261.257 481.288 261.823 480.712 262.708 480.128Z" fill="#457983"/>
<path d="M278.715 472.919C278.539 473.234 278.056 473.579 277.26 473.927C277.434 473.602 277.921 473.275 278.715 472.919Z" fill="#457983"/>
<path d="M276.648 473.944C276.482 474.264 276.01 474.606 275.229 474.967C275.393 474.646 275.869 474.306 276.648 473.944Z" fill="#457983"/>
<path d="M240.015 485.386C241.248 485.856 242.475 486.702 243.877 487.82C243.917 488.404 243.709 488.658 242.909 488.959C241.977 489.065 241.567 489.064 241.156 489.062C240.774 487.962 240.392 486.863 240.015 485.386Z" fill="#0B90BA"/>
<path d="M240.998 489.306C241.567 489.064 241.977 489.065 242.697 489.088C242.205 489.736 241.405 490.363 240.245 490.99C240.203 490.51 240.522 490.03 240.998 489.306Z" fill="#457983"/>
<path d="M236.382 492.937C236.636 492.722 237.288 492.522 238.157 492.545C237.842 492.829 237.312 492.891 236.382 492.937Z" fill="#457983"/>
<path d="M245.29 191.86C245.437 191.036 245.873 190.071 246.653 189.052C246.524 189.905 246.052 190.812 245.29 191.86Z" fill="#1193BD"/>
<path d="M196.108 251.78C189.579 253.094 183.974 254.414 178.829 259.931C172.73 266.47 171.662 274.236 168.737 281.681C167.555 284.69 165.128 287.945 162.372 289.471C151.696 295.381 139.963 298.323 127.819 298.847C122.773 299.064 118.093 297.218 113.725 293.799C105.731 287.542 97.3458 281.623 88.4911 276.702C84.7799 274.64 79.4559 275.48 74.4324 275C72.9208 274.246 71.7444 273.599 70.7813 272.719C67.7339 269.935 68.5497 264.655 72.3385 263.439C76.5657 262.082 81.3118 261.846 85.1249 259.802C92.1334 256.046 100.066 252.497 104.853 246.615C108.394 242.265 111.528 241.699 115.963 240.891C122.123 239.769 128.147 237.903 134.22 236.319C134.676 236.201 135.346 235.864 135.429 235.514C136.801 229.706 141.99 229.575 146.265 227.701C150.114 226.014 153.263 222.797 157.003 220.776C162.529 217.79 168.253 215.151 173.988 212.576C180.312 209.737 186.798 207.256 193.107 204.384C196.41 202.881 200.828 202.673 201.81 197.932C201.86 197.693 202.292 197.485 202.587 197.353C211.426 193.39 220.2 189.266 229.167 185.617C231.231 184.778 233.96 185.575 236.383 185.618C236.148 187.647 235.839 189.671 235.697 191.707C235.55 193.804 235.117 196.028 235.618 197.99C236.321 200.745 235.543 202.304 232.97 202.811C227.439 203.902 226.068 207.654 225.923 212.649C225.852 215.068 225.338 217.639 224.33 219.819C223.355 221.926 221.494 223.639 217.966 222.034C216.019 222.62 214.745 223.146 213.602 223.876C210.994 225.541 208.355 227.183 205.906 229.065C203.554 230.873 200.2 232.594 199.452 235.021C197.881 240.115 197.732 245.648 196.999 251C196.677 251.101 196.416 251.288 196.108 251.78Z" fill="#0B8FB8"/>
<path d="M197.414 251C197.732 245.648 197.881 240.115 199.452 235.021C200.2 232.594 203.554 230.873 205.906 229.065C208.355 227.182 210.994 225.541 213.602 223.876C214.745 223.146 216.019 222.62 217.617 222.001C213.842 230.583 209.976 239.331 205.306 247.626C204.225 249.545 200.394 249.917 197.414 251Z" fill="#078FB7"/>
<path d="M96.988 703V677.8H108.436C111.172 677.8 113.584 678.328 115.672 679.384C117.76 680.416 119.392 681.868 120.568 683.74C121.744 685.612 122.332 687.832 122.332 690.4C122.332 692.944 121.744 695.164 120.568 697.06C119.392 698.932 117.76 700.396 115.672 701.452C113.584 702.484 111.172 703 108.436 703H96.988ZM102.82 698.212H108.148C109.828 698.212 111.28 697.9 112.504 697.276C113.752 696.628 114.712 695.716 115.384 694.54C116.08 693.364 116.428 691.984 116.428 690.4C116.428 688.792 116.08 687.412 115.384 686.26C114.712 685.084 113.752 684.184 112.504 683.56C111.28 682.912 109.828 682.588 108.148 682.588H102.82V698.212ZM126.334 703V683.632H131.95V703H126.334ZM129.142 680.932C128.11 680.932 127.27 680.632 126.622 680.032C125.974 679.432 125.65 678.688 125.65 677.8C125.65 676.912 125.974 676.168 126.622 675.568C127.27 674.968 128.11 674.668 129.142 674.668C130.174 674.668 131.014 674.956 131.662 675.532C132.31 676.084 132.634 676.804 132.634 677.692C132.634 678.628 132.31 679.408 131.662 680.032C131.038 680.632 130.198 680.932 129.142 680.932ZM146.27 710.272C144.446 710.272 142.682 710.044 140.978 709.588C139.298 709.156 137.894 708.496 136.766 707.608L138.998 703.576C139.814 704.248 140.846 704.776 142.094 705.16C143.366 705.568 144.614 705.772 145.838 705.772C147.83 705.772 149.27 705.328 150.158 704.44C151.07 703.552 151.526 702.232 151.526 700.48V697.564L151.886 692.704L151.814 687.808V683.632H157.142V699.76C157.142 703.36 156.206 706.012 154.334 707.716C152.462 709.42 149.774 710.272 146.27 710.272ZM145.406 702.064C143.606 702.064 141.974 701.68 140.51 700.912C139.07 700.12 137.906 699.028 137.018 697.636C136.154 696.22 135.722 694.576 135.722 692.704C135.722 690.808 136.154 689.164 137.018 687.772C137.906 686.356 139.07 685.264 140.51 684.496C141.974 683.728 143.606 683.344 145.406 683.344C147.038 683.344 148.478 683.68 149.726 684.352C150.974 685 151.946 686.02 152.642 687.412C153.338 688.78 153.686 690.544 153.686 692.704C153.686 694.84 153.338 696.604 152.642 697.996C151.946 699.364 150.974 700.384 149.726 701.056C148.478 701.728 147.038 702.064 145.406 702.064ZM146.522 697.456C147.506 697.456 148.382 697.264 149.15 696.88C149.918 696.472 150.518 695.908 150.95 695.188C151.382 694.468 151.598 693.64 151.598 692.704C151.598 691.744 151.382 690.916 150.95 690.22C150.518 689.5 149.918 688.948 149.15 688.564C148.382 688.156 147.506 687.952 146.522 687.952C145.538 687.952 144.662 688.156 143.894 688.564C143.126 688.948 142.514 689.5 142.058 690.22C141.626 690.916 141.41 691.744 141.41 692.704C141.41 693.64 141.626 694.468 142.058 695.188C142.514 695.908 143.126 696.472 143.894 696.88C144.662 697.264 145.538 697.456 146.522 697.456ZM162.369 703V683.632H167.985V703H162.369ZM165.177 680.932C164.145 680.932 163.305 680.632 162.657 680.032C162.009 679.432 161.685 678.688 161.685 677.8C161.685 676.912 162.009 676.168 162.657 675.568C163.305 674.968 164.145 674.668 165.177 674.668C166.209 674.668 167.049 674.956 167.697 675.532C168.345 676.084 168.669 676.804 168.669 677.692C168.669 678.628 168.345 679.408 167.697 680.032C167.073 680.632 166.233 680.932 165.177 680.932ZM181.117 703.288C178.837 703.288 177.061 702.712 175.789 701.56C174.517 700.384 173.881 698.644 173.881 696.34V679.348H179.497V696.268C179.497 697.084 179.713 697.72 180.145 698.176C180.577 698.608 181.165 698.824 181.909 698.824C182.797 698.824 183.553 698.584 184.177 698.104L185.689 702.064C185.113 702.472 184.417 702.784 183.601 703C182.809 703.192 181.981 703.288 181.117 703.288ZM170.893 688.384V684.064H184.321V688.384H170.893ZM200.722 703V699.22L200.362 698.392V691.624C200.362 690.424 199.99 689.488 199.246 688.816C198.526 688.144 197.41 687.808 195.898 687.808C194.866 687.808 193.846 687.976 192.838 688.312C191.854 688.624 191.014 689.056 190.318 689.608L188.302 685.684C189.358 684.94 190.63 684.364 192.118 683.956C193.606 683.548 195.118 683.344 196.654 683.344C199.606 683.344 201.898 684.04 203.53 685.432C205.162 686.824 205.978 688.996 205.978 691.948V703H200.722ZM194.818 703.288C193.306 703.288 192.01 703.036 190.93 702.532C189.85 702.004 189.022 701.296 188.446 700.408C187.87 699.52 187.582 698.524 187.582 697.42C187.582 696.268 187.858 695.26 188.41 694.396C188.986 693.532 189.886 692.86 191.11 692.38C192.334 691.876 193.93 691.624 195.898 691.624H201.046V694.9H196.51C195.19 694.9 194.278 695.116 193.774 695.548C193.294 695.98 193.054 696.52 193.054 697.168C193.054 697.888 193.33 698.464 193.882 698.896C194.458 699.304 195.238 699.508 196.222 699.508C197.158 699.508 197.998 699.292 198.742 698.86C199.486 698.404 200.026 697.744 200.362 696.88L201.226 699.472C200.818 700.72 200.074 701.668 198.994 702.316C197.914 702.964 196.522 703.288 194.818 703.288ZM211.061 703V676.288H216.677V703H211.061ZM232.48 703V677.8H237.304L252.172 695.944H249.832V677.8H255.592V703H250.804L235.9 684.856H238.24V703H232.48ZM270.77 703.288C268.562 703.288 266.618 702.856 264.938 701.992C263.282 701.128 261.998 699.952 261.086 698.464C260.174 696.952 259.718 695.236 259.718 693.316C259.718 691.372 260.162 689.656 261.05 688.168C261.962 686.656 263.198 685.48 264.758 684.64C266.318 683.776 268.082 683.344 270.05 683.344C271.946 683.344 273.65 683.752 275.162 684.568C276.698 685.36 277.91 686.512 278.798 688.024C279.686 689.512 280.13 691.3 280.13 693.388C280.13 693.604 280.118 693.856 280.094 694.144C280.07 694.408 280.046 694.66 280.022 694.9H264.29V691.624H277.07L274.91 692.596C274.91 691.588 274.706 690.712 274.298 689.968C273.89 689.224 273.326 688.648 272.606 688.24C271.886 687.808 271.046 687.592 270.086 687.592C269.126 687.592 268.274 687.808 267.53 688.24C266.81 688.648 266.246 689.236 265.838 690.004C265.43 690.748 265.226 691.636 265.226 692.668V693.532C265.226 694.588 265.454 695.524 265.91 696.34C266.39 697.132 267.05 697.744 267.89 698.176C268.754 698.584 269.762 698.788 270.914 698.788C271.946 698.788 272.846 698.632 273.614 698.32C274.406 698.008 275.126 697.54 275.774 696.916L278.762 700.156C277.874 701.164 276.758 701.944 275.414 702.496C274.07 703.024 272.522 703.288 270.77 703.288ZM280.894 703L289.57 691.624L289.462 694.72L281.146 683.632H287.446L292.702 690.868L290.326 690.94L295.762 683.632H301.738L293.386 694.612V691.588L302.026 703H295.654L290.146 695.296L292.486 695.62L287.014 703H280.894ZM312.573 703.288C310.965 703.288 309.525 702.976 308.253 702.352C307.005 701.728 306.033 700.78 305.337 699.508C304.641 698.212 304.293 696.568 304.293 694.576V683.632H309.909V693.748C309.909 695.356 310.245 696.544 310.917 697.312C311.613 698.056 312.585 698.428 313.833 698.428C314.697 698.428 315.465 698.248 316.137 697.888C316.809 697.504 317.337 696.928 317.721 696.16C318.105 695.368 318.297 694.384 318.297 693.208V683.632H323.913V703H318.585V697.672L319.557 699.22C318.909 700.564 317.949 701.584 316.677 702.28C315.429 702.952 314.061 703.288 312.573 703.288ZM335.631 703.288C333.975 703.288 332.379 703.096 330.843 702.712C329.331 702.304 328.131 701.8 327.243 701.2L329.115 697.168C330.003 697.72 331.047 698.176 332.247 698.536C333.471 698.872 334.671 699.04 335.847 699.04C337.143 699.04 338.055 698.884 338.583 698.572C339.135 698.26 339.411 697.828 339.411 697.276C339.411 696.82 339.195 696.484 338.763 696.268C338.355 696.028 337.803 695.848 337.107 695.728C336.411 695.608 335.643 695.488 334.803 695.368C333.987 695.248 333.159 695.092 332.319 694.9C331.479 694.684 330.711 694.372 330.015 693.964C329.319 693.556 328.755 693.004 328.323 692.308C327.915 691.612 327.711 690.712 327.711 689.608C327.711 688.384 328.059 687.304 328.755 686.368C329.475 685.432 330.507 684.7 331.851 684.172C333.195 683.62 334.803 683.344 336.675 683.344C337.995 683.344 339.339 683.488 340.707 683.776C342.075 684.064 343.215 684.484 344.127 685.036L342.255 689.032C341.319 688.48 340.371 688.108 339.411 687.916C338.475 687.7 337.563 687.592 336.675 687.592C335.427 687.592 334.515 687.76 333.939 688.096C333.363 688.432 333.075 688.864 333.075 689.392C333.075 689.872 333.279 690.232 333.687 690.472C334.119 690.712 334.683 690.904 335.379 691.048C336.075 691.192 336.831 691.324 337.647 691.444C338.487 691.54 339.327 691.696 340.167 691.912C341.007 692.128 341.763 692.44 342.435 692.848C343.131 693.232 343.695 693.772 344.127 694.468C344.559 695.14 344.775 696.028 344.775 697.132C344.775 698.332 344.415 699.4 343.695 700.336C342.975 701.248 341.931 701.968 340.563 702.496C339.219 703.024 337.575 703.288 335.631 703.288ZM355.52 703L366.752 677.8H372.512L383.78 703H377.66L368.444 680.752H370.748L361.496 703H355.52ZM361.136 697.6L362.684 693.172H375.644L377.228 697.6H361.136ZM386.394 703V677.8H392.226V703H386.394Z" fill="#111F33"/>
</svg>
