<svg width="503" height="737" viewBox="0 0 503 737" fill="none" xmlns="http://www.w3.org/2000/svg">
<path d="M208.932 714.957C208.932 714.957 208.693 715.162 208.234 715.17C207.495 715.453 207.216 715.729 206.936 716.004C206.936 716.004 206.725 716.211 206.28 716.212C205.559 716.483 205.283 716.753 205.007 717.024C205.007 717.024 205.003 716.997 204.664 716.965C203.213 717.652 202.102 718.372 200.991 719.092C200.991 719.092 200.776 719.303 200.333 719.292C199.603 719.542 199.315 719.802 199.027 720.063C199.027 720.063 199.017 719.996 198.728 719.979C197.961 720.316 197.483 720.669 197.005 721.023C197.005 721.023 197.009 721.01 196.609 720.913C195.795 720.018 195.017 719.219 195.018 718.421C195.034 688.342 195.073 658.262 195.31 628.185C195.326 626.127 196.321 623.143 197.855 622.192C205.02 617.75 212.535 613.871 219.948 610.208C219.71 613.725 221.537 614.671 223.99 613.762C226.728 612.747 229.281 611.171 231.803 609.653C234.763 607.873 237.417 605.483 240.527 604.069C256.68 596.725 273.17 590.083 289.085 582.264C301.83 576.002 313.898 568.366 326.32 561.437C329.064 559.906 332.132 558.958 334.884 557.44C348.947 549.683 362.828 541.588 377.019 534.076C390.772 526.795 405.283 520.848 418.625 512.91C434.365 503.546 450.799 496.089 468.011 490.107C472.684 488.483 474.499 489.409 474.952 494.383C476.063 506.571 476.949 518.78 478.065 530.968C478.192 532.352 479.215 533.653 479.876 535.46C480.097 547.755 480.264 559.583 480.431 571.411C480.431 571.411 480.416 571.78 479.93 571.964C478.489 572.405 477.441 572.487 476.593 572.942C464.46 579.462 452.404 586.127 440.229 592.569C421.855 602.291 403.478 612.013 384.962 621.46C368.982 629.613 352.638 637.062 336.75 645.385C298.44 665.453 260.283 685.812 222.131 706.179C218.576 708.077 215.499 710.87 212.201 713.247C212.201 713.247 212.028 712.995 211.782 713.051C210.669 713.724 209.8 714.34 208.932 714.957Z" fill="#023A53"/>
<path d="M480.924 347.002C480.942 383.721 480.96 420.44 480.65 457.63C480.089 458.234 479.856 458.366 479.624 458.499C480 458.639 480.377 458.778 480.754 458.917C480.809 460.323 480.864 461.728 480.631 463.549C480.342 463.964 479.923 464.002 479.57 464.045C476.969 464.289 474.244 465.423 472.545 464.552C438.245 446.991 404.069 429.187 369.827 411.51C368.755 410.957 367.252 411.24 365.574 411.074C363.991 410.718 362.783 410.423 361.325 409.915C352.576 404.584 344.196 399.254 335.536 394.427C330.55 391.648 325.111 389.681 319.769 387.062C319.29 386.717 318.919 386.658 318.509 386.562C318.471 386.525 318.369 386.55 318.54 386.166C317.424 383.497 316.674 379.982 314.755 379.143C307.46 375.956 299.787 373.633 292.186 370.524C292.042 360.373 291.967 350.686 292.29 340.925C293.413 337.765 294.727 334.688 294.769 331.593C295.013 313.897 295.043 296.196 294.867 278.5C294.849 276.658 292.999 274.833 291.975 272.543C291.901 268.739 291.851 265.391 292.12 261.8C292.626 260.597 292.914 259.643 292.983 258.675C293.405 252.742 294.941 251.794 300.06 254.573C302.093 255.676 303.962 257.087 305.88 258.395C309.428 260.815 312.811 263.52 316.528 265.641C323.257 269.48 330.242 272.869 336.969 276.711C338.258 277.447 338.849 279.403 339.762 280.796C337.975 280.945 336.182 281.244 334.402 281.183C333.479 281.151 332.534 280.562 331.674 280.088C327.388 277.729 323.218 275.139 318.833 272.986C314.082 270.654 308.788 272.401 307.495 277.443C305.175 286.484 302.542 295.727 302.285 304.949C301.878 319.499 302.982 334.129 304.154 348.667C304.648 354.783 306.587 360.87 308.53 366.752C310.21 371.836 321.026 378.511 325.811 378.651C327.902 378.712 330.113 379.589 332.008 380.59C341.513 385.61 350.59 391.638 360.491 395.649C368.119 398.738 376.705 399.486 383.939 403.976C389.722 407.567 395.967 410.6 401.181 414.885C415.957 427.026 432.829 432.787 451.74 432.852C453.374 432.858 455.689 431.178 456.537 429.645C460.187 423.042 463.46 416.229 466.74 409.429C467.438 407.982 467.872 406.287 467.953 404.682C468.385 396.15 469.411 387.554 468.78 379.089C468.209 371.438 466.269 363.767 463.907 356.435C463.003 353.63 459.627 350.542 456.738 349.645C445.377 346.12 436.22 339.149 426.775 332.433C422.649 329.499 418.027 327.124 413.359 325.129C407.299 322.539 400.845 320.866 394.804 318.239C391.533 316.816 387.599 314.878 386.025 312.032C383.047 306.644 378.243 304.21 373.558 301.148C370.716 299.291 368.418 296.603 365.875 294.289C366.246 293.713 366.616 293.137 366.987 292.562C374.487 295.371 381.943 298.31 389.51 300.926C392.55 301.977 395.836 302.318 399.334 302.986C400.086 303.036 400.515 303.08 401.017 303.456C402.058 304.188 403.025 304.589 403.997 304.993C404.002 304.997 404.012 305.003 404.064 305.352C414.822 311.443 425.409 317.427 436.29 322.817C441.098 325.199 446.502 326.378 451.635 328.103C451.635 328.103 451.873 328.047 452.043 328.353C452.451 328.894 452.734 328.977 453.061 328.908C453.061 328.908 453.027 328.994 453.177 329.281C454.551 330.025 455.775 330.483 456.999 330.94C456.999 330.94 457.035 330.949 457.189 331.222C457.892 331.644 458.441 331.793 458.989 331.942C458.989 331.942 459.037 331.942 459.161 332.288C463.611 336.46 468.175 339.788 474.314 339.826C474.314 339.826 474.726 339.849 474.965 340.199C475.398 340.802 475.653 340.944 475.971 340.975C475.971 340.975 476.034 341.014 476.069 341.288C476.294 341.873 476.572 342.021 476.937 342.007C478.36 343.079 479.783 344.15 480.91 345.696C480.555 346.278 480.42 346.438 480.452 346.485C480.582 346.676 480.762 346.833 480.924 347.002Z" fill="#013753"/>
<path d="M41.3021 326.002C41.2038 319.973 41.1055 313.943 41.5121 307.435C42.6778 305.511 43.7579 304.112 43.9278 302.61C44.7433 295.399 44.9649 288.103 46.1429 280.961C46.6074 278.144 48.3649 274.598 50.6471 273.194C58.4987 268.365 66.8424 264.336 74.9497 260.341C70.7989 263.692 66.4874 266.465 62.6745 269.807C60.4289 271.776 57.6119 274.541 57.4108 277.13C56.7162 286.075 57.0481 295.099 57.0108 304.093C57.0007 306.512 57.096 308.931 57.0927 311.35C57.0867 315.832 56.7587 320.339 57.1511 324.784C57.3169 326.663 59.9995 328.565 59.7562 330.19C58.878 336.055 63.1277 336.528 66.6452 336.854C71.9737 337.348 76.9423 337.093 82.0338 333.467C88.4895 328.869 96.3466 326.259 103.536 322.665C108.085 320.392 112.502 317.856 117.009 315.497C121.324 313.238 125.613 310.91 130.042 308.896C132.58 307.741 136.057 307.898 137.937 306.18C146.087 298.734 158.134 297.722 165.516 289.106C166.384 288.093 168.139 287.771 169.54 287.295C174.207 285.71 179.015 284.476 183.549 282.581C187.483 280.937 191.107 278.558 194.889 276.541C198.388 274.675 202.99 273.684 205.178 270.83C208.517 266.471 213.018 264.955 217.418 262.812C221.444 260.851 225.411 258.742 229.54 257.024C239.456 252.899 249.377 248.766 259.444 245.036C264.828 243.04 270.614 242.144 276.038 240.238C279.917 238.874 283.427 236.496 287.225 234.858C292.371 232.64 298.279 231.589 302.688 228.411C308.346 224.332 312.917 218.71 317.803 213.606C320.057 211.251 321.945 208.547 324.294 206.29C324.726 208.711 324.854 210.844 325.002 212.976C325.357 218.095 323.62 221.514 318.57 223.911C311.156 227.428 304.17 231.863 297.092 236.059C296.143 236.622 295.722 238.074 294.895 239.388C294.025 240.726 293.315 241.791 292.334 242.987C291.179 243.886 290.295 244.653 289.349 245.428C289.288 245.435 289.219 245.537 288.985 245.635C288.232 246.179 287.714 246.625 286.794 247.013C279.935 245.03 277.24 246.441 274.824 253.082C274.359 253.473 274.09 253.689 273.526 253.876C272.84 253.902 272.45 253.958 271.837 254.098C271.333 254.35 271.128 254.586 270.693 255.017C269.611 255.49 268.836 255.835 267.672 256.198C264.265 257.328 261.095 258.144 258.255 259.602C243.186 267.334 228.22 275.266 213.181 283.056C182.274 299.066 151.252 314.857 120.456 331.078C102.789 340.383 85.473 350.352 67.6671 360.058C65.516 361.262 63.6968 362.432 61.5254 363.718C56.1282 366.591 51.0832 369.346 45.9785 371.679C45.6128 369.643 45.0889 368.035 45.0354 366.411C44.6375 354.326 44.333 342.238 43.9987 330.151C43.9453 328.219 44.5122 325.883 41.3021 326.002Z" fill="#F26C14"/>
<path d="M41.4256 398.089C41.3834 395.341 41.3412 392.593 41.5027 389.309C41.844 388.473 41.7706 388.234 41.4863 388.055C41.4263 385.68 41.3662 383.304 41.6577 380.5C42.3606 380.049 42.7122 380.026 43.4778 380.002C45.9874 380.367 48.3299 380.25 50.1381 381.177C61.3394 386.915 72.4341 392.863 83.5386 398.789C99.1257 407.108 114.65 415.544 130.279 423.784C140.783 429.323 151.42 434.609 161.999 440.408C162 441.871 162 442.936 161.561 444C153.15 442.529 145.177 441.064 137.208 439.584C134.468 439.075 131.735 438.529 128.75 438C128.5 438 128 438 127.962 437.648C123.388 433.981 119.801 428.77 113.028 429.913C112.445 430.012 111.479 429.825 111.198 429.42C108.838 426.014 104.653 426.111 101.712 424.34C95.2902 420.471 88.9198 420.015 81.5772 421C77.8033 419.902 74.4455 418.823 71.103 417.698C69.5565 417.177 68.073 416.444 66.5029 416.025C62.5096 414.958 58.7384 414.043 56.5337 409.671C55.7556 408.128 52.4223 407.28 50.2551 407.279C49.1582 407.279 47.711 409.729 47.0561 411.331C46.327 413.114 46.0959 415.186 46.0502 417.142C45.9861 419.884 44.8144 421.146 42.077 420.542C41.8444 412.745 41.635 405.417 41.4256 398.089Z" fill="#EF6C18"/>
<path d="M479.822 534.993C479.215 533.653 478.192 532.352 478.065 530.968C476.949 518.78 476.063 506.571 474.952 494.383C474.499 489.409 472.683 488.483 468.011 490.106C450.799 496.089 434.365 503.546 418.625 512.91C405.283 520.848 390.772 526.795 377.019 534.076C362.828 541.588 348.947 549.683 334.884 557.44C332.132 558.958 329.064 559.906 326.32 561.437C313.898 568.366 301.83 576.002 289.085 582.264C273.17 590.083 256.68 596.725 240.526 604.069C237.416 605.483 234.763 607.873 231.803 609.653C229.281 611.171 226.728 612.747 223.99 613.762C221.537 614.671 219.71 613.725 220.168 609.958C227.617 604.926 234.869 600.562 242.498 596.159C243.61 595.948 244.346 595.776 245.333 595.672C245.956 595.473 246.328 595.206 247.087 594.904C251.916 593.079 256.5 591.57 260.767 589.428C266.597 586.501 272.185 583.093 277.901 579.896C277.924 579.9 277.944 579.857 278.307 579.864C281.789 578.184 284.908 576.497 288.18 574.769C288.332 574.727 288.647 574.76 288.933 574.769C289.453 574.502 289.688 574.227 289.928 573.936C289.934 573.92 289.922 573.887 290.287 573.878C291.574 573.501 292.537 573.213 293.409 572.752C311.583 563.166 329.751 553.567 347.91 543.951C352.288 541.633 356.63 539.248 361.219 536.822C361.735 536.552 361.886 536.279 361.92 535.924C361.939 535.918 361.96 535.884 362.338 535.923C364.564 535.262 366.496 534.728 368.244 533.835C381.111 527.257 393.942 520.607 407.159 513.962C428.263 502.908 448.991 491.872 469.721 480.838C472.998 479.093 476 476.337 480.202 477.968C480.316 479.083 480.431 480.197 480.318 481.81C480.208 482.879 480.324 483.45 480.441 484.021C480.495 486.385 480.55 488.748 480.34 491.902C479.991 506.793 479.906 520.893 479.822 534.993Z" fill="#033251"/>
<path d="M221.355 594.363C212.015 589.657 202.623 585.051 193.344 580.228C147.719 556.515 102.096 532.797 56.5568 508.919C51.3685 506.199 46.7101 502.468 41.8667 498.416C41.9655 496.423 42.0035 495.219 42.3828 494.047C50.0528 498.775 57.1654 503.861 64.7633 508.071C74.9798 513.733 85.5708 518.719 96.3759 523.997C97.5003 524 98.2498 524.001 99.0529 524.35C101.744 526.271 104.32 527.962 107.031 529.395C116.329 534.311 125.675 539.137 135.261 544.105C136.014 544.475 136.508 544.737 137.162 545.311C144.881 549.416 152.44 553.209 160.141 557.291C161.188 558.053 162.093 558.526 163.15 559.299C164.868 560.397 166.436 561.194 168.298 562.119C169.394 562.496 170.197 562.747 171.199 563.274C180.163 568.141 188.909 572.768 197.698 577.31C203.105 580.104 208.315 583.903 214.08 585.249C224.846 587.763 228.065 585.626 228.064 575.809C228.063 572.37 228.494 568.895 229.134 565.514C229.318 564.539 230.917 563.832 231.968 563.459C231.999 568.948 231.928 573.98 231.533 579.215C229.78 583.05 228.562 586.668 231.944 590.377C231.984 591.494 231.937 592.244 231.57 593.048C230.177 594.37 229.105 595.638 228.034 596.905C226.903 596.583 225.772 596.262 224.227 595.432C222.993 594.737 222.174 594.55 221.355 594.363Z" fill="#F96B17"/>
<path d="M212.567 713.225C215.499 710.87 218.576 708.077 222.131 706.179C260.283 685.812 298.44 665.453 336.75 645.385C352.638 637.062 368.982 629.614 384.962 621.461C403.478 612.013 421.855 602.292 440.229 592.569C452.404 586.127 464.46 579.462 476.593 572.943C477.441 572.487 478.489 572.405 479.825 572.116C478.671 573.477 477.346 575.267 475.571 576.209C440.712 594.701 405.875 613.238 370.881 631.473C320.081 657.944 269.159 684.182 218.287 710.516C216.514 711.434 214.718 712.309 212.567 713.225Z" fill="#317391"/>
<path d="M295.056 239.115C295.722 238.074 296.143 236.622 297.092 236.059C304.17 231.863 311.156 227.429 318.57 223.911C323.62 221.514 325.357 218.095 325.002 212.976C324.854 210.844 324.725 208.711 324.294 205.844C324 185.74 324 166.37 324.249 146.798C324.428 145.644 324.285 144.692 324.298 143.742C324.484 130.864 321.849 129.254 310.398 135.307C309.539 135.76 308.792 136.426 307.643 137.051C303.859 139.07 300.424 141.032 296.657 143.141C289.081 146.745 281.841 150.214 274.589 153.657C262.394 159.448 250.19 165.223 238.011 170.702C238.366 169.673 238.7 168.947 239.034 168.221C239.034 168.221 239.103 168.046 239.45 168.044C240.204 167.754 240.611 167.466 241.019 167.178C241.019 167.178 241.075 167.019 241.42 167.025C242.178 166.72 242.591 166.41 243.004 166.099C243.004 166.099 243.034 166.007 243.361 166.011C244.126 165.703 244.564 165.391 245.002 165.079C245.002 165.079 245.022 165.007 245.399 165.022C246.854 164.361 247.932 163.685 249.01 163.009C264.209 155.271 279.387 147.491 294.615 139.812C304.671 134.741 314.799 129.817 325.64 124.876C326.611 127.309 327.028 129.694 327.033 132.079C327.084 157.966 327.047 183.853 327.134 209.739C327.139 211.197 328.014 212.652 328.484 214.108C329.297 223.142 329.303 223.153 321.282 227.277C315.544 230.227 309.789 233.142 303.327 236.099C300.094 237.121 297.575 238.118 295.056 239.115Z" fill="#F8731E"/>
<path d="M161.998 440.009C151.42 434.609 140.783 429.323 130.278 423.784C114.65 415.544 99.1254 407.108 83.5384 398.789C72.4339 392.863 61.3392 386.915 50.1379 381.177C48.3296 380.25 45.9871 380.367 43.4715 379.674C42.5279 378.545 42.0044 377.744 41.481 376.943C41.4114 373.239 41.3417 369.536 41.561 365.063C41.6975 357.216 41.5451 350.139 41.3927 343.062C41.2931 337.681 41.1935 332.299 41.1979 326.46C44.512 325.883 43.9451 328.219 43.9986 330.151C44.3329 342.238 44.6373 354.326 45.0353 366.411C45.0887 368.035 45.6127 369.643 45.958 372.043C47.0291 373.754 47.9247 374.937 49.1132 375.569C76.3668 390.07 103.623 404.566 130.948 418.933C140.485 423.947 150.204 428.614 160.113 433.668C161.924 434.991 163.463 436.084 165 437.499C164.663 438.552 164.328 439.282 163.661 440.01C162.885 440.008 162.442 440.008 161.998 440.009Z" fill="#F67213"/>
<path d="M92.9735 243.469C93.1367 243.357 93.2998 243.245 94.0491 243.075C95.087 242.684 95.5387 242.351 95.9904 242.019C96.2891 241.778 96.5877 241.537 97.3995 241.194C98.2697 240.817 98.6267 240.542 98.9837 240.267C98.9837 240.267 99.388 240.004 99.8664 239.945C100.669 239.777 100.906 239.569 101.055 239.261C101.055 239.261 101.137 239.114 101.475 239.101C102.224 238.811 102.636 238.535 103.047 238.259C103.047 238.259 103.185 238.102 103.369 238.092C103.554 238.081 103.831 237.909 103.831 237.909C104.27 237.64 104.709 237.372 105.752 237.011C106.656 236.822 106.87 236.628 106.996 236.338C146.411 215.903 185.825 195.468 225.673 175.072C226.106 175.11 226.259 175.271 226.172 175.593C225.054 177.263 224.022 178.612 222.625 180.006C213.954 184.136 205.563 188.058 197.364 192.347C185.318 198.65 173.403 205.203 161.444 211.673C149.967 217.882 138.505 224.117 127.039 230.346C110.692 239.226 94.3484 248.111 77.6146 256.997C74.4614 257.632 71.6968 258.263 69.1089 258.604C73.5704 255.895 77.9394 253.611 82.1106 251.009C84.8978 249.271 87.4035 247.082 90.0352 245.094C90.0352 245.094 90.0487 245.018 90.3678 245.03C91.1253 244.72 91.5636 244.397 92.002 244.074C92.002 244.074 92.0248 243.999 92.2422 243.982C92.7017 243.873 92.873 243.708 92.9735 243.469Z" fill="#F97832"/>
<path d="M289.411 245.42C290.295 244.653 291.179 243.886 292.622 243.097C294.032 243.389 294.883 243.704 295.734 244.019C332.721 264.123 369.707 284.228 406.492 304.684C405.531 305.024 404.772 305.013 404.012 305.003C404.012 305.003 404.002 304.997 403.855 304.707C402.787 303.986 401.865 303.556 400.944 303.125C400.515 303.08 400.086 303.036 399.125 302.708C385.344 295.561 372.036 288.812 358.864 281.806C343.641 273.707 328.595 265.274 313.359 257.199C305.502 253.035 297.401 249.332 289.411 245.42Z" fill="#3B7077"/>
<path d="M242.121 596.197C234.869 600.562 227.617 604.926 220.145 609.54C212.535 613.871 205.02 617.75 197.855 622.192C196.321 623.143 195.326 626.127 195.31 628.185C195.073 658.262 195.034 688.342 195.018 718.421C195.017 719.219 195.795 720.018 196.611 720.925C195.983 720.836 194.807 720.864 193.986 720.339C193.603 720.094 193.905 718.776 193.9 717.944C193.722 688.487 193.742 659.026 193.211 629.576C193.096 623.242 195.446 620.175 200.782 617.333C211.15 611.809 221.053 605.411 231.509 599.042C232.145 598.562 232.351 598.352 232.885 598.055C234.742 597.11 236.202 596.187 237.976 595.209C238.695 595.035 239.1 594.917 239.795 594.815C240.673 594.847 241.261 594.863 241.917 595.208C242.03 595.758 242.076 595.977 242.121 596.197Z" fill="#457983"/>
<path d="M365.949 411.134C367.252 411.24 368.755 410.957 369.827 411.51C404.068 429.187 438.245 446.991 472.545 464.552C474.244 465.422 476.969 464.289 479.585 464.42C480.194 466.177 480.435 467.602 480.675 469.026C480.713 469.415 480.75 469.804 480.495 470.347C479.499 470.319 478.795 470.136 477.774 469.781C475.976 468.91 474.462 468.276 473.021 467.505C453.385 456.997 433.813 446.37 414.114 435.98C398.136 427.553 382.01 419.405 365.949 411.134Z" fill="#111F33"/>
<path d="M68.9324 258.894C71.6969 258.263 74.4615 257.632 77.573 257.319C76.9462 258.425 75.9723 259.214 74.9985 260.002C66.8423 264.336 58.4987 268.365 50.647 273.194C48.3648 274.598 46.6074 278.144 46.1428 280.961C44.9648 288.104 44.7433 295.399 43.9277 302.61C43.7578 304.112 42.6777 305.511 41.6162 306.977C41.0737 297.638 40.932 288.28 41.2186 278.427C45.0388 275.163 48.4777 272.448 51.7827 269.578C52.4349 269.012 52.5715 267.852 52.9621 266.975C52.9782 266.985 52.9801 266.947 53.3485 266.961C55.1385 265.981 56.56 264.987 58.3488 263.969C62.1214 262.262 65.5269 260.578 68.9324 258.894Z" fill="#F67213"/>
<path d="M328.657 213.659C328.014 212.652 327.139 211.197 327.134 209.739C327.047 183.853 327.084 157.966 327.033 132.079C327.028 129.694 326.611 127.31 325.991 124.8C326.591 124.249 327.585 123.822 328.83 123.288C328.83 153.562 328.83 183.387 328.657 213.659Z" fill="#F89552"/>
<path d="M480.325 477.655C476 476.337 472.998 479.094 469.721 480.838C448.992 491.872 428.263 502.908 407.186 513.655C406.818 513.162 406.798 512.957 406.999 512.494C408.25 511.695 409.289 511.171 410.306 510.611C430.529 499.479 450.749 488.343 471.298 477.111C473.103 476.015 474.58 475.016 476.328 474.032C476.879 473.823 477.159 473.6 477.547 473.344C477.655 473.313 477.848 473.197 478.157 473.109C479.117 473.79 479.767 474.558 480.417 475.327C480.428 475.998 480.438 476.67 480.325 477.655Z" fill="#111F33"/>
<path d="M69.1093 258.604C65.5272 260.578 62.1217 262.262 58.0094 263.993C55.8618 265.01 54.4211 265.978 52.9804 266.947C52.9804 266.947 52.9786 266.985 52.6099 267.015C48.3703 269.055 44.4993 271.065 40.6284 273.074C41.9668 271.247 42.9053 268.654 44.7066 267.713C59.4832 260 74.4205 252.595 89.6722 245.095C87.4039 247.082 84.8982 249.271 82.111 251.009C77.9398 253.61 73.5708 255.894 69.1093 258.604Z" fill="#F89552"/>
<path d="M404.064 305.352C404.771 305.013 405.531 305.024 406.664 304.973C407.038 304.912 407.031 304.946 407.197 305.248C409.237 306.353 411.11 307.155 412.983 307.958C412.983 307.958 413.023 307.959 413.173 308.244C413.884 308.667 414.446 308.805 415.007 308.944C415.007 308.944 415.021 308.971 415.192 309.258C416.569 310.02 417.775 310.493 418.981 310.967C418.981 310.967 419.018 310.967 419.164 311.25C419.863 311.688 420.417 311.845 420.97 312.001C431.057 317.202 441.144 322.404 451.433 327.854C446.502 326.378 441.098 325.199 436.29 322.817C425.409 317.427 414.822 311.443 404.064 305.352Z" fill="#1A4869"/>
<path d="M42.0412 494.015C42.0031 495.219 41.9651 496.423 41.8632 498.08C41.5358 496.928 41.0418 495.321 41.0425 493.715C41.0567 462.138 41.1283 430.56 41.3068 398.536C41.6348 405.416 41.8442 412.745 42.051 421.009C42.046 445.968 42.0436 469.991 42.0412 494.015Z" fill="#F97832"/>
<path d="M479.876 535.46C479.907 520.893 479.991 506.793 480.291 492.343C480.648 497.287 480.91 502.58 480.911 507.873C480.913 528.786 480.834 549.699 480.608 571.011C480.264 559.583 480.097 547.755 479.876 535.46Z" fill="#457983"/>
<path d="M40.5264 273.421C44.4989 271.065 48.3698 269.055 52.5933 267.006C52.5714 267.852 52.4347 269.012 51.7826 269.578C48.4776 272.448 45.0387 275.163 41.2957 277.963C40.7714 276.585 40.5981 275.176 40.5264 273.421Z" fill="#F97832"/>
<path d="M474.108 339.544C468.175 339.788 463.611 336.46 459.175 332.307C464.01 334.408 468.956 336.835 474.108 339.544Z" fill="#1A4869"/>
<path d="M238.683 168.241C238.7 168.947 238.366 169.673 237.846 170.945C237.109 171.66 236.558 171.829 235.639 172.001C233.841 172.996 232.41 173.989 230.688 175.108C229.018 175.246 227.638 175.259 226.259 175.271C226.259 175.271 226.107 175.11 226.031 175.028C230.081 172.718 234.206 170.49 238.683 168.241Z" fill="#F97832"/>
<path d="M295.971 243.683C294.883 243.704 294.032 243.389 292.893 242.965C293.315 241.791 294.025 240.726 294.895 239.388C297.575 238.118 300.094 237.121 302.993 236.191C300.985 238.62 298.596 240.984 295.971 243.683Z" fill="#F89552"/>
<path d="M41.2768 343.513C41.5453 350.139 41.6977 357.216 41.6473 364.605C41.3499 357.932 41.2554 350.948 41.2768 343.513Z" fill="#F97832"/>
<path d="M232.488 598.077C232.351 598.352 232.145 598.562 231.828 598.757C230.711 598.382 229.638 597.96 228.299 597.221C229.105 595.638 230.177 594.37 231.71 593.298C232.423 594 232.674 594.508 232.934 595.416C232.792 596.571 232.64 597.324 232.488 598.077Z" fill="#F97832"/>
<path d="M480.594 474.982C479.767 474.558 479.117 473.79 478.286 472.712C478.101 471.585 478.096 470.769 478.092 469.953C478.796 470.136 479.499 470.319 480.441 470.636C480.71 472.06 480.74 473.349 480.594 474.982Z" fill="#457983"/>
<path d="M412.81 307.674C411.11 307.155 409.237 306.352 407.213 305.247C408.919 305.759 410.778 306.575 412.81 307.674Z" fill="#3B7077"/>
<path d="M201.331 719.094C202.102 718.372 203.213 717.653 204.674 716.974C203.906 717.71 202.789 718.403 201.331 719.094Z" fill="#317391"/>
<path d="M41.3649 377.324C42.0044 377.744 42.5278 378.545 43.0573 379.675C42.7119 380.026 42.3603 380.049 41.7453 380.064C41.4042 379.272 41.3265 378.489 41.3649 377.324Z" fill="#F97832"/>
<path d="M456.82 330.671C455.775 330.483 454.551 330.025 453.205 329.244C454.27 329.414 455.455 329.908 456.82 330.671Z" fill="#1A4869"/>
<path d="M248.682 163.022C247.932 163.685 246.854 164.361 245.434 165.035C246.18 164.367 247.266 163.701 248.682 163.022Z" fill="#F97832"/>
<path d="M480.793 468.616C480.435 467.602 480.194 466.177 479.938 464.377C479.923 464.002 480.342 463.963 480.553 463.965C480.812 465.38 480.862 466.793 480.793 468.616Z" fill="#1A4869"/>
<path d="M418.806 310.693C417.775 310.493 416.569 310.02 415.208 309.256C416.245 309.45 417.439 309.934 418.806 310.693Z" fill="#3B7077"/>
<path d="M209.255 714.965C209.8 714.34 210.669 713.724 211.864 713.179C211.32 713.826 210.449 714.4 209.255 714.965Z" fill="#317391"/>
<path d="M221.548 594.607C222.174 594.55 222.993 594.737 223.924 595.245C223.271 595.328 222.506 595.089 221.548 594.607Z" fill="#F97832"/>
<path d="M197.31 721.042C197.483 720.669 197.961 720.316 198.749 720.006C198.577 720.387 198.096 720.724 197.31 721.042Z" fill="#317391"/>
<path d="M242.731 166.096C242.591 166.41 242.178 166.72 241.498 167.059C241.639 166.756 242.048 166.425 242.731 166.096Z" fill="#F97832"/>
<path d="M458.843 331.69C458.441 331.792 457.892 331.644 457.204 331.233C457.608 331.127 458.153 331.283 458.843 331.69Z" fill="#1A4869"/>
<path d="M480.602 483.693C480.324 483.45 480.208 482.879 480.262 482.146C480.543 482.444 480.652 482.905 480.602 483.693Z" fill="#457983"/>
<path d="M420.81 311.757C420.417 311.845 419.863 311.688 419.175 311.265C419.577 311.169 420.113 311.341 420.81 311.757Z" fill="#3B7077"/>
<path d="M414.857 308.69C414.446 308.805 413.885 308.667 413.186 308.259C413.601 308.139 414.154 308.287 414.857 308.69Z" fill="#3B7077"/>
<path d="M240.753 167.161C240.612 167.466 240.204 167.754 239.539 168.074C239.683 167.785 240.085 167.465 240.753 167.161Z" fill="#F97832"/>
<path d="M480.834 458.71C480.377 458.778 480 458.638 479.624 458.499C479.856 458.366 480.089 458.234 480.541 458.093C480.761 458.085 480.914 458.502 480.834 458.71Z" fill="#111F33"/>
<path d="M91.715 244.063C91.5637 244.397 91.1253 244.72 90.4014 245.05C90.5531 244.722 90.9905 244.388 91.715 244.063Z" fill="#F89552"/>
<path d="M102.781 238.231C102.636 238.535 102.225 238.811 101.559 239.112C101.708 238.826 102.111 238.515 102.781 238.231Z" fill="#F89552"/>
<path d="M95.6987 242.019C95.5387 242.351 95.087 242.684 94.3389 243.01C94.4973 242.676 94.9522 242.348 95.6987 242.019Z" fill="#F89552"/>
<path d="M244.72 165.078C244.564 165.391 244.126 165.703 243.406 166.029C243.563 165.721 244 165.399 244.72 165.078Z" fill="#F97832"/>
<path d="M98.7386 240.244C98.6268 240.542 98.2698 240.817 97.6816 241.123C97.7981 240.843 98.1457 240.532 98.7386 240.244Z" fill="#F89552"/>
<path d="M92.7746 243.447C92.8732 243.707 92.7019 243.873 92.2794 243.995C92.1322 243.725 92.291 243.525 92.7746 243.447Z" fill="#F89552"/>
<path d="M481.024 346.754C480.763 346.833 480.582 346.676 480.452 346.485C480.42 346.438 480.555 346.278 480.779 346.085C481.004 346.169 481.063 346.337 481.024 346.754Z" fill="#1A4869"/>
<path d="M476.788 341.845C476.572 342.021 476.294 341.873 476.053 341.321C476.252 341.242 476.464 341.442 476.788 341.845Z" fill="#1A4869"/>
<path d="M475.991 340.704C475.653 340.944 475.397 340.802 475.113 340.343C475.352 340.237 475.682 340.335 475.991 340.704Z" fill="#1A4869"/>
<path d="M452.966 328.689C452.734 328.977 452.451 328.894 452.101 328.46C452.328 328.144 452.622 328.214 452.966 328.689Z" fill="#1A4869"/>
<path d="M207.24 716.011C207.216 715.729 207.496 715.453 208.078 715.193C208.101 715.478 207.822 715.748 207.24 716.011Z" fill="#317391"/>
<path d="M205.304 717.03C205.283 716.754 205.559 716.483 206.134 716.234C206.155 716.516 205.878 716.776 205.304 717.03Z" fill="#317391"/>
<path d="M199.32 720.079C199.315 719.802 199.603 719.542 200.187 719.329C200.194 719.616 199.903 719.856 199.32 720.079Z" fill="#317391"/>
<path d="M41.3987 388.277C41.7706 388.234 41.8439 388.473 41.5934 388.86C41.4804 388.947 41.3113 388.5 41.3987 388.277Z" fill="#F97832"/>
<path d="M106.768 236.334C106.87 236.628 106.657 236.822 106.134 236.936C106.016 236.637 106.225 236.43 106.768 236.334Z" fill="#F89552"/>
<path d="M103.74 237.811C103.832 237.909 103.554 238.081 103.473 238.098C103.337 237.89 103.422 237.757 103.74 237.811Z" fill="#F89552"/>
<path d="M100.809 239.262C100.906 239.569 100.669 239.777 100.104 239.902C99.9943 239.591 100.228 239.372 100.809 239.262Z" fill="#F89552"/>
<path d="M289.35 245.428C297.401 249.332 305.502 253.035 313.359 257.199C328.595 265.274 343.641 273.707 358.864 281.806C372.036 288.812 385.344 295.561 398.801 302.703C395.836 302.317 392.55 301.977 389.51 300.926C381.943 298.31 374.487 295.371 366.987 292.562C366.616 293.137 366.246 293.713 365.875 294.288C368.418 296.603 370.716 299.291 373.558 301.148C378.243 304.21 383.047 306.644 386.025 312.032C387.599 314.878 391.533 316.816 394.804 318.238C400.845 320.866 407.299 322.539 413.359 325.129C418.027 327.123 422.649 329.499 426.775 332.432C436.22 339.149 445.377 346.12 456.738 349.645C459.627 350.542 463.003 353.63 463.907 356.435C466.269 363.767 468.209 371.438 468.78 379.089C469.411 387.554 468.385 396.15 467.953 404.682C467.872 406.287 467.438 407.982 466.74 409.429C463.46 416.228 460.187 423.042 456.537 429.644C455.689 431.178 453.374 432.858 451.74 432.852C432.829 432.787 415.957 427.026 401.181 414.885C395.967 410.6 389.722 407.566 383.939 403.976C376.705 399.486 368.119 398.738 360.491 395.648C350.59 391.638 341.513 385.61 332.008 380.589C330.113 379.588 327.902 378.712 325.811 378.651C321.026 378.511 310.21 371.836 308.53 366.752C306.587 360.87 304.648 354.782 304.154 348.667C302.982 334.128 301.878 319.499 302.285 304.949C302.542 295.727 305.175 286.484 307.495 277.443C308.788 272.401 314.082 270.654 318.833 272.986C323.218 275.138 327.388 277.729 331.674 280.088C332.534 280.562 333.479 281.151 334.402 281.183C336.182 281.244 337.975 280.945 339.762 280.796C338.849 279.403 338.258 277.447 336.969 276.711C330.242 272.869 323.257 269.48 316.528 265.641C312.811 263.52 309.428 260.814 305.88 258.395C303.962 257.087 302.093 255.676 300.06 254.573C294.941 251.794 293.405 252.742 292.983 258.674C292.914 259.643 292.626 260.596 291.862 261.508C290.597 256.151 289.908 250.844 289.219 245.537C289.219 245.537 289.288 245.435 289.35 245.428Z" fill="#033B54"/>
<path d="M360.922 411.964C361.108 411.514 361.295 411.064 361.529 410.37C362.783 410.423 363.991 410.718 365.574 411.074C382.01 419.405 398.136 427.553 414.114 435.98C433.813 446.37 453.385 456.997 473.021 467.505C474.462 468.276 475.976 468.91 477.774 469.781C478.096 470.769 478.101 471.585 477.976 472.799C477.847 473.197 477.655 473.313 477.283 473.373C476.627 473.628 476.342 473.823 476.056 474.017C474.58 475.016 473.103 476.015 471.338 476.716C472.659 473.243 472.116 470.429 469.011 468.719C463.641 465.761 458.093 463.127 452.625 460.347C439.174 453.507 425.705 446.701 412.284 439.803C402.158 434.597 392.094 429.269 381.803 423.72C374.71 419.618 367.816 415.791 360.922 411.964Z" fill="#0CA4CB"/>
<path d="M288.985 245.635C289.908 250.844 290.597 256.151 291.543 261.751C291.851 265.391 291.901 268.738 291.952 273.011C291.933 296.29 291.913 318.644 291.893 340.998C291.967 350.686 292.042 360.373 292.112 370.811C292.052 371.751 291.996 371.941 291.94 372.131C290.971 366.999 289.292 361.887 289.157 356.734C288.613 335.931 288.575 315.116 288.29 294.306C288.116 281.654 287.878 269.003 287.559 256.354C287.501 254.049 286.913 251.757 286.488 248.984C286.669 248.029 286.932 247.55 287.195 247.07C287.714 246.625 288.232 246.179 288.985 245.635Z" fill="#3B7077"/>
<path d="M292.289 340.925C291.913 318.644 291.933 296.29 291.976 273.468C292.999 274.833 294.849 276.658 294.867 278.5C295.043 296.196 295.013 313.897 294.769 331.592C294.726 334.688 293.413 337.765 292.289 340.925Z" fill="#033B54"/>
<path d="M292.126 372.415C291.996 371.941 292.052 371.752 292.181 371.274C299.787 373.633 307.46 375.956 314.754 379.143C316.674 379.982 317.423 383.496 318.539 386.166C309.684 381.933 300.998 377.317 292.126 372.415Z" fill="#033B54"/>
<path d="M401.017 303.456C401.865 303.555 402.787 303.986 403.85 304.703C403.025 304.589 402.058 304.188 401.017 303.456Z" fill="#1A4869"/>
<path d="M319.769 387.062C319.551 387.228 319.225 387.106 318.723 386.792C318.919 386.658 319.29 386.717 319.769 387.062Z" fill="#033B54"/>
<path d="M74.9496 260.341C75.9723 259.214 76.9462 258.425 77.9617 257.315C94.3485 248.111 110.692 239.226 127.039 230.346C138.505 224.117 149.967 217.882 161.444 211.673C173.403 205.203 185.318 198.65 197.364 192.347C205.563 188.058 213.954 184.136 222.582 180.347C218.942 184.899 214.896 188.751 208.866 190.329C204.935 191.358 201.372 193.873 197.714 195.851C188.408 200.883 179.133 205.971 169.862 211.068C160.041 216.468 149.412 220.841 140.682 227.647C133.198 233.481 124.636 236.723 116.824 241.564C114.291 243.134 111.557 244.376 108.976 245.874C104.191 248.651 99.5106 251.613 94.6767 254.3C89.3976 257.234 87.0693 263.156 81.1511 265.925C74.0603 269.244 72.6788 274.066 74.7774 278.494C78.793 286.966 89.1439 290.584 97.5327 286.122C100.632 284.473 103.07 281.582 106.166 279.925C111.939 276.836 118.455 274.933 123.776 271.254C130.438 266.648 138.079 266.97 145.245 264.987C148.458 264.098 151.651 263.124 154.818 262.084C157.741 261.125 160.55 259.726 163.53 259.063C167.395 258.202 171.384 257.909 175.311 257.313C180.423 256.536 184.72 250.787 190.665 254.811C191.016 255.048 191.894 254.369 192.539 254.329C202.056 253.736 210.088 249.157 218.267 244.904C220.575 243.704 223.073 242.704 225.602 242.124C233.462 240.32 241.327 238.395 249.296 237.274C252.893 236.768 254.164 235.534 253.612 232.31C254.357 232.164 254.816 231.929 254.984 232.062C259.143 235.347 262.725 233.46 267.49 232.556C281.251 229.945 291.319 220.925 303.163 215.133C304.574 214.443 305.018 211.873 306.039 210.257C306.759 209.119 307.479 207.647 308.576 207.139C313.382 204.914 313.825 203.569 310.513 199.736C308.363 197.247 308.312 194.906 310.519 192.282C312.214 190.267 314.445 187.987 314.719 185.625C315.575 178.23 316.464 170.647 315.662 163.321C315.164 158.775 316.382 153.656 312.192 149.285C307.76 144.661 302.327 144.379 296.989 142.994C300.424 141.032 303.859 139.07 307.877 137.324C313.64 140.693 318.82 143.847 324 147C324 166.37 324 185.74 323.999 205.555C321.945 208.547 320.057 211.251 317.803 213.606C312.917 218.711 308.346 224.332 302.687 228.411C298.279 231.589 292.371 232.64 287.225 234.859C283.426 236.496 279.917 238.874 276.038 240.238C270.614 242.144 264.828 243.04 259.444 245.036C249.377 248.767 239.455 252.899 229.54 257.024C225.411 258.742 221.444 260.851 217.418 262.812C213.018 264.955 208.517 266.471 205.177 270.83C202.99 273.684 198.388 274.675 194.889 276.541C191.107 278.558 187.483 280.937 183.549 282.581C179.015 284.476 174.207 285.711 169.54 287.295C168.139 287.771 166.384 288.093 165.516 289.106C158.134 297.722 146.087 298.734 137.937 306.18C136.057 307.898 132.58 307.742 130.042 308.896C125.613 310.91 121.324 313.238 117.009 315.497C112.502 317.856 108.085 320.392 103.536 322.665C96.3465 326.259 88.4894 328.869 82.0337 333.467C76.9422 337.093 71.9736 337.348 66.6451 336.854C63.1276 336.528 58.8779 336.055 59.7561 330.19C59.9995 328.565 57.3168 326.663 57.151 324.784C56.7586 320.339 57.0866 315.832 57.0926 311.35C57.0959 308.931 57.0006 306.512 57.0107 304.093C57.048 295.099 56.7161 286.075 57.4107 277.13C57.6118 274.541 60.4288 271.776 62.6744 269.807C66.4873 266.465 70.7988 263.692 74.9496 260.341Z" fill="#EE6B17"/>
<path d="M67.999 360.022C85.4729 350.352 102.789 340.383 120.455 331.078C151.252 314.858 182.274 299.066 213.181 283.056C228.22 275.266 243.186 267.334 258.255 259.602C261.095 258.144 264.265 257.328 267.913 256.435C271.945 257.428 272.6 259.25 270.918 262.278C270.08 263.787 269.681 265.539 269.074 267.373C269.066 267.566 269.017 267.948 268.674 268.012C266.573 271.1 264.814 274.124 263.057 277.353C263.059 277.558 263.008 277.965 262.666 278.023C261.571 279.44 260.818 280.798 260.067 282.359C260.068 282.563 260.027 282.969 259.703 283.016C258.254 284.043 257.129 285.024 256.002 286.002C255.999 286 255.992 285.998 255.994 285.623C255.998 284.499 255.999 283.75 256.276 282.799C259.021 278.085 261.576 273.616 263.886 269.023C264.364 268.073 264.38 266.313 263.795 265.557C263.13 264.698 261.494 264.074 260.384 264.207C259 264.373 257.694 265.367 256.402 266.089C244.138 272.946 231.962 279.968 219.6 286.645C210.46 291.582 201.052 296.02 191.817 300.784C178.817 307.489 166.154 314.942 152.799 320.834C142.717 325.282 133.871 331.801 123.171 335.457C110.778 339.692 99.5901 347.431 87.8296 353.555C84.6461 355.213 81.2844 356.528 77.6286 358.005C74.1682 358.68 71.0836 359.351 67.999 360.022Z" fill="#1193BD"/>
<path d="M67.6671 360.058C71.0837 359.351 74.1683 358.68 77.5857 358.366C76.3947 359.808 74.9499 361.032 73.3301 361.947C70.3708 363.618 66.8413 364.77 67.0582 369.103C67.295 373.834 73.023 379.963 78.1616 381.311C78.9987 382.072 79.63 382.612 80.3544 382.956C90.7729 387.903 102.021 391.072 111.303 398.458C116.179 402.338 121.736 405.412 127.179 408.51C130.609 410.462 134.333 411.956 138.038 413.355C144.819 415.917 151.595 418.578 158.565 420.504C160.846 421.135 164.76 420.506 166.133 418.91C170.428 413.917 173.725 408.083 177.673 402.77C182.646 396.077 187.878 389.576 193.157 383.247C193.651 383.708 193.987 383.913 194.324 384.119C188.389 392.569 182.392 400.975 176.54 409.481C171.755 416.438 167.142 423.514 161.854 430.604C158.161 429.277 154.98 428.042 151.983 426.46C136.68 418.38 121.374 410.302 106.165 402.046C90.1531 393.354 74.2435 384.474 58.3054 375.648C55.1372 373.893 55.1197 371.976 57.7752 369.446C59.4648 367.836 60.5316 365.572 61.8776 363.601C63.6968 362.432 65.516 361.263 67.6671 360.058Z" fill="#0392BE"/>
<path d="M61.5253 363.718C60.5314 365.572 59.4647 367.835 57.7751 369.445C55.1195 371.976 55.1371 373.893 58.3052 375.647C74.2433 384.474 90.153 393.354 106.165 402.046C121.374 410.302 136.68 418.38 151.983 426.46C154.98 428.042 158.16 429.276 161.597 430.819C161.487 431.652 161.036 432.339 160.212 433.232C150.204 428.614 140.485 423.947 130.948 418.933C103.623 404.566 76.3668 390.07 49.1132 375.569C47.9247 374.937 47.0291 373.754 46.0176 372.464C51.083 369.345 56.1281 366.591 61.5253 363.718Z" fill="#0F97C9"/>
<path d="M286.794 247.013C286.932 247.55 286.669 248.029 286.318 248.587C284.919 249.451 283.607 250.235 281.618 251.335C279.344 252.196 277.746 252.741 275.975 253.292C275.802 253.297 275.682 253.623 275.529 253.433C275.376 253.243 275.02 252.908 275.02 252.908C277.24 246.441 279.936 245.03 286.794 247.013Z" fill="#F8731E"/>
<path d="M275.682 253.623C275.682 253.623 275.802 253.297 275.948 253.736C275.14 259.255 273.499 263.966 269.083 267.181C269.681 265.539 270.08 263.786 270.918 262.278C272.6 259.249 271.945 257.427 268.302 256.416C268.836 255.835 269.611 255.49 270.962 255.03C271.712 254.615 271.885 254.314 272.059 254.014C272.45 253.958 272.84 253.902 274.001 253.867C275.074 253.8 275.378 253.711 275.682 253.623Z" fill="#0CA4CB"/>
<path d="M275.529 253.433C275.378 253.711 275.074 253.8 274.295 253.897C274.09 253.689 274.359 253.473 274.824 253.082C275.02 252.908 275.376 253.243 275.529 253.433Z" fill="#4FB8DF"/>
<path d="M271.837 254.098C271.885 254.314 271.712 254.615 271.269 254.902C271.128 254.586 271.333 254.351 271.837 254.098Z" fill="#F8731E"/>
<path d="M137.001 544.999C136.507 544.737 136.013 544.475 135.223 543.754C133.671 542.059 132.614 540.458 131.126 539.648C123.557 535.527 115.918 531.526 108.212 527.667C105.267 526.193 102.077 525.209 98.999 524.002C98.2494 524.001 97.4999 524 96.3255 523.658C95.0833 522.531 94.3559 521.614 93.4334 520.981C88.3872 517.52 82.8334 514.635 78.357 510.56C74.5935 507.133 71.0191 504.166 66.0027 502.774C61.3858 501.494 60.4101 497.654 64.1455 494.616C68.8507 490.789 69.0179 485.894 69.1364 480.708C69.2195 477.072 73.6831 473.071 76.3791 474.347C80.2722 476.19 84.0483 478.282 87.8594 480.297C94.644 483.882 101.133 488.272 108.274 490.872C115.724 493.585 123.802 494.565 131.593 496.359C132.317 496.525 133.436 496.988 133.546 497.493C134.385 501.349 137.709 501.126 140.443 502.091C149.689 505.356 160.373 504.366 168.337 511.496C168.794 511.906 169.913 511.497 170.69 511.647C172.63 512.023 174.595 512.364 176.469 512.97C180.093 514.142 183.335 517.527 188.204 514.821C186.622 513.673 185.51 512.866 184.367 512.036C185.641 510.999 186.808 510.049 188.593 508.596C186.716 507.728 185.417 507.403 184.475 506.638C181.604 504.306 176.941 502.123 176.475 499.303C175.408 492.853 170.662 491.48 166.386 488.924C164.626 487.872 163.1 486.407 161.542 485.045C159.577 483.327 157.54 481.651 155.829 479.698C155.028 478.783 155.029 477.21 154.465 476.03C153.861 474.767 153.21 473.426 152.243 472.455C150.35 470.556 146.755 469.114 146.447 467.09C145.15 458.556 139.331 453.549 133.326 448.763C129.597 445.79 125.999 443.4 128.999 438C131.735 438.529 134.468 439.075 137.207 439.584C145.177 441.064 153.149 442.529 161.893 444.145C167.376 446.273 172.198 448.031 176.778 450.282C189.241 456.409 201.6 462.745 214.367 468.998C215.822 469.333 216.911 469.667 218.037 470.354C218.605 471.532 219.179 472.332 219.661 473.185C222.114 477.522 225.893 481.643 226.683 486.27C228.08 494.453 227.962 502.949 227.92 511.312C227.85 524.929 227.296 538.543 227.017 552.159C226.911 557.321 227.453 562.544 226.822 567.63C226.461 570.534 224.332 573.217 222.567 576C215.757 575.333 209.378 574.667 202.603 573.999C195.011 571.451 187.817 568.898 180.619 566.356C177.416 565.225 174.206 564.116 170.999 562.998C170.196 562.747 169.394 562.496 168.25 561.789C166.272 560.555 164.635 559.777 162.999 558.999C162.093 558.526 161.187 558.053 160.091 556.95C153.571 549.911 145.308 547.411 137.001 544.999Z" fill="#E86B19"/>
<path d="M128.75 438C126 443.4 129.598 445.79 133.327 448.762C139.331 453.549 145.15 458.556 146.448 467.09C146.756 469.114 150.35 470.556 152.243 472.455C153.211 473.426 153.861 474.766 154.465 476.03C155.029 477.209 155.028 478.783 155.829 479.698C157.54 481.651 159.577 483.327 161.543 485.045C163.101 486.407 164.626 487.872 166.386 488.924C170.662 491.48 175.408 492.853 176.475 499.303C176.942 502.123 181.605 504.306 184.476 506.638C185.417 507.403 186.717 507.728 188.593 508.596C186.808 510.049 185.641 510.999 184.367 512.036C185.51 512.866 186.622 513.673 188.205 514.821C183.336 517.527 180.094 514.142 176.469 512.97C174.595 512.364 172.63 512.023 170.69 511.647C169.914 511.497 168.795 511.906 168.337 511.496C160.373 504.366 149.689 505.356 140.444 502.091C137.709 501.126 134.385 501.349 133.547 497.493C133.437 496.988 132.318 496.525 131.593 496.358C123.803 494.565 115.724 493.585 108.274 490.872C101.133 488.272 94.6443 483.882 87.8597 480.296C84.0486 478.282 80.2725 476.19 76.3794 474.347C73.6834 473.071 69.2199 477.072 69.1368 480.708C69.0182 485.894 68.851 490.789 64.1458 494.616C60.4104 497.654 61.3861 501.494 66.003 502.774C71.0194 504.166 74.5939 507.133 78.3574 510.559C82.8337 514.635 88.3876 517.52 93.4337 520.981C94.3563 521.614 95.0836 522.531 95.9511 523.656C85.5708 518.719 74.9797 513.733 64.7632 508.071C57.1653 503.861 50.0527 498.775 42.3827 494.047C42.0439 469.991 42.0463 445.968 42.0745 421.477C44.8144 421.146 45.9862 419.884 46.0502 417.142C46.0959 415.186 46.327 413.114 47.0561 411.331C47.7111 409.729 49.1583 407.279 50.2551 407.279C52.4223 407.28 55.7556 408.128 56.5338 409.671C58.7385 414.043 62.5096 414.957 66.503 416.024C68.0731 416.444 69.5565 417.177 71.103 417.698C74.4456 418.822 77.8034 419.902 81.6116 421.346C85.3137 426.785 88.9431 430.65 96.0178 429.135C100.232 428.233 104.618 428.647 107.161 433.441C107.72 434.494 109.601 435.167 110.979 435.409C116.63 436.4 122.323 437.157 128 438C128 438 128.5 438 128.75 438Z" fill="#EB6A15"/>
<path d="M127.961 437.648C122.322 437.157 116.63 436.4 110.978 435.409C109.6 435.167 107.72 434.494 107.161 433.441C104.617 428.648 100.231 428.233 96.0175 429.136C88.9427 430.651 85.3133 426.785 82.0337 421.346C88.9195 420.015 95.2899 420.471 101.712 424.34C104.653 426.111 108.837 426.014 111.198 429.42C111.479 429.825 112.445 430.012 113.028 429.913C119.801 428.77 123.388 433.981 127.961 437.648Z" fill="#E86B19"/>
<path d="M214.001 468.997C201.601 462.745 189.241 456.409 176.779 450.282C172.199 448.031 167.376 446.273 162.332 444.145C162 442.935 162 441.871 161.999 440.407C162.442 440.008 162.885 440.007 163.715 440.352C167.465 442.67 170.756 444.78 174.204 446.589C184.449 451.964 194.818 457.106 205.004 462.589C208.221 464.321 211.014 466.839 214.001 468.997Z" fill="#EE6B17"/>
<path d="M382.003 423.996C392.094 429.269 402.158 434.597 412.284 439.803C425.705 446.701 439.174 453.507 452.625 460.347C458.093 463.127 463.641 465.761 469.011 468.719C472.116 470.429 472.659 473.243 471.01 476.813C450.749 488.343 430.529 499.479 410.306 510.611C409.289 511.171 408.25 511.694 406.625 512.531C405.065 513.07 404.02 513.148 403.152 513.58C390.183 520.025 377.222 526.486 364.317 533.057C363.312 533.568 362.735 534.922 361.96 535.884C361.96 535.884 361.939 535.918 361.698 535.848C361.457 535.779 360.987 535.804 360.594 535.806C358.623 536.292 356.926 536.545 355.488 537.294C334.696 548.13 313.922 558.998 293.215 569.995C291.822 570.735 291.007 572.565 289.922 573.888C289.922 573.888 289.935 573.92 289.664 573.967C289.145 574.262 288.896 574.511 288.647 574.76C288.647 574.76 288.332 574.727 287.802 574.732C286.522 574.787 285.772 574.838 284.716 574.919C283.922 575.275 283.434 575.602 282.975 575.962C283.004 575.995 282.953 575.921 282.648 575.944C281.869 576.306 281.393 576.646 280.699 577.193C279.634 578.219 278.789 579.038 277.944 579.857C277.944 579.857 277.924 579.901 277.509 579.834C274.405 580.552 271.716 581.336 268.708 582.128C267.823 582.712 267.257 583.288 266.345 583.919C264.011 584.697 262.024 585.42 259.692 586.144C258.135 587.053 256.923 587.96 255.343 588.886C253.996 588.985 253.018 589.066 252.056 588.785C254.855 585.653 257.339 582.463 260.499 580.227C263.758 577.921 267.539 576.149 271.332 574.843C278.949 572.221 282.6 565.533 287.385 560C287.877 559.431 287.481 558.132 287.587 557.182C287.721 555.978 287.837 554.748 288.212 553.612C288.302 553.34 289.39 553.399 290.018 553.306C290.156 554.654 290.28 556.004 290.44 557.35C290.494 557.799 290.642 558.238 290.832 559.042C294.158 558.736 297.549 559.09 296.261 553.871C296.076 553.12 297.244 552.014 297.828 551.099C298.86 549.482 300.05 547.953 300.95 546.267C303.112 542.216 305.395 538.149 303.202 533.298C303.067 532.999 303.421 532.18 303.754 532.011C308.264 529.727 310.368 522.408 316.232 525.359C318.302 521.955 319.846 518.895 321.869 516.193C326.441 510.083 331.049 503.976 336.042 498.215C338.785 495.05 342.358 492.61 345.524 489.806C352.593 483.547 356.212 475.023 360.577 466.969C361.982 464.376 364.422 462.281 365.524 459.602C367.168 455.607 370.033 453.986 373.699 452.031C376.651 450.455 377.951 445.792 380.016 442.52C380.17 442.276 380.581 442.186 380.881 442.044C384.416 440.374 387.953 438.708 391.868 436.862C391.01 435.226 390.346 433.302 389.144 431.813C386.931 429.073 384.401 426.587 382.003 423.996Z" fill="#0B90BA"/>
<path d="M290.288 573.878C291.007 572.565 291.822 570.735 293.215 569.995C313.922 558.998 334.696 548.13 355.487 537.294C356.926 536.545 358.623 536.292 360.595 536.079C360.99 536.532 360.99 536.713 360.989 536.894C356.63 539.248 352.288 541.633 347.91 543.951C329.751 553.567 311.583 563.166 293.41 572.752C292.537 573.213 291.574 573.501 290.288 573.878Z" fill="#3B7077"/>
<path d="M362.338 535.923C362.735 534.922 363.312 533.569 364.317 533.057C377.222 526.486 390.183 520.025 403.151 513.58C404.02 513.148 405.065 513.07 406.402 512.79C406.797 512.957 406.818 513.162 406.811 513.673C393.942 520.607 381.111 527.257 368.244 533.835C366.496 534.729 364.564 535.262 362.338 535.923Z" fill="#1A4869"/>
<path d="M252.039 589.147C253.018 589.066 253.996 588.985 255.715 588.906C257.648 587.986 258.842 587.064 260.036 586.142C262.024 585.42 264.011 584.697 266.693 583.936C267.934 583.305 268.481 582.713 269.028 582.121C271.716 581.336 274.405 580.552 277.485 579.83C272.186 583.093 266.597 586.501 260.767 589.428C256.5 591.57 251.916 593.079 246.733 594.841C245.76 594.747 245.527 594.682 245.433 594.363C245.675 593.735 245.78 593.363 246.245 592.99C247.405 592.363 248.205 591.736 249.218 590.981C249.709 590.658 249.917 590.404 250.342 590.068C251.1 589.745 251.57 589.446 252.039 589.147Z" fill="#3B7077"/>
<path d="M285.022 574.889C285.772 574.838 286.522 574.787 287.649 574.773C284.908 576.497 281.789 578.184 278.307 579.864C278.789 579.038 279.634 578.219 281.009 577.174C282.01 576.606 282.481 576.264 282.952 575.922C282.952 575.922 283.004 575.995 283.289 575.96C284.056 575.579 284.539 575.234 285.022 574.889Z" fill="#3B7077"/>
<path d="M242.498 596.159C242.076 595.978 242.03 595.758 241.952 595.216C241.92 594.893 241.983 594.922 242.382 594.937C243.312 594.891 243.842 594.829 244.557 594.714C244.741 594.66 245.124 594.667 245.112 594.901C245.099 595.135 245.083 595.603 245.083 595.603C244.347 595.776 243.61 595.949 242.498 596.159Z" fill="#3B7077"/>
<path d="M245.333 595.672C245.083 595.603 245.099 595.135 245.159 594.908C245.219 594.682 245.295 594.617 245.295 594.617C245.527 594.682 245.76 594.747 246.346 594.876C246.328 595.206 245.956 595.473 245.333 595.672Z" fill="#457983"/>
<path d="M288.933 574.769C288.896 574.511 289.144 574.262 289.658 573.983C289.688 574.228 289.454 574.502 288.933 574.769Z" fill="#3B7077"/>
<path d="M361.219 536.822C360.99 536.713 360.99 536.532 360.989 536.078C360.987 535.805 361.457 535.779 361.679 535.854C361.886 536.279 361.735 536.552 361.219 536.822Z" fill="#1A4869"/>
<path d="M222.999 576C224.332 573.217 226.461 570.534 226.822 567.63C227.453 562.544 226.911 557.322 227.017 552.159C227.296 538.543 227.85 524.929 227.92 511.312C227.962 502.949 228.08 494.453 226.683 486.27C225.893 481.643 222.114 477.522 219.661 473.185C219.179 472.332 218.605 471.532 218.391 470.389C221.656 472.115 224.554 474.234 227.572 476.168C228.838 476.979 230.355 477.398 231.759 477.995C231.864 506.024 231.97 534.054 231.971 562.543C230.916 563.832 229.318 564.539 229.134 565.514C228.494 568.895 228.063 572.37 228.063 575.809C228.065 585.626 224.846 587.763 214.08 585.249C208.314 583.903 203.105 580.104 197.698 577.31C188.908 572.768 180.163 568.141 171.199 563.274C174.206 564.116 177.416 565.225 180.619 566.356C187.817 568.898 195.011 571.451 202.641 574.355C205.784 580.264 211.576 580.429 216.37 581.393C218.795 581.881 223.241 580.802 222.999 576Z" fill="#EE6B17"/>
<path d="M99.0527 524.35C102.077 525.209 105.268 526.192 108.212 527.667C115.919 531.526 123.557 535.527 131.126 539.648C132.614 540.458 133.672 542.059 134.965 543.646C125.675 539.137 116.329 534.311 107.031 529.395C104.32 527.962 101.744 526.271 99.0527 524.35Z" fill="#EB6A15"/>
<path d="M137.161 545.311C145.308 547.411 153.571 549.911 159.949 556.661C152.439 553.209 144.88 549.416 137.161 545.311Z" fill="#EB6A15"/>
<path d="M231.533 579.215C231.93 582.379 232.004 585.747 231.967 589.562C228.562 586.668 229.78 583.05 231.533 579.215Z" fill="#F97832"/>
<path d="M163.149 559.299C164.635 559.777 166.272 560.555 167.956 561.662C166.436 561.194 164.868 560.397 163.149 559.299Z" fill="#EE6B17"/>
<path d="M296.657 143.141C302.327 144.379 307.76 144.661 312.192 149.285C316.382 153.656 315.164 158.775 315.662 163.321C316.464 170.647 315.574 178.23 314.719 185.625C314.445 187.987 312.214 190.267 310.519 192.282C308.312 194.906 308.363 197.247 310.513 199.736C313.825 203.568 313.382 204.914 308.576 207.139C307.479 207.647 306.759 209.119 306.039 210.257C305.018 211.873 304.574 214.442 303.163 215.132C291.319 220.925 281.251 229.945 267.49 232.556C262.725 233.46 259.143 235.347 254.984 232.062C254.816 231.929 254.357 232.164 253.612 232.31C254.164 235.534 252.893 236.767 249.296 237.274C241.327 238.395 233.462 240.32 225.601 242.124C223.073 242.704 220.575 243.703 218.267 244.904C210.087 249.157 202.056 253.736 192.539 254.329C191.894 254.369 191.016 255.048 190.665 254.81C184.72 250.787 180.423 256.536 175.31 257.312C171.384 257.909 167.395 258.201 163.53 259.062C160.55 259.726 157.741 261.125 154.818 262.084C151.651 263.124 148.458 264.098 145.244 264.987C138.078 266.97 130.437 266.648 123.776 271.254C118.455 274.933 111.939 276.835 106.166 279.925C103.07 281.582 100.632 284.473 97.5327 286.121C89.1438 290.584 78.7929 286.966 74.7773 278.493C72.6787 274.066 74.0602 269.244 81.151 265.925C87.0692 263.156 89.3976 257.234 94.6766 254.3C99.5106 251.613 104.191 248.651 108.976 245.874C111.557 244.376 114.291 243.134 116.824 241.564C124.636 236.723 133.197 233.481 140.682 227.647C149.412 220.841 160.041 216.467 169.862 211.068C179.133 205.971 188.408 200.883 197.714 195.851C201.372 193.873 204.935 191.357 208.866 190.329C214.896 188.751 218.942 184.898 222.948 180.303C224.022 178.612 225.054 177.263 226.172 175.592C227.638 175.259 229.017 175.246 231.031 175.084C233.112 173.956 234.559 172.977 236.006 171.997C236.557 171.829 237.109 171.66 237.825 171.247C250.19 165.223 262.394 159.448 274.589 153.657C281.841 150.214 289.08 146.745 296.657 143.141Z" fill="#EA6A19"/>
<path d="M324.25 146.798C318.82 143.846 313.64 140.693 308.227 137.266C308.792 136.426 309.539 135.76 310.398 135.306C321.849 129.254 324.484 130.864 324.298 143.741C324.285 144.692 324.428 145.644 324.25 146.798Z" fill="#F26C14"/>
<path d="M231.847 477.623C230.356 477.398 228.838 476.979 227.572 476.168C224.555 474.234 221.656 472.115 218.355 470.036C216.911 469.667 215.822 469.333 214.367 468.998C211.014 466.839 208.221 464.321 205.004 462.589C194.818 457.106 184.449 451.964 174.204 446.589C170.756 444.78 167.465 442.67 164.048 440.355C164.329 439.282 164.663 438.552 165 437.499C186.147 448.126 207.297 459.065 228.425 470.047C229.581 470.648 230.554 471.602 231.486 472.883C231.503 473.906 231.646 474.439 231.79 474.971C231.838 475.731 231.887 476.491 231.847 477.623Z" fill="#F26C14"/>
<path d="M245.433 594.363C245.295 594.617 245.219 594.682 245.172 594.675C245.124 594.667 244.741 594.659 244.341 594.491C243.288 594.522 242.636 594.722 241.983 594.922C241.983 594.922 241.92 594.893 241.885 594.886C241.262 594.863 240.673 594.847 239.795 594.815C240.959 591.767 242.414 588.736 244.128 585.327C244.387 584.95 244.778 584.919 245.058 585.081C245.566 585.832 245.794 586.421 246.015 587.386C246.392 588.863 246.774 589.963 246.998 591.306C246.522 592.03 246.203 592.51 245.885 592.991C245.78 593.363 245.675 593.736 245.433 594.363Z" fill="#0F97C9"/>
<path d="M232.934 595.416C234.188 595.045 235.451 595.076 237.188 595.185C236.202 596.187 234.742 597.11 232.885 598.055C232.64 597.324 232.792 596.571 232.934 595.416Z" fill="#F9F5F1"/>
<path d="M53.3486 266.961C54.421 265.979 55.8617 265.01 57.6421 264.017C56.5602 264.987 55.1386 265.981 53.3486 266.961Z" fill="#F97832"/>
<path d="M476.328 474.032C476.342 473.823 476.627 473.628 477.175 473.405C477.159 473.6 476.879 473.823 476.328 474.032Z" fill="#457983"/>
<path d="M235.639 172.001C234.559 172.977 233.112 173.956 231.322 174.958C232.41 173.989 233.841 172.996 235.639 172.001Z" fill="#F8731E"/>
<path d="M246.021 587.009C245.794 586.421 245.567 585.832 245.115 584.847C244.891 584.452 244.92 583.972 244.92 583.972C244.92 583.972 244.993 583.976 245.183 583.869C245.662 583.593 245.773 583.345 245.705 583.017C246.465 582.015 247.225 581.013 248.299 579.548C248.745 578.728 248.876 578.371 249.006 578.014C249.006 578.014 249.002 578.002 249.267 577.852C249.743 577.158 249.953 576.615 250.163 576.071C250.163 576.071 250.076 576.062 250.328 576.005C250.686 575.627 250.791 575.306 250.897 574.986C250.897 574.986 251.151 574.821 251.4 574.495C251.796 573.787 251.942 573.406 252.089 573.025C252.413 572.654 252.738 572.283 253.338 571.502C253.75 570.736 253.886 570.38 254.022 570.023C254.022 570.023 254.001 570.001 254.279 569.867C254.77 569.189 254.984 568.646 255.197 568.102C255.197 568.102 255.104 568.079 255.368 568.038C255.75 567.676 255.867 567.354 255.984 567.033C255.984 567.033 256.029 567.016 256.284 566.851C256.74 566.15 256.941 565.615 257.141 565.079C257.141 565.079 257.048 565.019 257.323 564.994C257.715 564.655 257.832 564.341 257.95 564.026C257.95 564.026 258.02 564.007 258.274 563.835C258.72 563.131 258.912 562.598 259.105 562.066C259.105 562.066 258.999 562.005 259.341 561.918C260.152 560.917 260.622 560.003 261.092 559.088C261.092 559.088 261.034 559.075 261.353 558.952C262.14 557.906 262.606 556.982 263.073 556.058C263.073 556.058 262.999 556.008 263.338 555.89C264.784 553.859 265.891 551.946 266.998 550.033C266.998 550.033 267.023 550.016 267.288 549.863C267.777 549.18 268.002 548.649 268.227 548.118C268.227 548.118 268.122 548.092 268.388 548.053C268.783 547.686 268.912 547.358 269.042 547.03C269.042 547.03 269 547.001 269.299 546.875C270.082 545.841 270.566 544.934 271.051 544.027C271.051 544.027 270.998 544.004 271.281 543.877C271.791 543.208 272.019 542.665 272.247 542.122C272.247 542.122 272.126 542.098 272.393 542.056C272.787 541.683 272.913 541.353 273.04 541.022C273.04 541.022 272.997 541.004 273.228 540.93C273.725 540.634 273.832 540.351 273.78 540.008C274.516 538.998 275.251 537.989 276.297 536.524C276.748 535.721 276.888 535.373 277.029 535.026C277.029 535.026 277 535 277.235 534.926C277.735 534.626 277.841 534.341 277.786 533.996C277.786 533.996 278.077 533.768 278.343 533.428C278.74 532.733 278.87 532.379 279.001 532.024C279.001 532.024 279.011 532.008 279.274 531.855C279.76 531.17 279.984 530.638 280.208 530.106C280.208 530.106 280.11 530.085 280.372 530.038C280.75 529.666 280.867 529.34 280.984 529.013C280.984 529.013 281.011 529.004 281.265 528.838C281.774 528.142 282.03 527.613 282.286 527.084C282.86 526.354 283.434 525.624 284.304 524.472C284.735 523.704 284.871 523.359 285.006 523.013C285.006 523.013 285.001 523.001 285.265 522.855C285.76 522.179 285.992 521.649 286.225 521.119C286.225 521.119 286.121 521.096 286.387 521.053C286.778 520.683 286.902 520.356 287.027 520.029C287.027 520.029 287.001 520.003 287.282 519.862C287.823 519.182 288.084 518.642 288.344 518.102C288.906 517.378 289.468 516.654 290.32 515.505C290.745 514.729 290.88 514.379 291.015 514.028C291.015 514.028 291.005 514.006 291.231 513.919C291.718 513.612 291.824 513.334 291.776 512.996C291.776 512.996 292.071 512.775 292.339 512.433C292.737 511.734 292.867 511.378 292.997 511.021C292.997 511.021 293.011 511.007 293.273 510.849C293.796 510.158 294.056 509.626 294.316 509.093C295.833 506.984 297.351 504.875 299.18 502.329C299.613 501.587 299.735 501.281 299.856 500.976C299.856 500.976 299.975 500.954 300.199 500.751C300.656 500.046 300.889 499.544 301.121 499.042C301.725 498.275 302.329 497.509 303.224 496.334C303.634 495.613 303.751 495.3 303.869 494.987C303.869 494.987 304.003 494.951 304.15 494.823C304.511 494.53 304.587 494.315 304.527 494.052C305.315 492.962 306.103 491.871 307.191 490.335C307.611 489.584 307.731 489.278 307.851 488.972C307.851 488.972 307.993 488.942 308.138 488.813C308.496 488.524 308.574 488.315 308.516 488.055C308.648 487.927 308.78 487.798 309.212 487.292C309.636 486.613 309.761 486.312 309.886 486.01C309.886 486.01 310.004 485.982 310.233 485.781C310.679 485.073 310.897 484.565 311.114 484.058C311.114 484.058 311.029 484.02 311.293 483.976C311.68 483.625 311.804 483.319 311.928 483.012C311.928 483.012 312.018 482.992 312.203 482.87C312.63 482.56 312.733 482.314 312.698 482.009C313.751 480.578 314.805 479.148 316.164 477.286C316.747 476.627 316.872 476.334 316.843 475.976C316.843 475.976 316.975 475.951 317.195 475.74C317.645 475.031 317.876 474.533 318.107 474.035C329.559 457.307 341.01 440.578 352.464 423.852C355.094 420.011 357.736 416.178 360.647 412.152C367.816 415.791 374.71 419.618 381.803 423.721C384.401 426.587 386.931 429.073 389.144 431.814C390.346 433.302 391.01 435.226 391.868 436.862C387.953 438.708 384.416 440.374 380.881 442.044C380.581 442.186 380.17 442.276 380.016 442.52C377.951 445.792 376.651 450.455 373.699 452.031C370.033 453.986 367.168 455.608 365.524 459.602C364.422 462.281 361.982 464.376 360.577 466.969C356.212 475.023 352.593 483.547 345.524 489.807C342.358 492.61 338.785 495.05 336.042 498.215C331.049 503.976 326.441 510.083 321.869 516.193C319.846 518.895 318.302 521.955 316.232 525.359C310.368 522.408 308.264 529.727 303.754 532.011C303.421 532.18 303.067 532.999 303.202 533.299C305.395 538.149 303.112 542.216 300.95 546.267C300.05 547.953 298.86 549.482 297.828 551.099C297.244 552.014 296.076 553.12 296.261 553.871C297.549 559.09 294.158 558.736 290.832 559.042C290.642 558.238 290.494 557.8 290.44 557.35C290.28 556.004 290.156 554.654 290.018 553.306C289.39 553.399 288.302 553.34 288.212 553.612C287.837 554.748 287.721 555.978 287.587 557.182C287.481 558.133 287.877 559.432 287.385 560C282.6 565.533 278.949 572.222 271.332 574.843C267.539 576.149 263.758 577.921 260.499 580.227C257.339 582.463 254.855 585.653 252.056 588.786C251.57 589.446 251.1 589.745 250.166 589.796C248.475 588.702 247.248 587.856 246.021 587.009Z" fill="#078EB9"/>
<path d="M256.005 286.004C257.129 285.023 258.254 284.043 259.668 283.381C259.261 285.722 258.564 287.743 257.868 289.765C257.868 289.765 257.889 289.884 257.619 290.02C257.09 290.398 256.985 290.693 257.033 291.043C256.973 291.205 256.913 291.367 256.523 291.812C255.989 292.273 255.891 292.497 255.899 292.767C255.899 292.767 255.914 292.888 255.636 293.018C255.092 293.387 254.982 293.685 255.028 294.041C254.968 294.202 254.909 294.363 254.521 294.827C253.991 295.33 253.903 295.574 253.932 295.858C253.932 295.858 253.96 295.935 253.586 295.99C252.79 297.001 252.368 297.956 251.945 298.911C251.872 299.101 251.8 299.29 251.404 299.793C250.929 300.262 250.86 300.448 250.873 300.665C250.873 300.665 250.854 300.829 250.579 300.971C250.055 301.331 249.943 301.604 249.967 301.933C249.897 302.116 249.828 302.3 249.43 302.793C248.937 303.266 248.859 303.465 248.868 303.697C248.868 303.697 248.873 303.841 248.604 303.989C248.088 304.371 247.977 304.657 248.001 304.996C240.639 315.921 233.277 326.847 225.362 337.841C224.535 337.605 224.26 337.299 224.025 336.64C226.242 332.822 228.4 329.346 230.602 325.897C237.393 315.26 244.2 304.632 251.29 293.86C252.052 292.812 252.524 291.905 253.266 290.81C254.358 289.082 255.181 287.543 256.005 286.004Z" fill="#0CA4CB"/>
<path d="M223.986 336.994C224.26 337.299 224.535 337.605 225.097 338.032C215.214 353.357 205.042 368.56 194.597 383.941C193.987 383.913 193.651 383.708 193.193 382.895C193.718 380.527 194.364 378.766 195.28 376.81C202.834 365.848 210.044 355.031 217.45 344.349C219.305 341.673 221.79 339.434 223.986 336.994Z" fill="#0F97C9"/>
<path d="M269.074 267.373C273.499 263.966 275.14 259.255 276.122 253.73C277.746 252.741 279.344 252.196 281.263 251.576C277.983 257.868 274.424 264.261 270.755 270.589C269.525 272.71 268.014 274.669 266.241 276.778C265.852 276.854 265.63 276.636 265.739 276.302C266.905 273.295 267.961 270.621 269.017 267.948C269.017 267.948 269.066 267.566 269.074 267.373Z" fill="#4FB8DF"/>
<path d="M258.163 289.622C258.564 287.743 259.261 285.722 259.992 283.335C260.027 282.969 260.069 282.563 260.397 282.268C261.486 280.637 262.247 279.301 263.008 277.964C263.008 277.964 263.059 277.558 263.386 277.313C264.352 276.924 264.991 276.78 265.63 276.635C265.63 276.635 265.852 276.854 265.963 276.964C263.535 281.209 260.996 285.345 258.163 289.622Z" fill="#4FB8DF"/>
<path d="M266.654 550.067C265.891 551.946 264.784 553.859 263.376 555.911C264.154 554.067 265.232 552.084 266.654 550.067Z" fill="#F9F5F1"/>
<path d="M252.237 298.792C252.368 297.956 252.79 297.001 253.546 295.993C253.429 296.85 252.979 297.761 252.237 298.792Z" fill="#4FB8DF"/>
<path d="M260.733 559.106C260.622 560.002 260.152 560.917 259.392 561.952C259.526 561.09 259.95 560.107 260.733 559.106Z" fill="#F9F5F1"/>
<path d="M270.748 544.15C270.566 544.934 270.081 545.841 269.318 546.891C269.507 546.114 269.976 545.194 270.748 544.15Z" fill="#F9F5F1"/>
<path d="M262.761 556.17C262.606 556.982 262.139 557.906 261.379 558.95C261.54 558.14 261.995 557.211 262.761 556.17Z" fill="#F9F5F1"/>
<path d="M285.931 521.223C285.992 521.649 285.76 522.179 285.271 522.856C285.222 522.443 285.43 521.885 285.931 521.223Z" fill="#F9F5F1"/>
<path d="M288.035 518.2C288.084 518.642 287.823 519.182 287.298 519.87C287.264 519.445 287.495 518.871 288.035 518.2Z" fill="#F9F5F1"/>
<path d="M281.987 527.188C282.03 527.613 281.774 528.142 281.262 528.824C281.233 528.414 281.461 527.853 281.987 527.188Z" fill="#F9F5F1"/>
<path d="M294.012 509.193C294.056 509.625 293.796 510.158 293.277 510.839C293.248 510.424 293.478 509.859 294.012 509.193Z" fill="#F9F5F1"/>
<path d="M279.918 530.213C279.984 530.638 279.76 531.17 279.278 531.847C279.223 531.435 279.425 530.878 279.918 530.213Z" fill="#F9F5F1"/>
<path d="M300.856 499.161C300.889 499.544 300.656 500.046 300.182 500.693C300.157 500.319 300.374 499.8 300.856 499.161Z" fill="#F9F5F1"/>
<path d="M271.947 542.226C272.019 542.665 271.791 543.208 271.301 543.898C271.242 543.473 271.444 542.902 271.947 542.226Z" fill="#F9F5F1"/>
<path d="M267.933 548.218C268.002 548.649 267.777 549.18 267.291 549.848C267.233 549.43 267.436 548.874 267.933 548.218Z" fill="#F9F5F1"/>
<path d="M258.834 562.189C258.912 562.598 258.72 563.131 258.267 563.799C258.193 563.394 258.378 562.853 258.834 562.189Z" fill="#F9F5F1"/>
<path d="M256.863 565.198C256.941 565.615 256.74 566.15 256.282 566.827C256.21 566.418 256.397 565.868 256.863 565.198Z" fill="#F9F5F1"/>
<path d="M254.907 568.214C254.984 568.645 254.77 569.189 254.293 569.874C254.224 569.452 254.42 568.889 254.907 568.214Z" fill="#F9F5F1"/>
<path d="M249.881 576.195C249.953 576.615 249.743 577.158 249.273 577.852C249.209 577.441 249.404 576.88 249.881 576.195Z" fill="#F9F5F1"/>
<path d="M310.849 484.178C310.897 484.565 310.679 485.073 310.217 485.722C310.177 485.342 310.381 484.82 310.849 484.178Z" fill="#F9F5F1"/>
<path d="M317.847 474.157C317.876 474.533 317.645 475.03 317.175 475.676C317.153 475.308 317.37 474.794 317.847 474.157Z" fill="#F9F5F1"/>
<path d="M231.879 474.652C231.646 474.439 231.503 473.906 231.535 473.213C231.796 473.48 231.883 473.906 231.879 474.652Z" fill="#EA6A19"/>
<path d="M248.757 578.167C248.875 578.371 248.745 578.728 248.364 579.24C248.246 579.036 248.377 578.678 248.757 578.167Z" fill="#F9F5F1"/>
<path d="M250.685 575.118C250.791 575.306 250.685 575.627 250.339 576.047C250.092 575.793 250.217 575.494 250.685 575.118Z" fill="#F9F5F1"/>
<path d="M255.754 567.144C255.867 567.354 255.75 567.676 255.381 568.084C255.26 567.866 255.392 567.561 255.754 567.144Z" fill="#F9F5F1"/>
<path d="M245.535 583.122C245.773 583.345 245.662 583.593 245.169 583.836C245.027 583.64 245.16 583.413 245.535 583.122Z" fill="#F9F5F1"/>
<path d="M244.709 584.09C244.92 583.972 244.891 584.452 244.834 584.686C244.778 584.919 244.387 584.95 244.194 584.986C244.073 584.692 244.238 584.421 244.709 584.09Z" fill="#F9F5F1"/>
<path d="M248.235 304.907C247.977 304.657 248.088 304.371 248.541 304.023C248.655 304.213 248.563 304.516 248.235 304.907Z" fill="#4FB8DF"/>
<path d="M249.064 303.667C248.859 303.465 248.937 303.266 249.242 303.02C249.57 303.211 249.529 303.444 249.064 303.667Z" fill="#4FB8DF"/>
<path d="M250.196 301.856C249.943 301.604 250.055 301.331 250.507 301.012C250.806 301.263 250.711 301.553 250.196 301.856Z" fill="#4FB8DF"/>
<path d="M251.063 300.642C250.86 300.448 250.929 300.262 251.209 300.027C251.545 300.201 251.517 300.425 251.063 300.642Z" fill="#4FB8DF"/>
<path d="M254.151 295.805C253.903 295.574 253.991 295.33 254.368 295.034C254.711 295.258 254.653 295.529 254.151 295.805Z" fill="#4FB8DF"/>
<path d="M255.27 293.953C254.982 293.685 255.092 293.387 255.578 293.038C255.703 293.241 255.608 293.554 255.27 293.953Z" fill="#4FB8DF"/>
<path d="M256.111 292.732C255.891 292.497 255.989 292.273 256.362 292.015C256.673 292.247 256.603 292.501 256.111 292.732Z" fill="#4FB8DF"/>
<path d="M257.271 290.951C256.985 290.693 257.09 290.398 257.563 290.045C257.688 290.241 257.598 290.55 257.271 290.951Z" fill="#4FB8DF"/>
<path d="M276.777 535.168C276.888 535.373 276.748 535.721 276.359 536.217C276.248 536.014 276.387 535.663 276.777 535.168Z" fill="#F9F5F1"/>
<path d="M299.649 501.11C299.734 501.281 299.613 501.587 299.265 502.01C299.062 501.783 299.196 501.488 299.649 501.11Z" fill="#F9F5F1"/>
<path d="M304.395 494.149C304.587 494.315 304.511 494.53 304.129 494.757C304.007 494.599 304.108 494.408 304.395 494.149Z" fill="#F9F5F1"/>
<path d="M292.748 511.174C292.867 511.378 292.737 511.734 292.36 512.25C292.242 512.048 292.37 511.688 292.748 511.174Z" fill="#F9F5F1"/>
<path d="M291.59 513.115C291.824 513.334 291.718 513.612 291.243 513.92C291.055 513.701 291.181 513.443 291.59 513.115Z" fill="#F9F5F1"/>
<path d="M290.765 514.174C290.88 514.379 290.745 514.729 290.361 515.229C290.246 515.025 290.38 514.672 290.765 514.174Z" fill="#F9F5F1"/>
<path d="M307.646 489.108C307.731 489.278 307.611 489.584 307.266 490.008C307.063 489.781 307.196 489.488 307.646 489.108Z" fill="#F9F5F1"/>
<path d="M286.79 520.145C286.902 520.356 286.778 520.683 286.4 521.105C286.282 520.886 286.418 520.573 286.79 520.145Z" fill="#F9F5F1"/>
<path d="M308.386 488.15C308.574 488.315 308.496 488.524 308.118 488.743C308.003 488.589 308.105 488.403 308.386 488.15Z" fill="#F9F5F1"/>
<path d="M284.762 523.158C284.871 523.359 284.735 523.704 284.352 524.192C284.241 523.991 284.379 523.647 284.762 523.158Z" fill="#F9F5F1"/>
<path d="M309.672 486.133C309.761 486.311 309.636 486.613 309.283 487.024C309.069 486.786 309.203 486.493 309.672 486.133Z" fill="#F9F5F1"/>
<path d="M280.756 529.134C280.867 529.339 280.75 529.665 280.383 530.087C280.264 529.874 280.396 529.565 280.756 529.134Z" fill="#F9F5F1"/>
<path d="M311.711 483.127C311.804 483.319 311.68 483.625 311.313 484.017C311.092 483.757 311.234 483.47 311.711 483.127Z" fill="#F9F5F1"/>
<path d="M278.752 532.175C278.87 532.379 278.74 532.733 278.361 533.244C278.243 533.042 278.373 532.684 278.752 532.175Z" fill="#F9F5F1"/>
<path d="M277.598 534.117C277.841 534.341 277.735 534.626 277.249 534.939C277.055 534.714 277.182 534.451 277.598 534.117Z" fill="#F9F5F1"/>
<path d="M273.592 540.129C273.832 540.351 273.725 540.633 273.243 540.948C273.054 540.73 273.18 540.466 273.592 540.129Z" fill="#F9F5F1"/>
<path d="M272.8 541.141C272.913 541.353 272.787 541.683 272.406 542.116C272.288 541.899 272.424 541.58 272.8 541.141Z" fill="#F9F5F1"/>
<path d="M312.531 482.114C312.733 482.314 312.63 482.56 312.194 482.824C312.04 482.629 312.161 482.402 312.531 482.114Z" fill="#F9F5F1"/>
<path d="M316.641 476.104C316.871 476.334 316.747 476.627 316.248 476.965C316.059 476.743 316.197 476.462 316.641 476.104Z" fill="#F9F5F1"/>
<path d="M268.801 547.143C268.912 547.358 268.783 547.685 268.398 548.106C268.282 547.885 268.421 547.57 268.801 547.143Z" fill="#F9F5F1"/>
<path d="M257.726 564.134C257.832 564.34 257.714 564.655 257.347 565.044C257.098 564.764 257.233 564.472 257.726 564.134Z" fill="#F9F5F1"/>
<path d="M303.658 495.122C303.751 495.3 303.634 495.613 303.284 496.042C303.184 495.858 303.315 495.558 303.658 495.122Z" fill="#F9F5F1"/>
<path d="M253.768 570.173C253.886 570.38 253.75 570.736 253.364 571.248C253.248 571.044 253.382 570.684 253.768 570.173Z" fill="#F9F5F1"/>
<path d="M251.817 573.187C251.942 573.406 251.795 573.787 251.388 574.344C251.266 574.129 251.406 573.739 251.817 573.187Z" fill="#F9F5F1"/>
<path d="M224.025 336.639C221.79 339.433 219.305 341.673 217.45 344.349C210.044 355.03 202.834 365.848 195.008 376.58C195.242 373.845 195.213 370.335 196.954 368.605C201.202 364.38 202.565 359.643 202.109 353.78C202.416 353.288 202.677 353.101 203.414 353C206.394 351.916 210.225 351.545 211.306 349.626C215.976 341.331 219.842 332.583 224.35 324.033C227.494 325.639 229.355 323.926 230.33 321.819C231.338 319.639 231.852 317.068 231.923 314.649C232.068 309.654 233.439 305.902 238.97 304.811C241.543 304.303 242.321 302.745 241.618 299.99C241.117 298.028 241.55 295.804 241.697 293.706C241.839 291.671 242.148 289.647 242.383 287.618C239.96 287.574 237.231 286.778 235.167 287.617C226.2 291.266 217.426 295.39 208.587 299.352C208.292 299.485 207.86 299.693 207.81 299.932C206.828 304.673 202.41 304.881 199.107 306.384C192.798 309.255 186.312 311.737 179.988 314.576C174.253 317.151 168.529 319.79 163.003 322.776C159.263 324.797 156.114 328.014 152.265 329.701C147.99 331.575 142.801 331.706 141.429 337.514C141.346 337.864 140.676 338.2 140.22 338.319C134.147 339.903 128.123 341.769 121.963 342.891C117.528 343.699 114.394 344.265 110.853 348.615C106.066 354.497 98.1336 358.046 91.1251 361.802C87.312 363.846 82.5658 364.082 78.3386 365.439C74.5498 366.655 73.7341 371.935 76.7815 374.719C77.7446 375.599 78.9209 376.245 79.8587 377.294C79.1449 378.725 78.5721 379.862 77.9993 380.998C73.0232 379.963 67.2951 373.834 67.0584 369.103C66.8415 364.77 70.371 363.618 73.3302 361.947C74.95 361.032 76.3948 359.808 77.9616 358.361C81.2847 356.528 84.6464 355.212 87.8299 353.555C99.5903 347.431 110.778 339.692 123.171 335.457C133.871 331.801 142.717 325.282 152.799 320.834C166.154 314.942 178.817 307.488 191.817 300.784C201.053 296.02 210.461 291.582 219.601 286.645C231.962 279.968 244.138 272.946 256.402 266.089C257.694 265.366 259 264.373 260.384 264.207C261.495 264.074 263.131 264.697 263.795 265.556C264.38 266.313 264.364 268.073 263.886 269.023C261.576 273.616 259.021 278.085 256.002 282.561C254.967 279.818 253.215 276.941 250.828 278.442C249.347 279.374 249.948 283.615 249.594 286.54C252.419 286.3 254.205 286.149 255.992 285.998C255.992 285.998 255.999 286 256.002 286.002C255.181 287.543 254.358 289.082 252.922 290.863C251.873 292.071 251.437 293.036 251.001 294.001C244.2 304.632 237.393 315.259 230.602 325.897C228.4 329.346 226.242 332.822 224.025 336.639Z" fill="#0B90BA"/>
<path d="M255.995 285.623C254.205 286.149 252.419 286.3 249.594 286.54C249.948 283.615 249.347 279.374 250.828 278.442C253.215 276.941 254.967 279.818 255.726 282.763C255.999 283.75 255.998 284.499 255.995 285.623Z" fill="#0B8FB8"/>
<path d="M265.739 276.302C264.991 276.78 264.352 276.924 263.384 277.108C264.814 274.124 266.573 271.1 268.674 268.011C267.961 270.621 266.905 273.295 265.739 276.302Z" fill="#0CA4CB"/>
<path d="M262.666 278.023C262.247 279.301 261.486 280.637 260.396 282.064C260.818 280.797 261.571 279.44 262.666 278.023Z" fill="#0CA4CB"/>
<path d="M202.001 354C202.565 359.643 201.202 364.38 196.953 368.605C195.213 370.336 195.241 373.845 194.737 376.775C194.364 378.766 193.718 380.527 193.035 382.641C187.878 389.576 182.646 396.077 177.673 402.77C173.725 408.083 170.428 413.917 166.133 418.91C164.76 420.506 160.846 421.135 158.565 420.504C151.595 418.578 144.819 415.917 138.038 413.355C134.333 411.956 130.609 410.462 127.179 408.51C121.736 405.412 116.179 402.338 111.303 398.458C102.021 391.072 90.7729 387.903 80.3544 382.956C79.63 382.612 78.9987 382.072 78.1616 381.311C78.5719 379.862 79.1448 378.725 80.2914 377.294C85.4559 377.48 90.7799 376.64 94.4911 378.703C103.346 383.623 111.731 389.542 119.725 395.799C124.093 399.218 128.773 401.064 133.819 400.847C145.963 400.323 157.696 397.382 168.372 391.471C171.128 389.946 173.555 386.69 174.737 383.681C177.662 376.236 178.73 368.47 184.829 361.931C189.974 356.414 195.579 355.095 202.001 354Z" fill="#078FB7"/>
<path d="M222.567 576C223.241 580.802 218.795 581.881 216.37 581.393C211.576 580.429 205.784 580.264 203.038 574.356C209.379 574.667 215.757 575.333 222.567 576Z" fill="#EB6A15"/>
<path d="M259.692 586.144C258.842 587.064 257.648 587.986 256.083 588.888C256.923 587.96 258.135 587.053 259.692 586.144Z" fill="#457983"/>
<path d="M268.708 582.128C268.481 582.713 267.934 583.305 267.039 583.881C267.257 583.288 267.823 582.712 268.708 582.128Z" fill="#457983"/>
<path d="M284.715 574.919C284.539 575.234 284.056 575.579 283.26 575.927C283.434 575.602 283.921 575.275 284.715 574.919Z" fill="#457983"/>
<path d="M282.648 575.944C282.482 576.264 282.01 576.606 281.229 576.967C281.393 576.646 281.869 576.306 282.648 575.944Z" fill="#457983"/>
<path d="M246.015 587.386C247.248 587.856 248.475 588.702 249.877 589.82C249.917 590.404 249.709 590.658 248.909 590.959C247.977 591.065 247.567 591.064 247.156 591.062C246.774 589.962 246.392 588.863 246.015 587.386Z" fill="#0B90BA"/>
<path d="M246.998 591.306C247.567 591.064 247.977 591.065 248.697 591.088C248.205 591.736 247.405 592.363 246.245 592.99C246.203 592.51 246.522 592.03 246.998 591.306Z" fill="#457983"/>
<path d="M242.382 594.937C242.636 594.722 243.288 594.522 244.157 594.545C243.842 594.829 243.312 594.891 242.382 594.937Z" fill="#457983"/>
<path d="M251.29 293.86C251.437 293.036 251.873 292.071 252.653 291.052C252.524 291.905 252.052 292.812 251.29 293.86Z" fill="#1193BD"/>
<path d="M202.109 353.78C195.579 355.094 189.974 356.414 184.829 361.931C178.73 368.47 177.663 376.236 174.737 383.681C173.555 386.69 171.128 389.945 168.372 391.471C157.696 397.381 145.963 400.323 133.82 400.847C128.773 401.064 124.093 399.218 119.725 395.799C111.731 389.542 103.346 383.623 94.4913 378.702C90.7802 376.64 85.4562 377.48 80.4326 377C78.921 376.246 77.7447 375.599 76.7816 374.719C73.7342 371.935 74.5499 366.655 78.3387 365.439C82.5659 364.082 87.3121 363.846 91.1252 361.802C98.1337 358.046 106.067 354.497 110.853 348.615C114.394 344.265 117.528 343.699 121.963 342.891C128.123 341.769 134.148 339.903 140.221 338.319C140.676 338.201 141.347 337.864 141.429 337.514C142.801 331.706 147.99 331.575 152.265 329.701C156.114 328.014 159.263 324.797 163.003 322.776C168.529 319.79 174.253 317.151 179.988 314.576C186.313 311.737 192.798 309.256 199.107 306.384C202.41 304.881 206.828 304.673 207.81 299.932C207.86 299.693 208.292 299.485 208.587 299.353C217.426 295.39 226.2 291.266 235.168 287.617C237.231 286.778 239.96 287.575 242.383 287.618C242.148 289.647 241.839 291.671 241.697 293.707C241.55 295.804 241.117 298.028 241.618 299.99C242.321 302.745 241.543 304.304 238.97 304.811C233.439 305.902 232.068 309.654 231.923 314.649C231.852 317.068 231.338 319.639 230.33 321.819C229.355 323.926 227.494 325.639 223.966 324.034C222.019 324.62 220.746 325.146 219.602 325.876C216.994 327.541 214.355 329.183 211.907 331.065C209.554 332.873 206.201 334.594 205.452 337.021C203.882 342.115 203.732 347.648 203 353C202.677 353.101 202.416 353.288 202.109 353.78Z" fill="#0B8FB8"/>
<path d="M203.414 353C203.732 347.648 203.881 342.115 205.452 337.021C206.2 334.594 209.554 332.873 211.906 331.065C214.355 329.182 216.994 327.541 219.602 325.876C220.745 325.146 222.019 324.62 223.617 324.001C219.842 332.583 215.976 341.331 211.306 349.626C210.225 351.545 206.394 351.917 203.414 353Z" fill="#078FB7"/>
<path d="M4.98 58V16H24.06C28.62 16 32.64 16.88 36.12 18.64C39.6 20.36 42.32 22.78 44.28 25.9C46.24 29.02 47.22 32.72 47.22 37C47.22 41.24 46.24 44.94 44.28 48.1C42.32 51.22 39.6 53.66 36.12 55.42C32.64 57.14 28.62 58 24.06 58H4.98ZM14.7 50.02H23.58C26.38 50.02 28.8 49.5 30.84 48.46C32.92 47.38 34.52 45.86 35.64 43.9C36.8 41.94 37.38 39.64 37.38 37C37.38 34.32 36.8 32.02 35.64 30.1C34.52 28.14 32.92 26.64 30.84 25.6C28.8 24.52 26.38 23.98 23.58 23.98H14.7V50.02ZM53.8903 58V25.72H63.2503V58H53.8903ZM58.5703 21.22C56.8503 21.22 55.4503 20.72 54.3703 19.72C53.2903 18.72 52.7503 17.48 52.7503 16C52.7503 14.52 53.2903 13.28 54.3703 12.28C55.4503 11.28 56.8503 10.78 58.5703 10.78C60.2903 10.78 61.6903 11.26 62.7703 12.22C63.8503 13.14 64.3903 14.34 64.3903 15.82C64.3903 17.38 63.8503 18.68 62.7703 19.72C61.7303 20.72 60.3303 21.22 58.5703 21.22ZM87.1172 70.12C84.0772 70.12 81.1372 69.74 78.2972 68.98C75.4972 68.26 73.1572 67.16 71.2772 65.68L74.9972 58.96C76.3572 60.08 78.0772 60.96 80.1572 61.6C82.2772 62.28 84.3572 62.62 86.3972 62.62C89.7172 62.62 92.1172 61.88 93.5972 60.4C95.1172 58.92 95.8772 56.72 95.8772 53.8V48.94L96.4772 40.84L96.3572 32.68V25.72H105.237V52.6C105.237 58.6 103.677 63.02 100.557 65.86C97.4372 68.7 92.9572 70.12 87.1172 70.12ZM85.6772 56.44C82.6772 56.44 79.9572 55.8 77.5172 54.52C75.1172 53.2 73.1772 51.38 71.6972 49.06C70.2572 46.7 69.5372 43.96 69.5372 40.84C69.5372 37.68 70.2572 34.94 71.6972 32.62C73.1772 30.26 75.1172 28.44 77.5172 27.16C79.9572 25.88 82.6772 25.24 85.6772 25.24C88.3972 25.24 90.7972 25.8 92.8772 26.92C94.9572 28 96.5772 29.7 97.7372 32.02C98.8972 34.3 99.4772 37.24 99.4772 40.84C99.4772 44.4 98.8972 47.34 97.7372 49.66C96.5772 51.94 94.9572 53.64 92.8772 54.76C90.7972 55.88 88.3972 56.44 85.6772 56.44ZM87.5372 48.76C89.1772 48.76 90.6372 48.44 91.9172 47.8C93.1972 47.12 94.1972 46.18 94.9172 44.98C95.6372 43.78 95.9972 42.4 95.9972 40.84C95.9972 39.24 95.6372 37.86 94.9172 36.7C94.1972 35.5 93.1972 34.58 91.9172 33.94C90.6372 33.26 89.1772 32.92 87.5372 32.92C85.8972 32.92 84.4372 33.26 83.1572 33.94C81.8772 34.58 80.8572 35.5 80.0972 36.7C79.3772 37.86 79.0172 39.24 79.0172 40.84C79.0172 42.4 79.3772 43.78 80.0972 44.98C80.8572 46.18 81.8772 47.12 83.1572 47.8C84.4372 48.44 85.8972 48.76 87.5372 48.76ZM113.949 58V25.72H123.309V58H113.949ZM118.629 21.22C116.909 21.22 115.509 20.72 114.429 19.72C113.349 18.72 112.809 17.48 112.809 16C112.809 14.52 113.349 13.28 114.429 12.28C115.509 11.28 116.909 10.78 118.629 10.78C120.349 10.78 121.749 11.26 122.829 12.22C123.909 13.14 124.449 14.34 124.449 15.82C124.449 17.38 123.909 18.68 122.829 19.72C121.789 20.72 120.389 21.22 118.629 21.22ZM145.196 58.48C141.396 58.48 138.436 57.52 136.316 55.6C134.196 53.64 133.136 50.74 133.136 46.9V18.58H142.496V46.78C142.496 48.14 142.856 49.2 143.576 49.96C144.296 50.68 145.276 51.04 146.516 51.04C147.996 51.04 149.256 50.64 150.296 49.84L152.816 56.44C151.856 57.12 150.696 57.64 149.336 58C148.016 58.32 146.636 58.48 145.196 58.48ZM128.156 33.64V26.44H150.536V33.64H128.156ZM177.87 58V51.7L177.27 50.32V39.04C177.27 37.04 176.65 35.48 175.41 34.36C174.21 33.24 172.35 32.68 169.83 32.68C168.11 32.68 166.41 32.96 164.73 33.52C163.09 34.04 161.69 34.76 160.53 35.68L157.17 29.14C158.93 27.9 161.05 26.94 163.53 26.26C166.01 25.58 168.53 25.24 171.09 25.24C176.01 25.24 179.83 26.4 182.55 28.72C185.27 31.04 186.63 34.66 186.63 39.58V58H177.87ZM168.03 58.48C165.51 58.48 163.35 58.06 161.55 57.22C159.75 56.34 158.37 55.16 157.41 53.68C156.45 52.2 155.97 50.54 155.97 48.7C155.97 46.78 156.43 45.1 157.35 43.66C158.31 42.22 159.81 41.1 161.85 40.3C163.89 39.46 166.55 39.04 169.83 39.04H178.41V44.5H170.85C168.65 44.5 167.13 44.86 166.29 45.58C165.49 46.3 165.09 47.2 165.09 48.28C165.09 49.48 165.55 50.44 166.47 51.16C167.43 51.84 168.73 52.18 170.37 52.18C171.93 52.18 173.33 51.82 174.57 51.1C175.81 50.34 176.71 49.24 177.27 47.8L178.71 52.12C178.03 54.2 176.79 55.78 174.99 56.86C173.19 57.94 170.87 58.48 168.03 58.48ZM195.101 58V13.48H204.461V58H195.101ZM230.8 58V16H238.84L263.62 46.24H259.72V16H269.32V58H261.34L236.5 27.76H240.4V58H230.8ZM294.617 58.48C290.937 58.48 287.697 57.76 284.897 56.32C282.137 54.88 279.997 52.92 278.477 50.44C276.957 47.92 276.197 45.06 276.197 41.86C276.197 38.62 276.937 35.76 278.417 33.28C279.937 30.76 281.997 28.8 284.597 27.4C287.197 25.96 290.137 25.24 293.417 25.24C296.577 25.24 299.417 25.92 301.937 27.28C304.497 28.6 306.517 30.52 307.997 33.04C309.477 35.52 310.217 38.5 310.217 41.98C310.217 42.34 310.197 42.76 310.157 43.24C310.117 43.68 310.077 44.1 310.037 44.5H283.817V39.04H305.117L301.517 40.66C301.517 38.98 301.177 37.52 300.497 36.28C299.817 35.04 298.877 34.08 297.677 33.4C296.477 32.68 295.077 32.32 293.477 32.32C291.877 32.32 290.457 32.68 289.217 33.4C288.017 34.08 287.077 35.06 286.397 36.34C285.717 37.58 285.377 39.06 285.377 40.78V42.22C285.377 43.98 285.757 45.54 286.517 46.9C287.317 48.22 288.417 49.24 289.817 49.96C291.257 50.64 292.937 50.98 294.857 50.98C296.577 50.98 298.077 50.72 299.357 50.2C300.677 49.68 301.877 48.9 302.957 47.86L307.937 53.26C306.457 54.94 304.597 56.24 302.357 57.16C300.117 58.04 297.537 58.48 294.617 58.48ZM311.49 58L325.95 39.04L325.77 44.2L311.91 25.72H322.41L331.17 37.78L327.21 37.9L336.27 25.72H346.23L332.31 44.02V38.98L346.71 58H336.09L326.91 45.16L330.81 45.7L321.69 58H311.49ZM364.288 58.48C361.608 58.48 359.208 57.96 357.088 56.92C355.008 55.88 353.388 54.3 352.228 52.18C351.068 50.02 350.488 47.28 350.488 43.96V25.72H359.848V42.58C359.848 45.26 360.408 47.24 361.528 48.52C362.688 49.76 364.308 50.38 366.388 50.38C367.828 50.38 369.108 50.08 370.228 49.48C371.348 48.84 372.228 47.88 372.868 46.6C373.508 45.28 373.828 43.64 373.828 41.68V25.72H383.188V58H374.308V49.12L375.928 51.7C374.848 53.94 373.248 55.64 371.128 56.8C369.048 57.92 366.768 58.48 364.288 58.48ZM402.719 58.48C399.959 58.48 397.299 58.16 394.739 57.52C392.219 56.84 390.219 56 388.739 55L391.859 48.28C393.339 49.2 395.079 49.96 397.079 50.56C399.119 51.12 401.119 51.4 403.079 51.4C405.239 51.4 406.759 51.14 407.639 50.62C408.559 50.1 409.019 49.38 409.019 48.46C409.019 47.7 408.659 47.14 407.939 46.78C407.259 46.38 406.339 46.08 405.179 45.88C404.019 45.68 402.739 45.48 401.339 45.28C399.979 45.08 398.599 44.82 397.199 44.5C395.799 44.14 394.519 43.62 393.359 42.94C392.199 42.26 391.259 41.34 390.539 40.18C389.859 39.02 389.519 37.52 389.519 35.68C389.519 33.64 390.099 31.84 391.259 30.28C392.459 28.72 394.179 27.5 396.419 26.62C398.659 25.7 401.339 25.24 404.459 25.24C406.659 25.24 408.899 25.48 411.179 25.96C413.459 26.44 415.359 27.14 416.879 28.06L413.759 34.72C412.199 33.8 410.619 33.18 409.019 32.86C407.459 32.5 405.939 32.32 404.459 32.32C402.379 32.32 400.859 32.6 399.899 33.16C398.939 33.72 398.459 34.44 398.459 35.32C398.459 36.12 398.799 36.72 399.479 37.12C400.199 37.52 401.139 37.84 402.299 38.08C403.459 38.32 404.719 38.54 406.079 38.74C407.479 38.9 408.879 39.16 410.279 39.52C411.679 39.88 412.939 40.4 414.059 41.08C415.219 41.72 416.159 42.62 416.879 43.78C417.599 44.9 417.959 46.38 417.959 48.22C417.959 50.22 417.359 52 416.159 53.56C414.959 55.08 413.219 56.28 410.939 57.16C408.699 58.04 405.959 58.48 402.719 58.48ZM435.866 58L454.586 16H464.186L482.966 58H472.766L457.406 20.92H461.246L445.826 58H435.866ZM445.226 49L447.806 41.62H469.406L472.046 49H445.226ZM487.324 58V16H497.044V58H487.324Z" fill="#343A40"/>
</svg>
