<svg width="2684" height="2889" viewBox="0 0 2684 2889" fill="none" xmlns="http://www.w3.org/2000/svg">
<path d="M1537.96 2811.98C1539.78 2823.65 1541.43 2833.51 1542.81 2843.42C1544.31 2854.17 1543.25 2864.78 1539.34 2874.9C1533.54 2889.91 1518.73 2893.44 1507.63 2881.96C1503.17 2877.35 1499.23 2871.15 1497.72 2865.02C1494.89 2853.47 1492.83 2841.48 1492.52 2829.61C1491.79 2801.63 1492.7 2773.61 1492.12 2745.63C1491.8 2730.36 1490.52 2715.02 1488.32 2699.91C1485.82 2682.71 1484.16 2665.56 1484.13 2648.17C1484.04 2603.52 1483.58 2558.88 1483.28 2514.23C1483.16 2495.71 1478.92 2478.35 1466.88 2463.92C1456.9 2451.96 1455.08 2439.15 1459.36 2424.65C1460.85 2419.6 1461.81 2414.17 1461.75 2408.93C1461.49 2387.62 1460.55 2366.31 1460.24 2344.99C1460.05 2331.26 1454.7 2320.34 1443.4 2312.76C1439.7 2310.28 1434.97 2308.54 1430.55 2308.07C1421.63 2307.14 1415.24 2314.05 1416.22 2323.02C1416.95 2329.62 1418.97 2336.1 1419.39 2342.7C1420.15 2354.5 1414.83 2363.27 1404.24 2368.62C1393.15 2374.22 1382.11 2372.57 1372.92 2363.84C1364.15 2355.52 1360.02 2345.32 1361.7 2333.2C1362.34 2328.59 1363.95 2324.13 1364.64 2319.53C1365.93 2310.9 1361.69 2305.22 1353.26 2303.88C1344.6 2302.51 1337.28 2304.87 1332.53 2312.55C1330.09 2316.49 1328.18 2320.81 1326.43 2325.12C1308.32 2369.58 1280.92 2408.01 1248.58 2442.95C1239.2 2453.09 1227.88 2461.94 1216.16 2469.33C1196.81 2481.54 1175.12 2484.51 1152.63 2480.09C1142.17 2478.03 1131.88 2475.04 1121.38 2473.28C1111.43 2471.62 1106.55 2475.76 1105.01 2485.96C1104.52 2489.24 1104.34 2492.61 1104.38 2495.93C1104.71 2524.56 1102.94 2553.21 1107.03 2581.79C1108.52 2592.22 1107.88 2603.09 1106.99 2613.66C1106.58 2618.64 1103.88 2623.76 1101.11 2628.13C1098.21 2632.71 1089.52 2631.82 1087.73 2626.75C1085.77 2621.22 1084.93 2615.21 1084.21 2609.34C1078.77 2564.86 1079.63 2520.14 1080.8 2475.54C1081.55 2446.68 1077.07 2420.48 1061.32 2395.67C1047.79 2374.33 1036.84 2351.35 1024.9 2329.02C1020.43 2320.66 1014.8 2313.79 1006.86 2308.16C994.141 2299.16 985.049 2286.87 979.879 2271.95C979.007 2269.44 978.307 2266.83 977.118 2264.47C973.751 2257.78 967.945 2255 960.483 2256.81C955.341 2258.06 950.416 2260.18 945.291 2261.52C942.147 2262.34 938.012 2258.61 938.893 2255.57C940.347 2250.56 941.686 2245.1 944.69 2241.03C951.788 2231.4 959.956 2222.57 967.453 2213.22C971.587 2208.07 975.877 2202.87 978.933 2197.08C982.144 2190.99 980.219 2184.91 974.073 2181.65C965.871 2177.3 957.24 2173.67 948.565 2170.33C941.806 2167.72 935.437 2169.27 930.138 2174.43C929.183 2175.36 928.144 2176.22 927.302 2177.24C914.567 2192.73 898.239 2202.42 878.969 2207.48C876.405 2208.15 873.894 2209.17 871.502 2210.32C862.639 2214.6 858.368 2221.53 859.364 2231.19C860.114 2238.47 861.885 2245.6 868.069 2252.29C870.678 2251.06 874.051 2250.38 876.068 2248.35C882.165 2242.21 887.746 2235.56 893.505 2229.09C897.57 2224.53 901.999 2220.7 908.476 2219.99C916.002 2219.17 921.633 2225.09 919.816 2232.36C917.648 2241.03 912.401 2247.63 906.191 2253.99C894.587 2265.89 882.769 2277.79 872.769 2291C857.006 2311.82 854.226 2336.25 858.348 2361.34C859.367 2367.55 863.567 2373.53 867.318 2378.91C871.949 2385.56 873.761 2391.89 869.639 2399.3C864.573 2408.4 864.368 2418.44 864.335 2428.48C864.267 2449.14 864.515 2469.81 864.044 2490.47C863.865 2498.37 863.096 2506.56 860.788 2514.06C856.988 2526.4 847.11 2533.18 835.588 2533.28C826.681 2533.36 820.473 2526.67 824.227 2519.19C833.694 2500.32 831.906 2480.34 832.353 2460.42C832.757 2442.45 834.067 2424.5 834.533 2406.54C834.739 2398.6 834.484 2390.54 833.313 2382.7C831.443 2370.18 828.517 2357.83 826.253 2345.37C823.597 2330.76 823.362 2316.12 827.914 2301.83C832.405 2287.73 832.865 2274.5 823.072 2262.06C818.483 2256.24 818.792 2249.21 823.032 2243.34C831.838 2231.15 832.511 2217.36 832.265 2203.22C832.103 2193.89 832.176 2184.55 831.978 2175.22C831.7 2162.08 825.878 2152.75 813.893 2146.51C798.478 2138.49 798.265 2136.76 806.333 2122.38C809.919 2115.99 814.227 2109.98 817.487 2103.44C819.179 2100.05 820.244 2095.76 819.828 2092.08C819.511 2089.29 816.889 2086.14 814.418 2084.36C811.329 2082.14 807.41 2083.64 805.655 2086.61C798.404 2098.9 785.731 2103.96 774.354 2110.66C758.92 2119.74 745.477 2118.12 732.511 2106.08C730.087 2103.83 727.851 2101.27 725.99 2098.54C719.9 2089.59 712.838 2082.22 702.654 2077.41C693.033 2072.86 691.27 2064.16 698.273 2056.06C703.81 2049.66 711.142 2044.73 718.004 2039.58C723.306 2035.61 729.685 2032.95 734.582 2028.58C746.038 2018.35 743.013 2005.59 728.052 2001.75C722.562 2000.34 716.283 2001.39 710.451 2002.07C698.837 2003.42 694.082 2000.41 693.106 1988.96C692.488 1981.7 692.752 1974.28 693.52 1967.03C694.848 1954.48 692.928 1943.58 683.659 1933.9C676.765 1926.7 677.605 1923.89 685.228 1915.26C687.85 1912.29 691.673 1910.02 690.095 1905.29C688.753 1901.27 682.159 1898.49 676.206 1900.05C671.811 1901.2 667.295 1903.07 663.669 1905.75C655.107 1912.08 646.671 1918.67 638.881 1925.91C630.427 1933.77 621.136 1939.89 610.36 1943.92C594.709 1949.76 579.607 1956.57 566.016 1966.62C561.341 1970.07 555.454 1972.7 549.754 1973.79C537.042 1976.21 528.143 1983.6 520.488 1993.22C518.413 1995.83 516.456 1998.53 514.341 2001.11C511.273 2004.84 507.654 2008.02 502.444 2006.93C496.338 2005.64 494.258 2000.64 493.113 1995.19C492.291 1991.28 491.913 1987.25 490.812 1983.43C490.097 1980.95 488.768 1978.46 487.091 1976.5C485.933 1975.16 483.622 1973.93 481.988 1974.11C480.44 1974.28 478.088 1976.17 477.827 1977.62C474.649 1995.31 471.401 2013 468.998 2030.81C467.584 2041.29 470.756 2050.61 480.001 2057.06C482.169 2058.57 484.243 2060.32 486.023 2062.27C489.421 2065.99 490.527 2071.8 486.873 2075.01C473.895 2086.4 473.384 2097.5 483.882 2111.21C489.251 2118.23 485.466 2126.83 477.709 2131.66C464.884 2139.65 451.88 2135.49 447.437 2121.12C445.315 2114.25 444.73 2106.71 444.604 2099.46C444.185 2075.47 444.482 2051.46 444.084 2027.47C443.964 2020.21 443.509 2012.65 441.393 2005.79C437.655 1993.68 430.198 1993.83 423.049 1997.28C417.09 2000.16 410.902 2003.03 404.493 2004.43C389.677 2007.65 378.996 2002.19 374.878 1987.86C370.596 1972.96 364.795 1958.99 356.917 1945.75C355.572 1943.48 354.519 1940.9 354.001 1938.33C351.131 1924.09 344.808 1912.39 332.75 1903.41C325.03 1897.65 323.878 1889.37 327.303 1881.96C330.802 1874.4 337.483 1870.5 345.127 1871.63C367.489 1874.92 390.377 1872.15 412.489 1878.85C437.418 1886.4 447.974 1876.04 443.154 1850.24C441.466 1841.2 436.507 1834.68 429.37 1829.05C411.608 1815.05 411.654 1814.81 425.647 1796.34C430.85 1789.48 433.171 1782.45 429.748 1774.62C428.052 1773.58 426.841 1772.18 425.837 1772.32C412.828 1774.08 402.466 1768.79 393.151 1760.48C391.163 1758.7 389.034 1757.08 387.044 1755.31C381.149 1750.06 374.551 1747.68 366.79 1750.46C353.717 1755.15 343.458 1750.68 334.517 1741.05C329.126 1735.24 323.379 1729.76 318.454 1724.8C317.88 1717.76 322.553 1715.66 326.199 1712.98C335.553 1706.12 334.596 1698.09 328.64 1690.54C324.553 1685.36 319.874 1680.45 314.703 1676.38C307.821 1670.96 300.955 1671.84 295.052 1678.03C292.771 1680.42 290.757 1683.15 289.041 1685.98C279.711 1701.36 269.457 1716.3 261.523 1732.37C250.523 1754.67 232.864 1764.71 208.969 1765.96C191.538 1766.87 174.33 1765.63 157.438 1761.01C141.158 1756.56 128.813 1747.24 121.126 1731.98C109.266 1708.44 102.659 1683.37 100.768 1657.24C99.1428 1634.8 107.247 1616.32 128.105 1605.85C141.441 1599.15 147.454 1589.19 149.489 1574.66C151.038 1563.62 154.653 1552.51 159.307 1542.32C168.873 1521.37 185.92 1513.22 208.312 1517.53C223.493 1520.46 237.665 1524.94 249.109 1536.79C260.239 1548.32 268.075 1560.44 268.503 1577.01C268.651 1582.7 271.108 1588.53 273.409 1593.91C275.018 1597.68 281.211 1597.87 283.69 1594.64C285.689 1592.02 287.508 1589.18 288.875 1586.2C295.589 1571.53 300.061 1556.39 300.484 1540C300.723 1530.77 302.45 1521.49 304.348 1512.41C306.086 1504.09 311.362 1498.19 319.603 1495.28C322.115 1494.39 324.705 1493.62 327.07 1492.43C337.488 1487.16 341.53 1478.19 337.11 1467.61C334.881 1462.27 331.054 1457.26 326.907 1453.16C322.709 1449.01 317.32 1446.01 312.27 1442.79C308.343 1440.28 304.074 1438.32 300.065 1435.94C278.932 1423.39 277.721 1413.43 295.034 1395.53C296.406 1394.11 297.555 1392.48 299.563 1390.02C298.259 1386.88 297.272 1383.08 295.247 1379.96C292.728 1376.08 289.026 1372.98 286.409 1369.15C279.244 1358.66 280.505 1348.99 290.029 1340.79C293.041 1338.2 296.643 1336.3 299.82 1333.88C302.989 1331.47 306.288 1329.11 308.959 1326.2C314.854 1319.77 314.435 1312.11 307.458 1307.19C302.062 1303.38 295.892 1300.66 290.01 1297.56C283.532 1294.15 276.642 1291.39 270.547 1287.4C256.405 1278.15 244.942 1266.25 236.743 1251.28C227.368 1234.16 220.966 1216.02 217.23 1196.91C214.544 1183.18 212.277 1169.35 209.3 1155.68C207.749 1148.56 205.81 1141.34 202.733 1134.77C196.83 1122.19 186.378 1115.74 172.353 1115.88C167.044 1115.94 161.747 1116.88 156.439 1117.36C137.717 1119.06 119.238 1118.27 100.892 1113.48C69.6712 1105.33 45.5524 1087.54 28.5671 1060.41C6.26592 1024.79 -3.48371 985.911 1.1115 943.925C4.08318 916.773 14.7264 892.547 31.1181 870.806C38.056 861.604 46.915 854.463 56.8991 848.98C79.6729 836.473 102.675 824.381 125.598 812.146C130.819 809.359 135.912 810.05 140.757 813.111C144.137 815.246 147.197 817.998 150.771 819.69C158.533 823.364 166.263 827.663 174.502 829.634C185.132 832.177 194.793 835.812 203.149 842.921C212.474 850.854 223.069 856.327 235.325 857.953C244.692 859.195 250.823 864.269 255.733 872.209C269.048 893.744 282.553 914.885 289.928 939.68C296.749 962.614 305.857 964.717 324.668 950.693C329.476 947.109 333.89 942.976 338.822 939.587C346.321 934.436 351.23 927.775 353.4 918.874C354.498 914.373 356.054 909.881 358.116 905.74C362.278 897.379 368.878 894.457 378.055 896.909C383.177 898.277 387.976 900.845 393.089 902.261C400.491 904.31 406.477 899.688 406.543 891.874C406.577 887.934 406.207 883.779 404.966 880.075C398.536 860.894 394.574 841.529 397.668 821.136C398.739 814.082 395.585 808.122 390.335 803.369C387.372 800.687 384.156 798.264 381.352 795.43C375.284 789.295 376.199 784.107 384.084 779.54C386.961 777.873 390.081 776.633 393.024 775.073C407.027 767.65 412.758 755.675 411.283 740.293C410.717 734.388 408.91 728.571 407.342 722.803C406.121 718.311 404.064 714.037 402.954 709.524C399.777 696.604 403.121 689.086 414.547 683.001C417.479 681.44 420.63 680.283 423.702 678.993C447.694 668.911 464.398 651.253 474.493 627.752C481.313 611.873 486.313 595.211 492.065 578.877C494.276 572.599 495.764 566.003 498.551 560.003C503.952 548.373 511.637 546.006 522.864 551.898C526.397 553.752 529.625 556.181 533.126 558.105C556.971 571.207 575.892 567.508 593.065 546.117C598.063 539.892 602.238 533.012 607.071 526.645C609 524.103 611.687 522.137 615.098 518.893C618.63 522.94 621.764 526.065 624.361 529.586C636.548 546.103 646.631 549.188 665.705 541.139C674.901 537.259 683.569 532.139 692.707 528.103C700.601 524.616 708.621 521.091 716.937 518.947C737.115 513.745 753.883 519.328 765.802 536.935C774.076 549.158 783.274 560.573 794.894 569.695C799.496 573.308 804.968 576.187 810.496 578.067C812.825 578.859 817.472 577.012 818.97 574.887C820.461 572.77 820.17 568.477 819.112 565.736C817.988 562.822 815.2 560.453 812.856 558.132C810.021 555.325 806.657 553.036 803.937 550.134C798.322 544.142 796.955 537.711 802.58 532.351C813.017 522.407 813.035 511.837 808.399 499.634C806.767 495.338 805.957 490.585 805.602 485.977C804.601 473 810.667 464.216 823.361 460.672C828.423 459.259 833.857 459.013 839.15 458.639C843.792 458.311 848.493 458.813 853.133 458.469C859.667 457.986 862.9 453.742 861.34 447.581C860.035 442.433 857.732 437.531 856.523 432.367C854.431 423.432 861.112 416.508 870.204 417.755C876.561 418.626 881.64 421.953 884.886 427.185C888.369 432.799 891.629 438.771 893.683 445.015C904.095 476.668 914.133 508.446 924.164 540.224C925.561 544.649 926.481 549.274 927.128 553.876C928.282 562.074 926.909 569.809 921.845 576.642C919.862 579.318 917.877 582.004 916.077 584.804C907.333 598.41 907.126 612.332 914.744 626.472C920.213 636.623 927.959 644.836 936.918 651.919C938.954 653.528 941.513 654.639 944 655.479C950.16 657.559 956.374 653.339 956.756 646.672C957.3 637.171 955.414 628.117 950.851 619.676C947.658 613.771 944.975 607.754 945.534 600.727C946.174 592.694 952.739 588.477 959.481 592.75C992.369 613.591 1026.7 608.966 1061.41 599.093C1067.17 597.453 1072.92 595.744 1078.63 593.931C1098.37 587.67 1109.27 571.834 1107.15 551.389C1106.4 544.173 1103.85 537.151 1102.23 530.018C1098.09 511.834 1093.65 493.706 1090.09 475.41C1088.84 469.019 1088.78 462.022 1089.94 455.62C1092.01 444.135 1104.51 440.552 1112.93 448.587C1115.3 450.849 1117.48 453.579 1118.92 456.504C1127.72 474.44 1136.69 492.312 1144.8 510.562C1152.1 526.968 1153.49 543.988 1146.78 561.167C1145.58 564.258 1144.77 567.523 1144 570.759C1143.03 574.771 1142.82 578.806 1146.56 581.653C1149.58 583.95 1156.38 583.519 1159.56 580.07C1162.1 577.306 1164.91 573.407 1164.97 569.961C1165.49 543.01 1185.1 530.803 1204.38 518.693C1209.13 515.705 1215.78 515.109 1221.66 514.648C1235 513.6 1248.16 514.948 1261.35 517.823C1272.32 520.215 1283.73 522.15 1294.88 521.835C1328.08 520.897 1351.49 494.256 1349.72 460.896C1349.22 451.587 1348.19 442.241 1348.58 432.962C1349.37 414.313 1357.25 408.615 1374.53 414.831C1392.74 421.382 1409.98 430.125 1425.9 441.35C1432.96 446.329 1440.14 451.286 1447.78 455.254C1461.04 462.135 1474.87 462.602 1487.98 454.964C1497.72 449.293 1507.91 443.689 1516 436.046C1529.88 422.928 1544.06 418.903 1561.18 428.611C1562.84 429.553 1564.96 429.732 1566.89 430.128C1567.48 430.249 1568.17 429.912 1570.33 429.483C1571.07 426.55 1572.75 422.961 1572.71 419.395C1572.59 410.487 1574.82 402.535 1578.63 394.454C1581.65 388.022 1583.08 380.591 1583.96 373.449C1585.57 360.241 1586.69 346.937 1587.22 333.64C1587.75 320.349 1588.46 306.899 1587.06 293.732C1584.04 265.192 1581.64 236.733 1583.97 208.016C1585.62 187.743 1581.92 168.105 1575.13 149.104C1570.31 135.609 1569.09 122.228 1570.99 107.894C1572.81 94.098 1571.93 79.9585 1572.54 65.9833C1572.8 60.0385 1573.2 53.9639 1574.68 48.2427C1576.56 40.9716 1585.8 39.4714 1590.43 45.5569C1592.78 48.6506 1594.64 52.377 1595.75 56.1058C1599.24 67.7504 1599.61 79.584 1598.12 91.723C1597.08 100.211 1597.57 108.933 1597.94 117.526C1598.09 120.877 1600.25 124.324 1604.2 123.921C1606.43 123.694 1609.67 121.72 1610.33 119.803C1612.45 113.608 1614.38 107.138 1614.9 100.655C1615.37 94.7772 1613.94 88.7399 1613.29 82.7799C1612.11 71.9886 1612.81 61.3203 1617.31 51.3971C1622.69 39.5446 1624.17 27.1805 1624.38 14.3884C1624.45 9.89111 1625.99 5.4115 1626.98 0.949707C1627.06 0.610595 1628.07 0.479492 1629.29 0C1633.56 4.90686 1632.27 11.0719 1632.3 16.7117C1632.46 42.0416 1632.28 67.3733 1632.34 92.7041C1632.36 98.6934 1632.56 104.706 1633.14 110.664C1633.85 117.944 1637.55 123.843 1644.92 125.083C1664.54 128.385 1668.52 141.571 1668.31 158.696C1667.94 189.355 1668.16 220.022 1668.2 250.686C1668.21 260.809 1666.39 270.448 1662.68 279.948C1660.82 284.724 1660.07 290.297 1660.31 295.439C1660.61 301.848 1666.74 305.701 1673.2 304.731C1673.85 304.633 1674.47 304.327 1675.12 304.199C1690.15 301.248 1692.66 302.439 1697.61 315.453C1699.48 320.348 1700.94 325.397 1702.32 329.574C1707.26 331.935 1710.12 329.83 1711.95 327.098C1716 321.028 1719.59 314.639 1723.25 308.307C1726.91 301.965 1730.01 295.261 1734.09 289.213C1738.93 282.04 1745.91 278.517 1754.81 280.534C1763.52 282.508 1768.97 289.364 1769.82 299.368C1770.04 302.008 1769.56 304.703 1769.7 307.356C1770.36 319.793 1773.32 323.164 1786.05 326.153C1791.74 327.49 1797.45 328.764 1805.14 330.522C1802.68 334.074 1801.73 336.47 1799.97 337.753C1796.76 340.092 1793.08 341.779 1789.59 343.722C1773.91 352.441 1762.58 365.151 1754.91 381.289C1744.83 402.518 1738.53 425.038 1733.86 447.872C1728.56 473.763 1736.43 483.679 1762.47 487.056C1766.42 487.569 1770.44 488.068 1774.41 487.912C1786.95 487.421 1795.95 481.744 1800.14 469.463C1802.08 463.787 1803.89 458.058 1806.11 452.493C1810.48 441.548 1818.59 435.453 1830.46 434.809C1837.78 434.411 1845.12 434.312 1852.44 434.007C1873.5 433.13 1889.32 423.081 1899.94 405.351C1904.68 397.437 1908.51 388.692 1911.12 379.842C1916.19 362.594 1920.21 345.027 1924.5 327.553C1930.41 303.505 1937.45 279.926 1951.53 259.119C1956.87 251.229 1959.62 242.413 1961.26 233.11C1964.09 217.03 1971.91 203.06 1980.29 189.365C1980.98 188.237 1981.68 186.777 1982.75 186.287C1985 185.257 1987.88 183.68 1989.78 184.357C1991.78 185.068 1994.01 188.037 1994.24 190.22C1994.72 194.759 1994.82 199.687 1993.55 204.006C1987.35 225.07 1984.32 247.03 1975.24 267.299C1972.26 273.933 1971.02 281.324 1968.63 288.243C1963.19 303.959 1958.11 319.841 1951.74 335.184C1947.34 345.79 1944.15 356.518 1942.76 367.805C1940.21 388.583 1934.67 408.214 1922.89 425.892C1919.62 430.804 1917.36 436.583 1915.59 442.26C1912.46 452.264 1915.23 458.666 1924.28 464.181C1926.55 465.56 1929.06 466.545 1931.49 467.624C1938.87 470.888 1942.71 476.724 1943.99 484.497C1944.54 487.784 1945.1 491.072 1945.8 494.33C1953.41 529.898 1978.16 549.923 2009.55 563.255C2021.75 568.436 2031.7 565.218 2039.56 554.405C2048.16 542.569 2056.04 530.143 2063.38 517.48C2066.29 512.464 2067.29 506.197 2068.46 500.359C2070.16 491.869 2071.29 483.263 2072.54 474.688C2074.29 462.654 2081.45 455.753 2092.93 452.869C2094.87 452.383 2096.83 451.938 2098.8 451.656C2117.73 448.951 2125.44 458.078 2119.74 476.092C2117.42 483.447 2112.36 488.619 2107.07 493.73C2098.39 502.121 2090.65 511.25 2085.44 522.247C2082.31 528.844 2082.81 535.113 2087.71 540.862C2091.77 545.62 2098.01 545.811 2101.29 540.888C2103.12 538.136 2104.57 535.096 2105.95 532.078C2112.05 518.746 2122.09 509.23 2135.1 503.022C2167.48 487.561 2167.9 484.064 2184.3 456.414C2206.89 418.3 2236.8 385.963 2274.01 361.046C2278.44 358.079 2282.85 355.074 2287.28 352.114C2294.06 347.596 2299.72 342.063 2303.26 334.607C2308.26 324.061 2315.58 315.56 2325.85 309.955C2333.91 305.553 2339.19 299.337 2341.7 290.411C2344.09 281.857 2349.36 274.852 2355.74 268.865C2367.13 258.178 2375.18 245.306 2381.75 231.296C2384.57 225.276 2387.43 219.079 2391.46 213.878C2394.54 209.892 2399.05 206.213 2403.71 204.423C2410.34 201.87 2416.9 203.952 2421.66 209.7C2425.79 214.691 2425.46 221.365 2420.05 227.949C2411.16 238.75 2402.21 249.54 2392.61 259.693C2384.31 268.468 2376.45 277.368 2371.09 288.305C2367.49 295.646 2362.21 301.596 2354.97 305.592C2348.82 308.982 2344.92 314.208 2342.45 320.627C2338.07 332.039 2330.63 341.292 2322.59 350.354C2316.9 356.768 2312.48 364.325 2307.68 371.5C2299.53 383.675 2292.3 396.55 2283.31 408.05C2267.82 427.843 2248.14 442.896 2224.36 451.243C2209.36 456.508 2201.26 465.968 2198.69 481.161C2197.13 490.357 2194.84 499.439 2193.55 508.667C2191.69 521.968 2191.52 535.315 2196.33 548.165C2200.63 559.658 2199.69 570.187 2192.32 580.315C2189.24 584.548 2186.59 589.46 2185.15 594.467C2180.19 611.736 2175.84 629.179 2171.28 646.563C2169.69 652.623 2170 658.418 2173.7 663.777C2178.85 671.238 2187.5 673.784 2194.53 668.362C2206.67 659.007 2218.26 648.93 2224.15 633.98C2227.57 625.307 2231.39 616.791 2235.18 608.273C2241.49 594.105 2250.33 581.795 2261.5 570.931C2280.24 552.703 2295.54 531.695 2308.75 509.2C2313.88 500.454 2319.93 492.773 2327.95 486.469C2333.16 482.378 2337.67 477.4 2342.46 472.795C2344.86 470.493 2346.87 467.523 2349.68 465.984C2352.31 464.54 2356.17 463.376 2358.76 464.241C2363.16 465.705 2363.66 470.392 2362.66 474.39C2361.7 478.182 2360.11 481.971 2358.03 485.276C2355.93 488.615 2352.99 491.467 2350.22 494.337C2345.59 499.13 2341.07 504.084 2336.03 508.417C2306.46 533.824 2289.35 567.836 2271.55 601.359C2269.7 604.84 2268.45 608.775 2267.68 612.649C2267.04 615.829 2266.73 619.462 2267.63 622.495C2270.98 633.793 2279.7 639.67 2290.32 643.04C2300.61 646.302 2310.04 645.207 2317.8 636.759C2330.48 622.947 2341.63 608.072 2350.09 591.263C2352.18 587.107 2354.12 582.829 2356.68 578.968C2359.46 574.771 2363.69 572.825 2368.81 573.97C2373.74 575.075 2378.12 580.244 2378.02 585.721C2377.95 589.602 2377.03 593.631 2375.65 597.277C2374.25 600.97 2371.65 604.186 2369.89 607.768C2366.45 614.763 2367.21 620.143 2371.89 624.028C2377.42 628.633 2384.94 629.494 2390.45 625.834C2392.63 624.384 2394.86 622.602 2396.25 620.442C2402.26 611.085 2410.97 605.305 2420.71 600.529C2424.86 598.496 2428.38 595.216 2432.37 592.824C2435.2 591.134 2438.25 589.175 2441.37 588.827C2444.32 588.498 2448.6 589.184 2450.25 591.143C2451.81 593.009 2451.39 597.269 2450.63 600.154C2450 602.526 2447.69 604.516 2445.95 606.52C2433.73 620.589 2421.41 634.577 2409.22 648.673C2399.49 659.922 2387.84 668.792 2374.77 675.611C2363.08 681.713 2356.76 679.495 2349.97 668.207C2348.26 665.358 2347.06 662.176 2345.19 659.448C2340.42 652.506 2332.69 651.573 2326.3 657.443C2323.43 660.083 2320.62 663.341 2319.17 666.887C2310.57 687.841 2301.24 708.629 2297.84 731.252C2296.57 739.764 2296.64 748.511 2296.54 757.157C2296.43 766.123 2299.09 774.345 2305.4 780.932C2315.91 791.921 2321.67 805.29 2324.67 819.848C2329.77 844.519 2343.34 858.821 2369.7 859.445C2379.65 859.68 2389.59 861.402 2399.47 862.835C2408.03 864.075 2416.66 865.309 2424.98 867.553C2435.91 870.499 2443.37 878.099 2448.08 888.213C2452.98 898.716 2452.32 908.907 2445.28 918.397C2444.49 919.466 2443.76 920.654 2442.77 921.498C2429.29 932.886 2424.15 946.014 2429.96 963.957C2432.14 970.71 2429.02 979.678 2426.85 987.214C2424.09 996.783 2419.81 1005.91 2416.24 1015.25C2410.95 1029.07 2413.49 1040.9 2423.73 1051.99C2439.84 1069.45 2458.92 1080.17 2482.78 1082.06C2488.74 1082.53 2494.81 1082.99 2500.56 1084.48C2512.61 1087.58 2519.92 1095.7 2522.72 1107.8C2527.17 1126.98 2520.3 1143.77 2503.27 1154.04C2497.6 1157.46 2491.27 1159.76 2485.21 1162.52C2480.37 1164.72 2475.17 1166.33 2470.69 1169.1C2461.29 1174.92 2461.15 1185.52 2469.93 1192.27C2475.08 1196.22 2480.95 1197.5 2486.91 1195.38C2494.42 1192.71 2501.65 1189.26 2508.95 1186.03C2544.89 1170.09 2580.65 1153.75 2616.83 1138.39C2626.46 1134.3 2637.23 1131.84 2647.68 1130.96C2665.9 1129.42 2674.7 1136.3 2680.39 1153.63C2687.58 1175.51 2681.69 1189.64 2660.81 1199.32C2654.81 1202.1 2648.28 1203.78 2641.96 1205.86C2636.9 1207.53 2631.66 1208.71 2626.74 1210.69C2620.62 1213.14 2619.51 1218.19 2623.69 1223.55C2630.24 1231.95 2637.15 1240.08 2643.52 1248.6C2645.83 1251.7 2647.85 1255.45 2648.6 1259.18C2650.29 1267.63 2651.22 1276.25 2652.26 1284.82C2653.08 1291.65 2650.22 1296.32 2643.76 1298.97C2634.65 1302.72 2625.2 1302.98 2616.65 1298.31C2606.43 1292.73 2596.38 1293.34 2585.66 1295.75C2573.96 1298.38 2562.03 1299.93 2550.31 1302.47C2544.51 1303.72 2538.79 1305.75 2533.38 1308.2C2531.43 1309.08 2529.32 1312.33 2529.5 1314.31C2529.64 1315.92 2533.09 1318.53 2535.04 1318.49C2547.68 1318.25 2560.3 1317.32 2572.94 1316.76C2591.56 1315.93 2610.18 1315.06 2628.81 1314.58C2633.38 1314.46 2638.25 1315.1 2642.47 1316.73C2645.09 1317.74 2647.82 1320.99 2648.57 1323.75C2649.69 1327.89 2647.24 1331.82 2643.21 1333.38C2639.61 1334.78 2635.42 1335.93 2631.67 1335.52C2606.84 1332.79 2582.55 1338.82 2557.95 1339.65C2545.98 1340.05 2534.07 1341.89 2522.1 1342.52C2499.08 1343.73 2486.67 1359.05 2476.64 1376.9C2472.46 1384.32 2477.18 1391.01 2486.23 1392.47C2490.17 1393.11 2494.26 1392.86 2498.14 1393.66C2506.66 1395.41 2510.24 1401.59 2507.49 1410.14C2505.86 1415.18 2503.1 1419.85 2501.25 1424.84C2498.94 1431.06 2496.76 1437.36 2495.13 1443.78C2494.57 1446.02 2495.83 1448.72 2496.57 1453.05C2501.76 1450.37 2505.66 1448.4 2509.5 1446.35C2515.21 1443.3 2520.93 1443.02 2526.67 1446.18C2534.47 1450.48 2535.01 1461.29 2527.46 1465.92C2524.7 1467.62 2521.4 1469.05 2518.23 1469.35C2510.1 1470.14 2504.81 1474.21 2501.08 1481.28C2498.29 1486.57 2494.44 1491.3 2491.61 1496.57C2479.26 1519.55 2482.22 1542.35 2501.32 1560.37C2509.92 1568.49 2520.56 1574.5 2530.55 1581.06C2534.97 1583.97 2540.17 1585.65 2544.81 1588.27C2554.24 1593.6 2559.05 1601.84 2559.8 1612.68C2561.05 1630.48 2554.51 1640.18 2537.34 1645.41C2535.43 1645.99 2533.48 1646.56 2531.51 1646.81C2503.14 1650.45 2483.26 1667.99 2464.7 1687.65C2463.36 1689.07 2462.24 1690.84 2461.48 1692.64C2460.01 1696.1 2460.72 1699.75 2463.91 1701.41C2468.55 1703.83 2473.59 1705.94 2478.7 1706.92C2495.8 1710.22 2512.31 1714.75 2527.82 1723.17C2534.7 1726.9 2543.07 1727.8 2550.53 1730.62C2556.02 1732.69 2561.5 1735.25 2566.29 1738.59C2570.3 1741.37 2570.66 1747.71 2568.03 1751.25C2565.37 1754.83 2561.48 1756.3 2557.44 1754.81C2551.86 1752.76 2546.66 1749.71 2541.18 1747.33C2527.77 1741.51 2514.6 1734.9 2500.78 1730.26C2469.64 1719.79 2452.75 1739.5 2447.53 1760.19C2445.9 1766.63 2444.87 1773.24 2443.95 1779.83C2442.75 1788.44 2438.98 1794.97 2430.48 1798.02C2422.63 1800.83 2416.72 1805.95 2412.08 1812.76C2403.37 1825.56 2392.81 1836.38 2379.86 1845.13C2369.59 1852.07 2368.66 1858.63 2374.98 1868.87C2377.42 1872.82 2380.49 1876.39 2383.36 1880.06C2403.38 1905.61 2417.61 1933.6 2424.23 1965.85C2428.26 1985.47 2432.87 2004.72 2433.04 2024.91C2433.1 2032.75 2435.36 2040.72 2437.59 2048.35C2440.7 2058.99 2448.12 2066.44 2457.02 2072.95C2466.67 2080 2475.76 2087.88 2484.59 2095.96C2486.49 2097.7 2487.61 2102.52 2486.55 2104.65C2485.45 2106.88 2481.1 2108.97 2478.47 2108.66C2473.34 2108.03 2467.96 2106.48 2463.52 2103.88C2455.49 2099.18 2448.13 2093.35 2440.38 2088.16C2436.54 2085.58 2432.64 2082.91 2428.41 2081.13C2423.28 2078.99 2417.16 2081.13 2414.5 2086.01C2408.62 2096.78 2405.9 2108.58 2407.41 2120.66C2408.02 2125.5 2411.57 2130.44 2414.91 2134.37C2426.55 2148.07 2438.73 2161.31 2450.6 2174.82C2453.66 2178.3 2456.71 2181.88 2459.06 2185.84C2461.49 2189.92 2460.09 2195.05 2456.5 2198.61C2452.87 2202.2 2447.79 2203.55 2443.71 2201C2439.24 2198.2 2435.28 2194.58 2431.17 2191.22C2423.59 2185.02 2416.62 2177.83 2405.39 2174.54C2405.39 2178.47 2404.85 2181.08 2405.5 2183.34C2407.17 2189.09 2409.94 2194.55 2411.24 2200.37C2413.75 2211.51 2419.78 2219.63 2429.62 2225.28C2439.04 2230.68 2446.6 2238.06 2452.14 2247.5C2453.81 2250.35 2455.87 2253.05 2458.14 2255.46C2473.63 2271.95 2489.22 2288.35 2504.77 2304.78C2506.61 2306.72 2508.87 2308.41 2510.15 2310.67C2511.7 2313.39 2513.75 2316.88 2513.19 2319.52C2512.21 2324.08 2507.49 2324.63 2503.39 2324.47C2494.77 2324.14 2487.37 2320.08 2483.3 2313.02C2472.91 2294.97 2453.7 2286.4 2440.4 2271.53C2437.07 2267.81 2431.52 2265.58 2426.58 2263.88C2413.61 2259.41 2403.05 2251.66 2393.62 2241.94C2383.41 2231.42 2373.16 2220.92 2362.53 2210.82C2357.26 2205.81 2351.39 2201.29 2345.25 2197.39C2342.24 2195.48 2338.01 2195.51 2333.25 2194.41C2332.16 2200.8 2331.62 2206.01 2330.32 2211.03C2328.64 2217.52 2322.48 2220.72 2316.27 2218.48C2313.18 2217.37 2310.41 2215.38 2307.41 2213.96C2300.84 2210.84 2294.43 2207.19 2287.56 2204.94C2278.27 2201.9 2270.72 2197.32 2265.85 2188.55C2263.95 2185.13 2261.59 2181.36 2258.42 2179.4C2255.39 2177.53 2250.87 2176.78 2247.3 2177.37C2242.26 2178.2 2239.13 2182.6 2239.36 2187.56C2239.6 2192.73 2240.96 2198.03 2242.81 2202.9C2245.38 2209.61 2248.87 2215.98 2251.59 2221.71C2248.96 2226.96 2245.45 2226.2 2242.34 2225.36C2229.84 2221.96 2217.3 2222.38 2204.65 2224.19C2200.05 2224.85 2195.29 2225.47 2190.72 2225.01C2185.5 2224.49 2180.14 2223.35 2175.37 2221.28C2172.8 2220.17 2169.97 2216.66 2169.74 2214.02C2169.52 2211.41 2171.81 2207.75 2174.1 2205.97C2177.15 2203.61 2181.28 2202.64 2184.92 2201.04C2188.58 2199.44 2192.46 2198.2 2195.79 2196.08C2200.61 2193.01 2202.94 2188.26 2202.44 2182.43C2201.14 2167.28 2183.93 2154.94 2169.29 2158.6C2161.29 2160.6 2154.88 2165.16 2148.87 2170.65C2128.82 2188.99 2126.64 2189.41 2103.98 2176.45C2095.57 2171.64 2087.61 2171.13 2079.39 2175.71C2067.77 2182.17 2056.29 2188.92 2044.81 2195.63C2041.94 2197.3 2039.39 2199.56 2036.46 2201.1C2026.64 2206.24 2018.81 2205.33 2010.88 2197.73C2007.05 2194.07 2004.19 2189.41 2000.44 2185.65C1993.42 2178.58 1986.54 2171.23 1978.72 2165.13C1971.23 2159.29 1962.58 2159.41 1954.49 2164.92C1946.99 2170.03 1944.21 2177.84 1946.7 2187.86C1947.81 2192.36 1950.06 2196.57 1951.33 2201.04C1952.96 2206.77 1954.95 2212.58 1955.32 2218.45C1956.44 2236.2 1946.53 2249.31 1929.45 2254.01C1920.24 2256.55 1912.29 2254.93 1906.05 2247.32C1903.51 2244.24 1901.36 2240.79 1898.58 2237.95C1891.43 2230.63 1882.6 2229.42 1875.55 2236.58C1865.98 2246.31 1855.26 2253.41 1842.66 2258.47C1833.92 2261.98 1829.6 2269.76 1828.99 2279.05C1828.38 2288.35 1828.53 2297.7 1828.19 2307.02C1827.73 2319.81 1825.13 2325.88 1820.2 2325.27C1811.17 2324.15 1809.68 2316.07 1806.86 2309.53C1805.03 2305.27 1804.26 2300.55 1802.45 2296.27C1798.59 2287.14 1791.81 2282.99 1782.06 2283.26C1773.71 2283.49 1768.16 2287.52 1765.8 2295.47C1764.86 2298.64 1764.63 2302.02 1763.97 2305.28C1763.31 2308.54 1762.84 2311.89 1761.72 2314.99C1760.12 2319.43 1757.94 2323.64 1752.53 2324.49C1748.77 2325.08 1745.03 2321.87 1743.57 2315.33C1741.98 2308.23 1741.29 2300.91 1740.47 2293.65C1739.87 2288.36 1740.17 2282.94 1739.22 2277.73C1737.19 2266.65 1729.52 2261.41 1718.77 2265.08C1710.75 2267.82 1702.36 2271.66 1696.18 2277.26C1674.21 2297.13 1659.14 2320.86 1660.47 2352.06C1661.07 2366.03 1661.97 2379.98 1662.75 2393.94C1663.19 2401.92 1663.98 2409.9 1664.03 2417.89C1664.24 2445.22 1664.27 2472.55 1664.19 2499.88C1664.17 2506.52 1663.81 2513.21 1663.02 2519.8C1662.44 2524.57 1660.33 2528.84 1655 2530.18C1650.42 2531.33 1644.95 2528.51 1642.45 2522.43C1639.95 2516.35 1637.95 2509.84 1637.15 2503.34C1636.09 2494.78 1636.2 2486.05 1636.19 2477.39C1636.14 2440.06 1636.22 2402.73 1636.29 2365.4C1636.31 2352.01 1636.15 2338.71 1629.99 2326.3C1626.63 2319.53 1628.55 2313.37 1632.77 2307.61C1638.13 2300.31 1640.32 2292.12 1639.53 2283.12C1638.2 2267.97 1627.54 2260.68 1612.93 2265.12C1601.96 2268.44 1594.21 2275.15 1591.53 2286.71C1589.41 2295.8 1587.17 2304.87 1585.5 2314.04C1583.51 2324.91 1579.1 2334.35 1570.83 2341.77C1561.4 2350.24 1556.33 2360.6 1556.09 2373.4C1555.87 2385.35 1550.15 2393.55 1538.59 2397.4C1528.13 2400.89 1524.62 2408.92 1524.51 2419.15C1524.46 2423.81 1524.28 2428.48 1524.28 2433.14C1524.27 2505.8 1524.14 2578.46 1524.44 2651.12C1524.5 2663.72 1525.6 2676.45 1527.58 2688.89C1532.93 2722.51 1537.76 2756.1 1536.39 2790.3C1536.13 2796.9 1537.21 2803.56 1537.96 2811.98ZM527.26 1899.16C517.564 1912.64 504.817 1921.52 488.509 1925.26C485.333 1925.99 482.283 1927.49 479.343 1928.97C476.325 1930.49 474.651 1935.59 476.779 1937.45C478.5 1938.96 481.861 1940.53 483.555 1939.83C495.769 1934.73 506.888 1936.65 517.561 1943.78C518.644 1944.5 520.032 1945.36 521.202 1945.26C524.994 1944.93 529.448 1945.28 532.393 1943.4C541.873 1937.36 551.047 1930.76 559.863 1923.78C572.184 1914.02 580.685 1901.53 583.927 1885.91C584.997 1880.76 581.223 1876.27 576.227 1876.77C572.299 1877.16 568.32 1877.91 564.579 1879.15C551.935 1883.35 539.673 1888.4 527.26 1899.16ZM518.071 1842.34C502.388 1843.73 493.811 1855 485.54 1866.3C483.332 1869.32 482.359 1873.62 481.903 1877.47C480.779 1886.94 486.781 1892.46 496.407 1891.45C506.045 1890.44 513.729 1885.59 521.277 1879.83C535.958 1868.62 549.551 1855.23 569.323 1853.08C569.951 1853.01 570.538 1852.57 571.146 1852.31C575.244 1850.55 576.452 1844.88 572.727 1842.61C565.989 1838.51 558.944 1834.81 551.728 1831.62C546.638 1829.36 541.546 1830.34 536.626 1833.54C531.704 1836.74 526.225 1839.08 518.071 1842.34ZM680.694 1850.76C681.254 1846.04 681.61 1841.25 677.134 1838.08C672.894 1835.08 668.249 1836.13 663.715 1837.53C656.991 1839.6 652.046 1844.01 648.838 1850.08C643.553 1860.06 638.533 1870.2 633.694 1880.41C632.343 1883.26 631.204 1886.76 635.404 1888.95C642.957 1886.77 650.42 1883.7 658.164 1882.59C669.874 1880.91 675.789 1874.4 677.924 1863.38C678.556 1860.12 679.438 1856.91 680.694 1850.76ZM870.571 2143.84C869.821 2150.31 868.317 2156.8 868.52 2163.24C868.754 2170.66 865.44 2180.69 874.827 2184.09C882.339 2186.8 887.825 2179.26 893.249 2174.74C896.729 2171.84 899.782 2168.23 902.337 2164.47C904.694 2161 905.094 2156.25 901.697 2153.59C893.12 2146.87 884.876 2138.52 870.571 2143.84Z" fill="#101010"/>
</svg>
