<svg width="130" height="136" viewBox="0 0 130 136" fill="none" xmlns="http://www.w3.org/2000/svg">
<path d="M83.956 27.9848C64.9173 50.8603 45.8249 73.6913 26.8615 96.6291C16.7823 108.821 18.9415 118.257 34.337 122.588C46.0221 125.875 58.5198 126.552 70.7227 127.647C84.8047 128.91 98.96 129.357 114.269 130.226C112.31 131.277 111.218 132.325 110.053 132.415C102.385 133.003 94.707 133.557 87.0222 133.798C69.5528 134.346 52.0774 134.704 34.6047 135.146C29.9556 135.264 25.2471 135.942 20.6698 135.432C8.09256 134.029 0.0586401 124.867 0.115041 111.434C0.183492 95.1291 0.973451 78.8278 1.8226 62.1649C2.27974 61.6992 2.45176 61.5146 2.43829 61.4999C2.26029 61.3055 2.0562 61.1351 1.85864 60.9587C1.86805 56.9359 1.87748 52.913 2.23221 48.2303C2.42766 46.3919 2.27781 45.2135 2.12797 44.0351C2.39375 36.4216 2.28282 28.7718 3.01251 21.2031C4.14258 9.48126 14.5496 0.264404 26.756 0.0146484C27.2938 8.74942 30.8167 16.1897 38.0239 21.4786C42.5434 24.7951 47.6806 26.7234 53.9741 27.321C64.3793 27.7685 74.1677 27.8767 83.956 27.9848Z" fill="#FE3E2F"/>
<path d="M115.177 43.1583C119.99 37.3059 124.573 31.7213 129.464 25.7605C133.61 62.4344 103.66 98.7374 74.431 92.1455C88.088 75.7228 101.517 59.5745 115.177 43.1583Z" fill="#F7B62B"/>
<path d="M84.1502 27.7028C74.1676 27.8765 64.3793 27.7684 54.3075 27.3539C64.1309 27.172 74.2377 27.2964 84.1502 27.7028Z" fill="#F60403"/>
<path d="M2.05884 44.4253C2.27776 45.2133 2.42761 46.3918 2.32293 47.7735C2.0422 46.9231 2.01599 45.8694 2.05884 44.4253Z" fill="#FE2D19"/>
<path d="M1.77219 61.2026C2.05616 61.1349 2.26024 61.3054 2.43825 61.4997C2.45171 61.5144 2.2797 61.699 2.00051 61.8774C1.76668 61.7823 1.72624 61.6145 1.77219 61.2026Z" fill="#FE2D19"/>
</svg>
